<?xml version="1.0" encoding="utf-8"?>
<!-- Generator: Adobe Illustrator 16.0.0, SVG Export Plug-In . SVG Version: 6.00 Build 0)  -->
<!DOCTYPE svg PUBLIC "-//W3C//DTD SVG 1.1//EN" "http://www.w3.org/Graphics/SVG/1.1/DTD/svg11.dtd">
<svg version="1.1" id="Layer_1" xmlns="http://www.w3.org/2000/svg" xmlns:xlink="http://www.w3.org/1999/xlink" x="0px" y="0px"
	 width="500px" height="500px" viewBox="0 0 500 500" enable-background="new 0 0 500 500" xml:space="preserve">
<circle fill="#FFFFFF" cx="250" cy="250" r="242.861"/>
<g>
	<g>
		<path fill="#D8B428" d="M424.749,288.031c-5.802-2.985-14.707-1.023-23.051,10.61c-8.16,11.369-5.229,20.565-2.075,25.724
			c2.093,3.424,0.32,7.594-2.07,11.76c-0.984-2.259-8.049-18.197-20.025-38.059c0.274-0.554,2.477-0.75,2.227-1.512
			c0,0-0.902-1.048-1.168-1.426c-18.368-26.19-32.228-39.254-38.334-45.198c0.74-1.026,1.367-1.934,1.396-2.039l0.06,0.299
			l0.475-0.659c4.397-6.997,6.985-20.829,7.08-21.117l1.583,1.092c0,0,0.177-0.625,0.253-0.826
			c0.745-1.887,2.013-17.276,1.972-17.861l0.039-1.193c0,0,0.04-0.266,0.045-0.347c0.688-0.83,2.049,0.237,2.121-0.544
			c0,0,0.146-4.294,0.181-5.277c0.04-1.07-0.604-8.539-1.642-13.53c-0.032-0.159-0.109-0.308-0.174-0.461
			c-0.062-0.153-0.158-0.387-0.16-0.472c0,0,2.49-0.661,2.468-0.987c-0.624-9.363-3.858-25.472-4-25.843
			c-0.283-1.033,1.105-0.036,1.105-0.036l0.142-0.241l0.029-0.272c0.316-2.819-4.235-18.896-7.671-23.246
			c0.09-0.24,0.136-0.502,0.136-0.772l0.021-0.101l0.816-1.179l0.01-0.115l1.318-2.654l0.056-0.032
			c0.88-0.47,1.411-1.254,1.535-2.271l0.026-0.211c0,0-0.054-0.263-0.059-0.29l0.172-0.012l0.447-0.797
			c0.184-0.311,0.447-0.752,0.5-1.346l0.175-0.516c0.471-0.654,0.62-1.37,0.734-1.955c0.113-0.537,0.194-0.875,0.391-1.059
			l0.532-0.482l-0.133-0.714c-0.052-0.288,0.091-0.549,0.461-1.12c0.264-0.41,0.588-0.905,0.762-1.515l0.07-0.114
			c0.426-0.47,1.209-1.414,1.11-2.751c0.562-0.892,0.435-1.864,0.352-2.493c-0.022-0.189-0.05-0.377-0.05-0.562l0.758-1.141
			l-0.312-0.66c0.004,0.009,0.006,0.015,0.008,0.016c0.031,0.011,0.055-0.113,0.071-0.2c0.054-0.271,0.136-0.673,0.081-1.123
			l0.65-0.693l-0.324-0.71c0.017-0.029,0.047-0.069,0.083-0.12l0.426-0.542l-0.11-0.346c0.256-0.564,0.281-1.183,0.059-1.779
			l-0.243-0.597c-0.042-0.213,0.004-0.525,0.052-0.852c0.052-0.354,0.113-0.778,0.09-1.237l0.189-0.095l0.148-1.283
			c0.489-0.696,0.8-1.738,0.143-3.156l-0.053-0.122l-0.047-0.061c0.327-0.671,0.467-1.645-0.279-2.864l-0.075-0.119l-0.097-0.104
			c-0.084-0.085-0.161-0.16-0.249-0.234c0.741-3.062-0.94-6.69-4.082-8.644c-0.642-0.395-1.35-0.768-2.294-1.209
			c-0.45-0.19-0.866-0.284-1.258-0.293c-0.32-0.361-0.705-0.647-1.156-0.852c-0.439-0.2-0.9-0.3-1.318-0.351
			c-0.209-0.315-0.539-0.619-1.057-0.848c-0.141-0.067-0.295-0.123-0.445-0.181c-0.099-0.034-0.195-0.071-0.289-0.111l-0.096-0.054
			l-0.155-0.058c-2.302-0.764-3.506,0.785-4.221,1.707c-0.131,0.169-0.261,0.338-0.396,0.491l-0.182,0.206l-0.018,0.048
			c-0.038,0.012-0.077,0.024-0.115,0.034c-0.229,0.072-0.568,0.178-0.893,0.391c-1.041-0.089-1.915,0.348-2.523,0.725
			c-2.081,1.234-4.115,2.496-5.9,4.268l-0.095,0.096l-0.073,0.108c-0.273,0.421-0.707,0.762-1.209,1.153
			c-0.519,0.408-1.101,0.866-1.58,1.491c-1.202,1.064-2.055,2.242-2.609,3.607l-0.045,0.104c0,0-0.037,0.185-0.044,0.218
			c-0.073,0.069-0.149,0.141-0.219,0.217h-0.004c-0.627,0.048-1.17,0.273-1.62,0.668l-0.079,0.065l-0.063,0.08
			c-0.436,0.522-0.601,1.022-0.629,1.459c-0.01,0.01-0.219,0.34-0.219,0.34l-0.006,0.222c-0.004,0.004-0.144,0.059-0.144,0.059
			c-0.5,0.116-1.037,0.261-1.489,0.682c-0.234,0.185-0.446,0.41-0.639,0.663c-0.236,0.357-0.396,0.71-0.485,1.067
			c-0.179,0.128-0.36,0.283-0.532,0.475c-0.115,0.052-0.213,0.121-0.299,0.189c-0.051,0-0.272,0.032-0.272,0.032l-0.119,0.039
			c-1.148,0.392-1.915,1.157-2.198,2.191c-0.361,0.048-0.725,0.171-1.084,0.362c-0.78,0.466-1.251,1.047-1.709,1.654
			c-0.031,0.03-0.226,0.05-0.724,0.064c-0.366,0.008-0.8,0.017-1.254,0.141c-11.683-7.322-23.21-13.246-34.834-17.6v-0.014
			c-0.06-0.019-0.111-0.032-0.171-0.051c-15.621-5.825-31.424-8.796-48.062-8.393l-0.014,0.047
			c-6.944,0.034-14.095,0.638-22.013,1.776c-0.36-0.295-0.754-0.484-1.082-0.645c-0.451-0.216-0.617-0.313-0.632-0.355
			c-0.167-0.742-0.354-1.465-0.873-2.212c-0.252-0.323-0.531-0.583-0.839-0.776c0.163-1.058-0.216-2.07-1.102-2.902l-0.091-0.084
			c0,0-0.19-0.121-0.236-0.145c-0.047-0.097-0.109-0.197-0.191-0.295c-0.079-0.242-0.18-0.459-0.289-0.65
			c0.063-0.364,0.063-0.749-0.006-1.174c-0.065-0.308-0.167-0.6-0.305-0.868c-0.236-0.569-0.669-0.921-1.073-1.236
			c0,0-0.107-0.106-0.11-0.111l0.091-0.205c0,0-0.061-0.388-0.062-0.398c0.156-0.41,0.208-0.934,0.031-1.591l-0.03-0.094
			l-0.044-0.094c-0.243-0.549-0.649-0.979-1.202-1.278h-0.001c-0.035-0.1-0.069-0.198-0.112-0.288
			c0.011-0.035,0.052-0.216,0.052-0.216l0.003-0.117c0.059-1.471-0.232-2.899-0.886-4.36c-0.178-0.77-0.521-1.426-0.823-2.011
			c-0.299-0.563-0.551-1.053-0.632-1.548l-0.019-0.132l-0.046-0.125c-0.893-2.351-2.229-4.342-3.613-6.323
			c-0.4-0.593-1.012-1.35-2.003-1.703c-0.207-0.325-0.471-0.562-0.651-0.722c-0.029-0.027-0.06-0.051-0.092-0.079l0.006-0.048
			l-0.077-0.265c-0.061-0.195-0.107-0.405-0.16-0.609c-0.269-1.136-0.728-3.044-3.141-3.3l-0.165-0.007l-0.112,0.007
			c-0.1,0-0.203-0.007-0.305-0.016c-0.164-0.012-0.33-0.023-0.486-0.023c-0.562,0-0.989,0.136-1.307,0.336
			c-0.406-0.124-0.866-0.219-1.347-0.219c-0.496,0-0.964,0.1-1.403,0.3c-0.365-0.157-0.778-0.241-1.267-0.252
			c-1.044,0.008-1.843,0.056-2.592,0.155c-3.669,0.48-6.691,3.092-7.283,6.188c-0.107,0.031-0.217,0.068-0.324,0.112l-0.132,0.054
			l-0.116,0.079c-1.183,0.801-1.457,1.746-1.436,2.494l-0.071,0.037l-0.095,0.084c-1.18,1.025-1.331,2.1-1.173,2.935l-0.396,1.234
			l0.14,0.163c-0.213,0.41-0.334,0.817-0.432,1.162c-0.093,0.32-0.178,0.62-0.304,0.797l-0.466,0.444
			c-0.448,0.452-0.684,1.025-0.681,1.645l-0.243,0.269l0.158,0.669c0.017,0.063,0.025,0.111,0.032,0.144l-0.588,0.512l0.303,0.902
			c-0.236,0.388-0.327,0.783-0.389,1.056c-0.019,0.084-0.048,0.21-0.018,0.21c0.002,0,0.009,0,0.018-0.01l-0.559,0.473l0.217,1.356
			c-0.076,0.166-0.179,0.323-0.281,0.487c-0.333,0.541-0.848,1.374-0.705,2.414c-0.642,1.181-0.321,2.363-0.126,2.968l0.018,0.133
			c-0.093,0.624-0.004,1.208,0.071,1.692c0.102,0.67,0.125,0.966-0.042,1.21l-0.417,0.593l0.288,0.665
			c0.105,0.245,0.035,0.584-0.083,1.12c-0.133,0.581-0.295,1.294-0.137,2.083l-0.051,0.544c-0.197,0.562-0.142,1.077-0.099,1.43
			l0.076,0.912l0.153,0.081c-0.016,0.024-0.175,0.241-0.175,0.241l-0.062,0.205c-0.304,0.975-0.144,1.91,0.461,2.7l0.04,0.05
			l0.105,2.965l-0.04,0.111l0.261,1.411l-0.023,0.1c-0.113,0.248-0.178,0.504-0.192,0.761c-4.926,2.542-17.286,15.556-18.157,18.256
			l-0.084,0.261l0.028,0.276c0,0,3.256-0.581,2.57,0.241c-0.285,0.281-10.461,13.845-14.888,22.113
			c-0.156,0.29,2.453,1.196,2.453,1.196c-0.508,1.107-7.8,12.86-9.098,18.292c-0.184,0.77,0.805-0.364,1.09,0.673
			c-0.026,0.079-0.096,0.337-0.096,0.337l-0.464,1.104c-0.278,0.519-5.428,15.157-5.524,17.183c-0.014,0.215-0.11,0.854-0.11,0.854
			l1.754-0.293c-0.036,0.3-3.294,16.313-1.83,29.469l0.249,1.195l1.817-1.141c0.386,1.16,0.611,2.212,0.982,3.25
			c0.702,1.945,1.424,3.951,2.464,5.844l0.988,2.331l0.417,0.696c0.645,1.057,8.11,13.39,16.583,21.375
			c0.188,0.309,2.381,1.925,2.398,3.607c-0.058,0.373-0.071,0.767-0.037,1.195l-0.034-0.008c-0.142-0.019-0.276-0.024-0.41-0.024
			c-0.513,0-0.97,0.129-1.356,0.383c-2.315,0.428-13.307,12.497-13.307,12.497c-0.264,0.393-0.995,1.533-1.122,1.938l2.01-0.414
			c-0.324,0.453-0.666,0.732-0.864,0.927c-0.962,0.927-8.603,11.264-9.688,13.135c-1.623,2.807-1.612,2.421-0.364,2.741
			c0.112,0.027,0.704,0.195,0.738,0.195c0.003,0-8.569,24.947-8.717,25.631c-2.088,9.703-0.027,3.777,0.091,3.728
			c0.034-0.013,0.043,0.095,0.063,0.128c0.007,0.007,0.026,0.025,0.035,0.036c0.037,0.099-5.129,8.677-2.962,31.186
			c0.158,1.651,0.518,3.736,0.518,3.736l2.983-1.995c0.038,0.041,0.078,0.079,0.118,0.113c0.017,0.548,4.559,18.702,10.541,29.049
			c2.292,3.963,11.356,14.519,11.356,14.519s1.765-2.307,1.8-2.28c5.339,4.316,17.265,7.281,17.513,7.389
			c7.733,14.439,26.494,25.348,26.713,25.984c0,0,0.575,0.827,0.812,1.016c-0.09,0.043-0.179,0.08-0.251,0.109
			c-0.163,0.078-0.33,0.147-0.494,0.232c-0.284,0.146-0.573,0.277-0.867,0.412c-0.868,0.405-2.033,0.718-2.878,1.494l-0.208,0.191
			l-0.067,0.165c-0.059,0.04,0.058,0.216,0,0.253c-0.29,0.182-7.722,7.177-10.045,18.84c-0.689,3.473,0.469,6.054,2.984,8.676
			c0.988,1.039,4.412,3.435,4.401,3.572l-0.019,0.185l0.032,0.179c0.645,3.485,6.093,6.09,10.822,6.017
			c7.541-0.114,11.357-4.021,11.741-5.237c0.373-0.094,0.705-0.256,0.99-0.389c0.113-0.063,0.273-0.135,0.387-0.184
			c0.023,0.034,0.048,0.078,0.08,0.133l0.111,0.216c0,0,1.255,4.485,6.748,4.162c6.992-0.414,8.331-8.099,8.331-8.099
			c0.489-2.696-0.02-5.174-0.219-5.738c0.543-0.763,0.68-1.691,0.816-2.705c0.391-2.882,1.752-5.592,2.016-6.344
			c0.168-0.483,0.346-0.982,0.471-1.511c0.454-0.641,0.49-1.349,0.508-1.801c0.007-0.102,0.011-0.202,0.021-0.304l0.008-0.142
			c0.007-0.42,0.015-1.585-0.897-2.413c0.263-0.264,0.483-0.561,0.659-0.875c0.021,0.004,0.039,0.012,0.056,0.018
			c0.12,0.049,0.235,0.11,0.363,0.134c8.004,1.344,22.717,1.576,36.218,1.013c10.034,0.091,19.607-0.294,25.516-1.284
			c0.127-0.022,0.244-0.087,0.363-0.136c0.018-0.006,0.037-0.01,0.057-0.019c0.179,0.318,0.397,0.613,0.661,0.877
			c-0.915,0.829-0.904,1.993-0.901,2.415l0.011,0.14c0.011,0.1,0.013,0.199,0.021,0.304c0.017,0.453,0.051,1.156,0.507,1.799
			c0.126,0.532,0.303,1.027,0.472,1.513c0.266,0.753,1.625,3.464,2.015,6.343c0.137,1.018,0.274,1.941,0.818,2.709
			c-0.2,0.563-0.708,3.037-0.217,5.737c0,0,1.335,7.682,8.327,8.096c5.494,0.323,6.749-4.159,6.749-4.159l0.109-0.217
			c0.031-0.054,0.058-0.104,0.081-0.133c0.113,0.043,0.273,0.123,0.389,0.177c0.285,0.144,0.617,0.302,0.988,0.396
			c0.386,1.211,4.203,5.124,11.742,5.239c4.728,0.07,10.176-2.535,10.82-6.022l0.033-0.179l-0.019-0.184
			c-0.011-0.138,3.411-2.531,4.399-3.566c2.517-2.627,3.678-5.209,2.985-8.681c-2.322-11.663-9.755-18.658-10.043-18.841
			c-0.059-0.036,0.056-0.212,0-0.253l-0.067-0.165l-0.21-0.19c-0.844-0.776-2.009-1.09-2.88-1.495
			c-0.292-0.133-0.578-0.266-0.865-0.413c-0.162-0.083-0.328-0.152-0.494-0.23c-0.071-0.032-0.16-0.067-0.248-0.11
			c0.232-0.189,0.529-0.854,0.81-1.016c25.26-14.863,35.563-41.997,35.684-42.369c0.369,0.125,8.724,2.29,9.113,2.29l0.196-0.004
			l0.07-0.008c0.172-0.022,0.334-0.048,0.479-0.088c0.079,0.05,0.16,0.102,0.245,0.155c0.865,0.446,1.562-0.148,2.435,0.066
			c0.339,0.074,0.697,0.131,1.095,0.162l0.121,0.009l0.112-0.013c0.088,0,0.257,0.049,0.419,0.092
			c0.229,0.062,0.456,0.121,0.688,0.153l0.148,0.013c0.189,0.006,0.389,0.021,0.579,0.035c0.29,0.023,0.581,0.043,0.869,0.043h0.149
			c0,0,0.236-0.055,0.279-0.063c0.447,0.271,1.109,0.609,1.917,0.66c0.165,0.013,0.333,0.017,0.5,0.017
			c0.213,0,0.427-0.008,0.656-0.021l0.158-0.013c0.14-0.008,0.289-0.022,0.437-0.035c-1.628,2.067-2.936,3.781-3.585,4.819
			c-2.359,3.766-6.34,11.471,1.529,15.532l0.896,0.462l0.367,0.189l0.891,0.469c7.876,4.062,11.855-3.643,13.562-7.746
			c0.53-1.276,1.273-3.715,2.142-6.701c1.335,0.527,3.063,1.027,5.351,1.449c2.155,0.39,3.923-0.135,4.525-0.345
			c2.343-0.816,7.419-8.891,8.112-10.042c1.479-2.467,3.037-11.785,0.812-16.998c-2.004-4.688,0.211-0.613-5.82-11.505
			c2.495-5.726,4.953-12.198,10.179-12.558c6.028-0.41,15.23-3.348,19.782-16.584C434.768,298.562,430.423,290.963,424.749,288.031z
			 M269.285,172.014c2.388-2.467,2.928-5.087,6.486-5.655c-1.344-5.17,8.494-5.171,9.677-8.152
			c4.142-10.236,22.097-1.411,28.343,0.016c0.154,3.081,14.992,12.634,16.669,16.954c8.085,20.061,2.007,44.121-19.989,51.024
			c-10.125,3.179-42.823,0.987-47.304-11.532c-1.104-4.784-6.175-8.601-5.298-13.909c-0.041,0.236-0.248-1.491,0,0
			C256.548,192.758,263.925,177.552,269.285,172.014z M221.676,202.792c0.506-0.255,1.011-0.526,1.566-0.664
			c0.656-0.143,1.265-0.458,1.9-0.645c0.933-0.278,1.85-0.337,2.432,0.515c0.005-0.006,0.004-0.013,0.009-0.025
			c0.565-0.722,1.326-0.772,2.147-0.626c0.221,0.077,0.443,0.157,0.66,0.24c0.237-0.116,0.48-0.23,0.718-0.342
			c0.466,0.091,0.934,0.183,1.401,0.276c1.134,0.055,2.021,0.658,2.906,1.283c0.938,0.427,1.691,1.027,1.918,2.105
			c1.147,1.003,2.173,2.104,2.919,3.429c0.144,0.135,0.293,0.258,0.435,0.391c0.369,0.281,0.682,0.601,0.751,1.083
			c-0.013,0.062-0.036,0.105-0.051,0.162c0.531,0.283,0.883,0.682,0.935,1.299c0.043,0.006,0.087,0.019,0.134,0.022
			c0.52,0.288,0.836,0.69,0.772,1.313c0.383,1.438,0.77,2.866,1.156,4.299c-0.004,0.002,0,0.004,0,0.004
			c0.114,0.089,0.229,0.176,0.339,0.27c-0.049,0.116-0.091,0.23-0.135,0.351c0.102,0.707,0.937,1.648-0.582,1.851l-0.027-0.064
			c-0.577,1.176-1.308,2.219-2.285,3.085c0.009,0.057,0.025,0.103,0.029,0.166c-0.057,0.225-0.198,0.36-0.427,0.406
			c-0.85,0.269-0.827,1.321-1.547,1.709c-0.589,0.702-1.181,1.403-1.769,2.101c-0.383,0.61-0.949,0.978-1.638,1.157
			c0.02,0.701-0.621,1.006-0.913,1.527c-2.751,2.853-4.774,6.259-7.154,9.396c-0.153,0.265-0.304,0.526-0.459,0.793
			c-0.157,0.25-0.313,0.504-0.469,0.747c0.047,0.215,0.101,0.427,0.145,0.64c-0.057,0.131-0.101,0.267-0.139,0.406l-0.101-0.042
			c-0.2,0.475-0.484,0.868-1.037,0.989c-0.122,0.966-1.027,1.446-1.394,2.257c-0.123-0.056-0.236-0.116-0.352-0.186
			c-0.807-2.241-0.979-1.581-2.102-5.4c-3.446-11.818-7.159-21.268-4.997-29.718c0.525-2.065,1.569-3.861,3-5.447
			C220.706,203.418,221.135,203.041,221.676,202.792z M148.416,146.89c8.426-15.967,30.652-25.151,45.719-16.791
			c14.214,7.884,23.105,27.535,25.059,42.284c0.016,0.063,0.035,0.193,0.066,0.438c-0.002,0.269-0.01,0.385-0.022,0.411
			c-0.617,24.729-33.938,33.201-54.771,24.403c-5.648-2.388-20.72-14.093-19.184-21.663
			C141.914,172.309,143.728,146.89,148.416,146.89z M346.145,291.627c-0.003,0.056-0.049,0.102-0.066,0.15
			c-1.538,7.541-26.791,46.015-75.411,54.156l-0.187,2.935l-25.196-1.593c-0.652-14.947-28.744-25.553-28.744-25.553
			c-10.373-2.831-29.528-8.003-39.466-9.971c-4.659-0.925-8.517-3.209-11.252-5.302c-10.312-12.901-14.941-24.589-14.754-27.566
			c0.233-3.548,44.091-3.57,97.958-0.054c51.945,3.39,94.22,8.838,96.963,12.413l0.178,0.009c-0.004,0.08-0.035,0.197-0.049,0.291
			C346.121,291.573,346.145,291.602,346.145,291.627z"/>
		<path fill="#D8B428" d="M219.237,173.233c0.005-0.14,0.021-0.271,0.022-0.412c-0.017-0.143-0.046-0.293-0.066-0.438
			C219.125,172.1,219.199,173.33,219.237,173.233z"/>
		<path fill="#D8B428" d="M161.907,164.581c-0.026-0.047-0.056-0.092-0.089-0.136c0,0.04,0.001,0.081,0.001,0.116
			C161.852,164.566,161.875,164.577,161.907,164.581z"/>
	</g>
	<g>
		<path fill="#D8B428" d="M210.174,170.528c-2.427-3.403-0.629-6.588-0.755-9.746c-0.978-12.558-15.266-19.486-26.396-18.453
			c-9.652,0.896-14.878,7.956-17.478,16.015c-3.909,3.367-1.747,11.144-0.45,15.136c1.398,4.317,4.456,6.881,6.984,10.423
			c3.69,6.051,2.551,2.423,7.202,3.545c-4.73,0.241,8.541,9.521,9.578,3.072c8.31-0.498,13.557-6.87,19.348-11.842
			c0.273-0.486,2.208-7.872,2.024-8.062C210.143,170.499,210.151,170.502,210.174,170.528z M170.45,155.902
			C170.155,155.996,170.118,155.78,170.45,155.902L170.45,155.902z M182.891,166.701c0.074,0.202-0.019,0.248-0.209,0.196
			c-0.444,1.187-1.291,6.233-1.443,6.311c-1.061,6.397-7.633-0.192-9.161-1.931c-5.144-5.876,0.845-12.908,6.292-7.265
			c-0.145-0.144,3.373,2.633,4.312,2.884c0.087-0.23,0.158-0.329,0.208-0.201c-0.119-0.319-0.278-0.753,0.001,0.001
			C183.036,167.094,182.977,166.928,182.891,166.701z"/>
		<path fill="#D8B428" d="M210.174,170.528c0.02,0.029,0.033,0.058,0.057,0.088C210.32,170.71,210.21,170.571,210.174,170.528z"/>
		<polygon fill="#D8B428" points="182.89,166.697 182.891,166.701 182.891,166.698 		"/>
	</g>
	<path fill="#D8B428" d="M313.998,188.015c-5.386-7.901-3.927-16.206-16.718-18.641c-10.973-2.091-25.876,3.441-28.038,15.849
		c-0.099,0.711-1.715,10.342-1.881,10.072c-0.042-0.07-0.006-0.01,0.008,0.013c1.391,2.466,0.521,5.908,1.371,7.845
		c4.723,4.911,8.373,10.375,15.135,12.903c0.938,0.348,7.146,2.571,7.514,2.571c-0.793-0.004,7.651-1.744,10.341-3.875
		c2.597-2.598,5.617-5.623,7.889-8.511C312.673,202.787,317.069,192.612,313.998,188.015z M306.451,195.523
		c-1.682,1.587-8.859,7.519-9.304,1.05c-0.142-0.091-0.505-5.197-0.833-6.419c-0.195,0.032-0.28-0.021-0.189-0.218
		c-0.039,0.083-0.069,0.148-0.089,0.186c-0.023,0.054-0.021,0.04,0,0c0.016-0.035,0.046-0.092,0.089-0.188
		c0.351-0.729,0.149-0.304,0,0c0.062-0.124,0.124-0.02,0.189,0.219c0.958-0.158,4.723-2.59,4.57-2.457
		C306.845,182.596,312.132,190.166,306.451,195.523z"/>
</g>
</svg>
