<?xml version="1.0" encoding="utf-8"?>
<!-- Generator: Adobe Illustrator 16.0.0, SVG Export Plug-In . SVG Version: 6.00 Build 0)  -->
<!DOCTYPE svg PUBLIC "-//W3C//DTD SVG 1.1//EN" "http://www.w3.org/Graphics/SVG/1.1/DTD/svg11.dtd">
<svg version="1.1" id="Layer_1" xmlns="http://www.w3.org/2000/svg" xmlns:xlink="http://www.w3.org/1999/xlink" x="0px" y="0px"
	 width="500px" height="500px" viewBox="0 0 500 500" enable-background="new 0 0 500 500" xml:space="preserve">
<g>
	<g>
		<path fill="#D8B428" d="M431.502,294.606c-6.805-3.499-17.25-1.199-27.037,12.446c-9.57,13.333-6.131,24.12-2.434,30.171
			c2.455,4.014,0.377,8.907-2.428,13.794c-1.154-2.65-9.439-21.345-23.488-44.639c0.324-0.65,2.906-0.881,2.613-1.773
			c0,0-1.059-1.231-1.369-1.673c-21.545-30.719-37.801-46.04-44.963-53.012c0.867-1.205,1.604-2.269,1.639-2.392l0.07,0.351
			l0.557-0.774c5.156-8.205,8.193-24.429,8.303-24.768l1.857,1.281c0,0,0.207-0.734,0.297-0.968
			c0.873-2.214,2.359-20.264,2.312-20.95l0.045-1.401c0,0,0.047-0.31,0.053-0.405c0.807-0.974,2.404,0.278,2.488-0.639
			c0,0,0.172-5.036,0.213-6.19c0.047-1.254-0.709-10.015-1.926-15.868c-0.039-0.188-0.129-0.362-0.205-0.541
			c-0.072-0.18-0.186-0.454-0.188-0.553c0,0,2.922-0.775,2.895-1.158c-0.732-10.982-4.525-29.875-4.691-30.311
			c-0.332-1.212,1.297-0.042,1.297-0.042l0.166-0.282l0.035-0.319c0.371-3.307-4.969-22.163-8.998-27.265
			c0.105-0.282,0.16-0.589,0.16-0.906l0.025-0.118l0.955-1.382l0.014-0.136l1.545-3.114l0.066-0.036
			c1.031-0.552,1.654-1.471,1.801-2.664l0.029-0.247c0,0-0.062-0.309-0.068-0.34l0.203-0.014l0.523-0.935
			c0.215-0.364,0.525-0.882,0.586-1.579l0.205-0.605c0.553-0.766,0.729-1.607,0.863-2.292c0.133-0.63,0.227-1.027,0.457-1.242
			l0.625-0.566l-0.156-0.837c-0.061-0.338,0.107-0.644,0.541-1.313c0.309-0.482,0.689-1.062,0.893-1.777l0.082-0.133
			c0.5-0.552,1.418-1.658,1.303-3.228c0.658-1.046,0.51-2.185,0.412-2.924c-0.025-0.221-0.059-0.441-0.059-0.658l0.889-1.338
			l-0.367-0.775c0.006,0.011,0.008,0.018,0.012,0.019c0.035,0.014,0.062-0.132,0.082-0.234c0.064-0.317,0.16-0.789,0.094-1.317
			l0.764-0.814l-0.381-0.832c0.02-0.035,0.055-0.081,0.098-0.141l0.5-0.636l-0.131-0.405c0.301-0.662,0.33-1.387,0.07-2.087
			l-0.285-0.701c-0.049-0.25,0.004-0.615,0.061-0.999c0.059-0.415,0.131-0.911,0.104-1.45l0.223-0.111l0.174-1.505
			c0.574-0.816,0.938-2.038,0.168-3.701l-0.064-0.143l-0.053-0.071c0.383-0.788,0.547-1.931-0.328-3.36l-0.088-0.139l-0.115-0.122
			c-0.096-0.1-0.189-0.188-0.291-0.275c0.869-3.592-1.102-7.846-4.787-10.138c-0.754-0.463-1.584-0.901-2.691-1.418
			c-0.529-0.224-1.016-0.334-1.477-0.344c-0.375-0.424-0.826-0.759-1.354-0.999c-0.516-0.234-1.057-0.353-1.547-0.413
			c-0.244-0.37-0.633-0.725-1.238-0.993c-0.166-0.078-0.346-0.144-0.523-0.212c-0.117-0.04-0.23-0.083-0.34-0.131l-0.111-0.063
			l-0.184-0.068c-2.699-0.896-4.111,0.92-4.949,2.002c-0.154,0.197-0.305,0.396-0.465,0.575l-0.213,0.242l-0.018,0.056
			c-0.047,0.014-0.092,0.028-0.137,0.041c-0.27,0.085-0.666,0.208-1.047,0.458c-1.221-0.104-2.246,0.408-2.961,0.85
			c-2.439,1.447-4.826,2.927-6.92,5.005l-0.111,0.112l-0.084,0.128c-0.322,0.493-0.83,0.892-1.42,1.352
			c-0.607,0.478-1.289,1.016-1.854,1.748c-1.408,1.249-2.408,2.631-3.059,4.232l-0.053,0.123c0,0-0.043,0.217-0.051,0.256
			c-0.086,0.081-0.176,0.165-0.256,0.255H312.9c-0.734,0.055-1.371,0.319-1.9,0.783l-0.092,0.076l-0.074,0.094
			c-0.51,0.612-0.705,1.199-0.738,1.711c-0.01,0.011-0.256,0.398-0.256,0.398l-0.006,0.26c-0.006,0.005-0.17,0.069-0.17,0.069
			c-0.586,0.136-1.217,0.305-1.746,0.799c-0.275,0.217-0.525,0.481-0.748,0.778c-0.279,0.42-0.465,0.832-0.572,1.251
			c-0.209,0.152-0.422,0.332-0.623,0.557c-0.135,0.062-0.25,0.143-0.35,0.223c-0.061,0-0.32,0.038-0.32,0.038l-0.139,0.046
			c-1.348,0.46-2.246,1.357-2.578,2.569c-0.424,0.057-0.852,0.201-1.273,0.425c-0.916,0.547-1.467,1.229-2.004,1.939
			c-0.037,0.036-0.264,0.06-0.848,0.076c-0.43,0.009-0.938,0.021-1.471,0.165c-13.703-8.588-27.223-15.535-40.857-20.641v-0.017
			c-0.07-0.021-0.129-0.038-0.2-0.058c-18.321-6.833-36.856-10.318-56.371-9.845l-0.015,0.055
			c-8.146,0.04-16.532,0.748-25.819,2.083c-0.422-0.347-0.884-0.568-1.269-0.756c-0.529-0.253-0.724-0.367-0.741-0.417
			c-0.196-0.87-0.416-1.719-1.023-2.594c-0.296-0.38-0.623-0.685-0.984-0.911c0.191-1.24-0.253-2.428-1.292-3.403l-0.108-0.1
			c0,0-0.223-0.141-0.276-0.169c-0.056-0.114-0.129-0.231-0.225-0.347c-0.093-0.283-0.212-0.538-0.34-0.762
			c0.075-0.427,0.075-0.878-0.006-1.376c-0.077-0.362-0.196-0.704-0.358-1.019c-0.277-0.668-0.785-1.08-1.259-1.449
			c0,0-0.126-0.125-0.129-0.13l0.107-0.24c0,0-0.071-0.455-0.073-0.468c0.182-0.481,0.245-1.096,0.036-1.866l-0.035-0.111
			l-0.051-0.109c-0.286-0.644-0.762-1.147-1.41-1.499h-0.002c-0.041-0.117-0.081-0.231-0.131-0.337
			c0.013-0.042,0.06-0.254,0.06-0.254l0.003-0.137c0.07-1.724-0.271-3.4-1.039-5.114c-0.208-0.902-0.61-1.672-0.965-2.358
			c-0.35-0.661-0.646-1.235-0.74-1.817l-0.022-0.155l-0.055-0.146c-1.047-2.757-2.613-5.092-4.237-7.416
			c-0.47-0.696-1.188-1.583-2.35-1.997c-0.242-0.381-0.552-0.658-0.764-0.846c-0.034-0.032-0.07-0.06-0.108-0.093l0.008-0.057
			l-0.091-0.31c-0.071-0.229-0.126-0.475-0.187-0.714c-0.316-1.333-0.854-3.57-3.684-3.87l-0.193-0.009l-0.131,0.009
			c-0.117,0-0.239-0.009-0.359-0.019c-0.191-0.014-0.386-0.028-0.569-0.028c-0.658,0-1.16,0.16-1.533,0.395
			c-0.476-0.147-1.016-0.258-1.58-0.258c-0.581,0-1.131,0.117-1.646,0.352c-0.429-0.184-0.913-0.282-1.486-0.296
			c-1.225,0.009-2.161,0.066-3.039,0.182c-4.304,0.564-7.849,3.626-8.543,7.258c-0.126,0.036-0.255,0.079-0.38,0.131l-0.155,0.062
			l-0.136,0.093c-1.387,0.939-1.709,2.048-1.684,2.926l-0.084,0.042l-0.111,0.098c-1.384,1.204-1.561,2.463-1.375,3.443
			l-0.464,1.447l0.163,0.192c-0.249,0.481-0.391,0.958-0.506,1.363c-0.109,0.375-0.21,0.727-0.357,0.933l-0.547,0.523
			c-0.525,0.53-0.802,1.202-0.799,1.929l-0.285,0.315l0.187,0.785c0.019,0.074,0.028,0.131,0.037,0.169l-0.691,0.601l0.357,1.057
			c-0.277,0.456-0.384,0.92-0.457,1.24c-0.022,0.098-0.057,0.245-0.021,0.245c0.003,0,0.011,0,0.021-0.011l-0.656,0.555L123.223,39
			c-0.09,0.196-0.21,0.379-0.329,0.572c-0.391,0.633-0.995,1.612-0.827,2.831c-0.752,1.385-0.376,2.772-0.147,3.481l0.021,0.155
			c-0.109,0.732-0.005,1.418,0.082,1.987c0.12,0.785,0.148,1.132-0.049,1.418l-0.489,0.696l0.337,0.779
			c0.124,0.287,0.041,0.685-0.098,1.314c-0.155,0.681-0.345,1.518-0.16,2.442l-0.059,0.639c-0.232,0.658-0.167,1.264-0.118,1.678
			l0.09,1.069l0.18,0.095c-0.019,0.028-0.206,0.282-0.206,0.282l-0.073,0.24c-0.357,1.144-0.168,2.24,0.541,3.167l0.046,0.059
			l0.123,3.478l-0.046,0.13l0.306,1.654l-0.028,0.118c-0.133,0.291-0.208,0.591-0.225,0.892
			c-5.777,2.982-20.274,18.246-21.296,21.413l-0.098,0.305l0.032,0.325c0,0,3.819-0.682,3.016,0.283
			c-0.334,0.329-12.271,16.238-17.462,25.936c-0.184,0.34,2.877,1.403,2.877,1.403c-0.596,1.299-9.149,15.084-10.671,21.454
			c-0.215,0.903,0.944-0.427,1.278,0.79c-0.03,0.093-0.112,0.396-0.112,0.396l-0.544,1.295c-0.326,0.607-6.366,17.776-6.48,20.152
			c-0.016,0.253-0.129,1.003-0.129,1.003l2.059-0.345c-0.043,0.353-3.864,19.133-2.146,34.565l0.291,1.401l2.131-1.338
			c0.454,1.36,0.717,2.594,1.153,3.812c0.823,2.281,1.67,4.634,2.89,6.855l1.159,2.733l0.489,0.816
			c0.757,1.24,9.513,15.705,19.45,25.071c0.221,0.363,2.793,2.258,2.813,4.232c-0.068,0.437-0.083,0.898-0.043,1.401l-0.04-0.009
			c-0.166-0.022-0.325-0.028-0.482-0.028c-0.601,0-1.137,0.151-1.591,0.449c-2.715,0.502-15.607,14.658-15.607,14.658
			c-0.31,0.458-1.167,1.797-1.316,2.271l2.358-0.486c-0.381,0.534-0.782,0.86-1.014,1.088c-1.129,1.088-10.09,13.21-11.362,15.407
			c-1.903,3.291-1.892,2.838-0.428,3.215c0.132,0.031,0.826,0.228,0.866,0.228c0.003,0-10.049,29.26-10.223,30.062
			c-2.449,11.379-0.032,4.429,0.106,4.372c0.04-0.016,0.05,0.11,0.074,0.149c0.009,0.009,0.032,0.03,0.041,0.043
			c0.044,0.115-6.015,10.177-3.473,36.576c0.185,1.938,0.607,4.384,0.607,4.384l3.499-2.341c0.044,0.047,0.092,0.093,0.139,0.134
			c0.019,0.643,5.346,21.933,12.363,34.07c2.688,4.649,13.32,17.03,13.32,17.03s2.07-2.707,2.111-2.677
			c6.262,5.062,20.25,8.541,20.541,8.667c9.07,16.936,31.074,29.73,31.331,30.475c0,0,0.675,0.971,0.951,1.192
			c-0.104,0.051-0.209,0.095-0.294,0.13c-0.191,0.092-0.387,0.174-0.579,0.271c-0.334,0.171-0.672,0.325-1.017,0.484
			c-1.019,0.475-2.385,0.841-3.376,1.752l-0.244,0.225l-0.079,0.193c-0.068,0.047,0.068,0.253,0,0.297
			c-0.34,0.212-9.056,8.418-11.781,22.098c-0.808,4.071,0.55,7.099,3.5,10.176c1.159,1.219,5.176,4.027,5.162,4.188l-0.021,0.215
			l0.038,0.212c0.756,4.087,7.146,7.143,12.692,7.057c8.844-0.136,13.32-4.716,13.771-6.143c0.437-0.11,0.827-0.3,1.161-0.458
			c0.134-0.073,0.321-0.158,0.454-0.213c0.027,0.039,0.056,0.09,0.093,0.156l0.13,0.252c0,0,1.472,5.261,7.916,4.882
			c8.2-0.487,9.77-9.499,9.77-9.499c0.574-3.164-0.023-6.067-0.257-6.729c0.638-0.895,0.797-1.985,0.958-3.175
			c0.458-3.378,2.055-6.558,2.364-7.439c0.198-0.569,0.407-1.152,0.553-1.774c0.533-0.75,0.574-1.579,0.596-2.11
			c0.008-0.12,0.013-0.237,0.025-0.357l0.009-0.165c0.008-0.493,0.018-1.859-1.053-2.831c0.309-0.31,0.567-0.657,0.774-1.027
			c0.024,0.007,0.046,0.013,0.065,0.021c0.141,0.058,0.277,0.13,0.426,0.158c9.389,1.575,26.645,1.849,42.479,1.187
			c11.77,0.107,22.997-0.345,29.926-1.506c0.15-0.025,0.287-0.101,0.428-0.158c0.02-0.009,0.043-0.012,0.064-0.024
			c0.211,0.373,0.467,0.721,0.777,1.03c-1.072,0.972-1.061,2.338-1.057,2.834l0.012,0.161c0.012,0.117,0.016,0.235,0.023,0.358
			c0.021,0.531,0.061,1.356,0.596,2.109c0.148,0.623,0.355,1.206,0.553,1.774c0.311,0.883,1.906,4.062,2.363,7.439
			c0.16,1.193,0.322,2.278,0.959,3.177c-0.234,0.661-0.83,3.564-0.254,6.73c0,0,1.566,9.01,9.768,9.496
			c6.443,0.379,7.916-4.88,7.916-4.88l0.129-0.254c0.035-0.062,0.066-0.12,0.092-0.155c0.135,0.051,0.322,0.143,0.457,0.209
			c0.334,0.165,0.725,0.352,1.16,0.462c0.453,1.423,4.928,6.011,13.771,6.146c5.545,0.082,11.936-2.974,12.691-7.063l0.039-0.209
			l-0.021-0.216c-0.014-0.161,4-2.97,5.16-4.184c2.951-3.082,4.312-6.108,3.502-10.18c-2.725-13.681-11.441-21.886-11.781-22.098
			c-0.068-0.044,0.066-0.249,0-0.298l-0.078-0.192l-0.246-0.225c-0.99-0.911-2.357-1.278-3.377-1.753
			c-0.344-0.157-0.68-0.312-1.016-0.483c-0.189-0.099-0.385-0.181-0.58-0.272c-0.084-0.038-0.186-0.079-0.291-0.129
			c0.273-0.222,0.621-1.003,0.949-1.192c29.627-17.433,41.713-49.257,41.854-49.693c0.432,0.147,10.232,2.685,10.688,2.685
			l0.229-0.003l0.084-0.01c0.201-0.025,0.391-0.057,0.562-0.104c0.092,0.06,0.188,0.12,0.289,0.183
			c1.014,0.525,1.83-0.174,2.854,0.077c0.398,0.089,0.818,0.154,1.285,0.192l0.141,0.01l0.131-0.016
			c0.104,0,0.303,0.057,0.492,0.107c0.268,0.075,0.535,0.142,0.807,0.18l0.174,0.016c0.223,0.007,0.455,0.025,0.68,0.041
			c0.34,0.029,0.68,0.051,1.018,0.051h0.176c0,0,0.277-0.066,0.326-0.075c0.527,0.318,1.303,0.715,2.25,0.774
			c0.195,0.016,0.391,0.022,0.586,0.022c0.25,0,0.5-0.013,0.77-0.028l0.186-0.013c0.162-0.01,0.338-0.028,0.512-0.044
			c-1.91,2.426-3.443,4.435-4.205,5.655c-2.768,4.416-7.436,13.452,1.793,18.216l1.053,0.541l0.43,0.222l1.045,0.551
			c9.236,4.767,13.904-4.273,15.906-9.085c0.621-1.499,1.494-4.358,2.512-7.86c1.566,0.62,3.594,1.206,6.275,1.699
			c2.529,0.458,4.602-0.158,5.309-0.404c2.748-0.957,8.701-10.427,9.514-11.777c1.736-2.895,3.562-13.823,0.953-19.935
			c-2.35-5.5,0.248-0.722-6.826-13.497c2.926-6.715,5.809-14.307,11.938-14.728c7.07-0.48,17.863-3.926,23.201-19.45
			C443.254,306.958,438.158,298.045,431.502,294.606z M249.162,158.532c2.801-2.893,3.432-5.966,7.607-6.632
			c-1.576-6.064,9.963-6.065,11.35-9.562c4.857-12.006,25.916-1.654,33.242,0.019c0.182,3.614,17.584,14.818,19.551,19.885
			c9.482,23.529,2.354,51.75-23.445,59.845c-11.877,3.729-50.227,1.158-55.482-13.525c-1.296-5.611-7.242-10.087-6.214-16.315
			c-0.048,0.278-0.29-1.748,0,0C234.222,182.863,242.874,165.029,249.162,158.532z M193.321,194.631
			c0.594-0.299,1.185-0.617,1.837-0.778c0.769-0.168,1.483-0.538,2.229-0.756c1.094-0.326,2.17-0.395,2.852,0.604
			c0.006-0.008,0.005-0.016,0.011-0.031c0.663-0.846,1.555-0.905,2.518-0.734c0.259,0.091,0.52,0.184,0.775,0.282
			c0.278-0.136,0.563-0.269,0.841-0.401c0.546,0.107,1.095,0.215,1.644,0.324c1.329,0.064,2.371,0.771,3.409,1.505
			c1.101,0.501,1.984,1.204,2.249,2.469c1.346,1.176,2.549,2.467,3.424,4.021c0.169,0.158,0.343,0.303,0.51,0.458
			c0.432,0.329,0.8,0.705,0.881,1.271c-0.014,0.073-0.041,0.124-0.059,0.189c0.622,0.333,1.035,0.801,1.096,1.525
			c0.051,0.006,0.102,0.022,0.157,0.025c0.609,0.339,0.98,0.81,0.906,1.541c0.449,1.686,0.903,3.362,1.356,5.042
			c-0.004,0.003,0,0.006,0,0.006c0.134,0.104,0.269,0.206,0.398,0.316c-0.057,0.136-0.107,0.271-0.158,0.411
			c0.119,0.829,1.098,1.933-0.683,2.17l-0.031-0.075c-0.677,1.379-1.534,2.603-2.681,3.618c0.011,0.067,0.03,0.121,0.036,0.196
			c-0.068,0.262-0.234,0.421-0.501,0.475c-0.997,0.316-0.971,1.549-1.816,2.005c-0.691,0.823-1.385,1.645-2.075,2.464
			c-0.449,0.715-1.113,1.146-1.921,1.357c0.024,0.823-0.727,1.18-1.07,1.791c-3.227,3.346-5.6,7.341-8.391,11.02
			c-0.179,0.31-0.356,0.617-0.539,0.93c-0.184,0.294-0.367,0.592-0.549,0.876c0.055,0.253,0.117,0.5,0.169,0.75
			c-0.066,0.155-0.118,0.313-0.163,0.478l-0.119-0.051c-0.234,0.557-0.567,1.019-1.216,1.161c-0.143,1.133-1.205,1.696-1.635,2.648
			c-0.143-0.067-0.277-0.137-0.412-0.219c-0.946-2.628-1.148-1.854-2.465-6.333c-4.042-13.861-8.396-24.945-5.861-34.855
			c0.617-2.423,1.841-4.53,3.52-6.389C192.184,195.365,192.687,194.924,193.321,194.631z M107.396,129.064
			c9.883-18.727,35.951-29.499,53.623-19.694c16.671,9.248,27.099,32.296,29.39,49.595c0.018,0.074,0.042,0.226,0.078,0.514
			c-0.003,0.315-0.013,0.452-0.026,0.482c-0.724,29.004-39.806,38.943-64.24,28.622c-6.625-2.8-24.301-16.529-22.5-25.407
			C99.77,158.879,101.898,129.064,107.396,129.064z M339.309,298.826c-0.004,0.063-0.057,0.116-0.078,0.174
			c-1.805,8.844-31.422,53.97-88.447,63.52l-0.22,3.441l-29.553-1.869c-0.764-17.531-33.713-29.969-33.713-29.969
			c-12.167-3.32-34.632-9.385-46.289-11.694c-5.463-1.084-9.988-3.764-13.196-6.219c-12.096-15.131-17.524-28.84-17.306-32.332
			c0.274-4.16,51.713-4.188,114.894-0.062c60.926,3.974,110.508,10.366,113.725,14.557l0.209,0.011
			c-0.004,0.095-0.041,0.233-0.057,0.341C339.281,298.76,339.309,298.794,339.309,298.826z"/>
		<path fill="#D8B428" d="M190.461,159.962c0.005-0.164,0.024-0.318,0.026-0.482c-0.021-0.168-0.055-0.345-0.078-0.514
			C190.33,158.633,190.416,160.077,190.461,159.962z"/>
		<path fill="#D8B428" d="M123.22,149.814c-0.032-0.055-0.066-0.107-0.104-0.159c0,0.047,0.001,0.095,0.001,0.136
			C123.156,149.797,123.182,149.81,123.22,149.814z"/>
	</g>
	<g>
		<path fill="#D8B428" d="M179.831,156.789c-2.847-3.992-0.739-7.726-0.886-11.431c-1.147-14.729-17.905-22.855-30.959-21.643
			c-11.321,1.051-17.451,9.332-20.5,18.783c-4.585,3.949-2.048,13.071-0.528,17.753c1.64,5.064,5.226,8.072,8.192,12.225
			c4.328,7.098,2.991,2.842,8.447,4.158c-5.548,0.282,10.018,11.167,11.234,3.603c9.746-0.583,15.9-8.057,22.693-13.889
			c0.32-0.569,2.589-9.231,2.374-9.457C179.795,156.756,179.804,156.759,179.831,156.789z M133.24,139.634
			C132.893,139.745,132.85,139.492,133.24,139.634L133.24,139.634z M147.832,152.301c0.087,0.237-0.022,0.291-0.245,0.231
			c-0.522,1.39-1.515,7.31-1.694,7.401c-1.243,7.503-8.952-0.225-10.744-2.265c-6.033-6.891,0.991-15.139,7.38-8.519
			c-0.17-0.17,3.956,3.087,5.058,3.382c0.102-0.271,0.186-0.386,0.244-0.236c-0.14-0.374-0.326-0.884,0.001,0.001
			C148.002,152.761,147.932,152.567,147.832,152.301z"/>
		<path fill="#D8B428" d="M179.831,156.789c0.023,0.035,0.039,0.068,0.066,0.103C180.002,157.002,179.873,156.84,179.831,156.789z"
			/>
		<polygon fill="#D8B428" points="147.831,152.296 147.832,152.301 147.832,152.297 		"/>
	</g>
	<path fill="#D8B428" d="M301.604,177.299c-6.316-9.265-4.605-19.007-19.609-21.862c-12.869-2.453-30.349,4.035-32.885,18.589
		c-0.114,0.835-2.011,12.129-2.205,11.812c-0.05-0.083-0.008-0.011,0.009,0.016c1.631,2.891,0.612,6.93,1.607,9.201
		c5.54,5.76,9.821,12.168,17.752,15.133c1.1,0.408,8.381,3.015,8.812,3.015c-0.93-0.004,8.975-2.044,12.129-4.545
		c3.045-3.046,6.588-6.595,9.252-9.983C300.049,194.625,305.207,182.692,301.604,177.299z M292.752,186.106
		c-1.973,1.86-10.391,8.818-10.912,1.231c-0.166-0.107-0.592-6.096-0.977-7.529c-0.229,0.037-0.328-0.025-0.221-0.256
		c-0.047,0.098-0.082,0.174-0.105,0.218c-0.029,0.063-0.023,0.047,0,0c0.018-0.041,0.053-0.109,0.105-0.22
		c0.41-0.855,0.174-0.356,0,0c0.072-0.144,0.145-0.022,0.221,0.257c1.123-0.186,5.539-3.038,5.361-2.883
		C293.215,170.945,299.416,179.823,292.752,186.106z"/>
</g>
</svg>
