<?xml version="1.0" encoding="utf-8"?>
<!-- Generator: Adobe Illustrator 16.0.0, SVG Export Plug-In . SVG Version: 6.00 Build 0)  -->
<!DOCTYPE svg PUBLIC "-//W3C//DTD SVG 1.1//EN" "http://www.w3.org/Graphics/SVG/1.1/DTD/svg11.dtd">
<svg version="1.1" id="Layer_1" xmlns="http://www.w3.org/2000/svg" xmlns:xlink="http://www.w3.org/1999/xlink" x="0px" y="0px"
	 width="500px" height="500px" viewBox="0 0 500 500" enable-background="new 0 0 500 500" xml:space="preserve">
<g>
	<g>
		<path fill="#D8B428" d="M128.224,483.03c-1.266,0-2.424-0.261-3.475-0.782s-1.954-1.213-2.706-2.077
			c-0.752-0.863-1.333-1.851-1.744-2.962c-0.41-1.111-0.615-2.249-0.615-3.411c0-1.213,0.218-2.376,0.654-3.488
			c0.436-1.11,1.039-2.094,1.808-2.949c0.77-0.854,1.675-1.533,2.719-2.038c1.042-0.504,2.171-0.756,3.385-0.756
			c1.265,0,2.423,0.269,3.475,0.807c1.051,0.539,1.949,1.245,2.692,2.117c0.744,0.871,1.321,1.858,1.731,2.962
			c0.41,1.102,0.615,2.227,0.615,3.371c0,1.215-0.218,2.377-0.654,3.488c-0.436,1.111-1.035,2.09-1.795,2.936
			c-0.761,0.847-1.663,1.522-2.705,2.026C130.565,482.777,129.438,483.03,128.224,483.03z M121.479,473.798
			c0,0.991,0.163,1.945,0.487,2.859c0.325,0.915,0.787,1.727,1.385,2.437c0.599,0.71,1.308,1.273,2.129,1.692
			c0.82,0.42,1.735,0.628,2.744,0.628c1.026,0,1.958-0.222,2.795-0.667c0.837-0.443,1.547-1.025,2.128-1.743
			c0.581-0.719,1.03-1.53,1.346-2.437c0.316-0.905,0.475-1.829,0.475-2.77c0-0.991-0.167-1.944-0.5-2.859
			c-0.333-0.914-0.799-1.722-1.397-2.424c-0.599-0.701-1.308-1.261-2.128-1.68c-0.821-0.418-1.727-0.629-2.718-0.629
			c-1.025,0-1.958,0.219-2.795,0.654c-0.838,0.437-1.548,1.014-2.128,1.731c-0.582,0.719-1.03,1.53-1.346,2.438
			C121.637,471.935,121.479,472.857,121.479,473.798z"/>
		<path fill="#D8B428" d="M156.279,482.901v-14.95l-6.642,11.565h-1.051l-6.643-11.565v14.95h-1.794v-18.207h1.846l7.104,12.464
			l7.155-12.464h1.821v18.207H156.279z"/>
		<path fill="#D8B428" d="M178.77,482.901v-14.95l-6.642,11.565h-1.052l-6.642-11.565v14.95h-1.794v-18.207h1.846l7.104,12.464
			l7.155-12.464h1.821v18.207H178.77z"/>
		<path fill="#D8B428" d="M190.718,468.027v14.874h-1.795v-18.207h1.385l12.053,15.156V464.72h1.795v18.182h-1.564L190.718,468.027z
			"/>
		<path fill="#D8B428" d="M216.055,483.03c-1.265,0-2.423-0.261-3.475-0.782s-1.954-1.213-2.706-2.077
			c-0.752-0.863-1.333-1.851-1.744-2.962c-0.411-1.111-0.616-2.249-0.616-3.411c0-1.213,0.218-2.376,0.654-3.488
			c0.436-1.11,1.039-2.094,1.808-2.949c0.77-0.854,1.676-1.533,2.718-2.038c1.043-0.504,2.171-0.756,3.385-0.756
			c1.266,0,2.424,0.269,3.475,0.807c1.051,0.539,1.949,1.245,2.693,2.117c0.744,0.871,1.321,1.858,1.731,2.962
			c0.41,1.102,0.616,2.227,0.616,3.371c0,1.215-0.218,2.377-0.654,3.488c-0.436,1.111-1.035,2.09-1.795,2.936
			c-0.761,0.847-1.663,1.522-2.706,2.026C218.397,482.777,217.269,483.03,216.055,483.03z M209.311,473.798
			c0,0.991,0.163,1.945,0.487,2.859c0.325,0.915,0.786,1.727,1.385,2.437s1.308,1.273,2.128,1.692
			c0.821,0.42,1.736,0.628,2.744,0.628c1.026,0,1.958-0.222,2.795-0.667c0.837-0.443,1.547-1.025,2.129-1.743
			c0.581-0.719,1.029-1.53,1.346-2.437c0.316-0.905,0.474-1.829,0.474-2.77c0-0.991-0.167-1.944-0.5-2.859
			c-0.333-0.914-0.799-1.722-1.397-2.424c-0.599-0.701-1.308-1.261-2.128-1.68c-0.821-0.418-1.728-0.629-2.719-0.629
			c-1.025,0-1.958,0.219-2.795,0.654c-0.837,0.437-1.547,1.014-2.128,1.731c-0.582,0.719-1.031,1.53-1.347,2.438
			C209.469,471.935,209.311,472.857,209.311,473.798z"/>
		<path fill="#D8B428" d="M244.111,482.901v-14.95l-6.642,11.565h-1.052l-6.642-11.565v14.95h-1.795v-18.207h1.846l7.104,12.464
			l7.155-12.464h1.82v18.207H244.111z"/>
		<path fill="#D8B428" d="M256.061,468.027v14.874h-1.796v-18.207h1.386l12.053,15.156V464.72h1.795v18.182h-1.564L256.061,468.027z
			"/>
		<path fill="#D8B428" d="M281.396,483.03c-1.266,0-2.423-0.261-3.474-0.782s-1.954-1.213-2.706-2.077
			c-0.752-0.863-1.334-1.851-1.743-2.962c-0.41-1.111-0.616-2.249-0.616-3.411c0-1.213,0.218-2.376,0.654-3.488
			c0.437-1.11,1.039-2.094,1.808-2.949c0.77-0.854,1.675-1.533,2.719-2.038c1.042-0.504,2.172-0.756,3.385-0.756
			c1.267,0,2.423,0.269,3.475,0.807c1.053,0.539,1.949,1.245,2.693,2.117c0.744,0.871,1.321,1.858,1.73,2.962
			c0.41,1.102,0.615,2.227,0.615,3.371c0,1.215-0.218,2.377-0.653,3.488c-0.437,1.111-1.035,2.09-1.795,2.936
			c-0.761,0.847-1.663,1.522-2.705,2.026C283.738,482.777,282.61,483.03,281.396,483.03z M274.652,473.798
			c0,0.991,0.161,1.945,0.487,2.859c0.323,0.915,0.786,1.727,1.385,2.437c0.598,0.71,1.308,1.273,2.128,1.692
			c0.82,0.42,1.735,0.628,2.743,0.628c1.026,0,1.958-0.222,2.796-0.667c0.838-0.443,1.548-1.025,2.129-1.743
			c0.581-0.719,1.029-1.53,1.347-2.437c0.316-0.905,0.474-1.829,0.474-2.77c0-0.991-0.166-1.944-0.5-2.859
			c-0.333-0.914-0.799-1.722-1.396-2.424c-0.6-0.701-1.31-1.261-2.13-1.68c-0.82-0.418-1.728-0.629-2.719-0.629
			c-1.024,0-1.957,0.219-2.794,0.654c-0.838,0.437-1.548,1.014-2.129,1.731c-0.581,0.719-1.03,1.53-1.346,2.438
			C274.81,471.935,274.652,472.857,274.652,473.798z"/>
		<path fill="#D8B428" d="M309.453,482.901v-14.95l-6.643,11.565h-1.051l-6.643-11.565v14.95h-1.796v-18.207h1.846l7.104,12.464
			l7.155-12.464h1.82v18.207H309.453z"/>
		<path fill="#D8B428" d="M321.4,468.027v14.874h-1.794v-18.207h1.384l12.054,15.156V464.72h1.795v18.182h-1.564L321.4,468.027z"/>
		<path fill="#D8B428" d="M346.737,483.03c-1.266,0-2.423-0.261-3.474-0.782c-1.052-0.521-1.955-1.213-2.707-2.077
			c-0.752-0.863-1.333-1.851-1.743-2.962s-0.616-2.249-0.616-3.411c0-1.213,0.218-2.376,0.654-3.488
			c0.437-1.11,1.039-2.094,1.809-2.949c0.769-0.854,1.675-1.533,2.718-2.038c1.043-0.504,2.172-0.756,3.386-0.756
			c1.266,0,2.423,0.269,3.474,0.807c1.053,0.539,1.949,1.245,2.695,2.117c0.742,0.871,1.319,1.858,1.729,2.962
			c0.41,1.102,0.615,2.227,0.615,3.371c0,1.215-0.218,2.377-0.654,3.488c-0.436,1.111-1.033,2.09-1.795,2.936
			c-0.761,0.847-1.662,1.522-2.705,2.026S347.951,483.03,346.737,483.03z M339.993,473.798c0,0.991,0.161,1.945,0.487,2.859
			c0.325,0.915,0.786,1.727,1.386,2.437c0.597,0.71,1.307,1.273,2.127,1.692c0.821,0.42,1.736,0.628,2.744,0.628
			c1.026,0,1.958-0.222,2.796-0.667c0.838-0.443,1.548-1.025,2.128-1.743c0.581-0.719,1.03-1.53,1.348-2.437
			c0.315-0.905,0.474-1.829,0.474-2.77c0-0.991-0.166-1.944-0.5-2.859c-0.333-0.914-0.8-1.722-1.397-2.424
			c-0.599-0.701-1.309-1.261-2.129-1.68c-0.82-0.418-1.727-0.629-2.719-0.629c-1.024,0-1.958,0.219-2.794,0.654
			c-0.839,0.437-1.549,1.014-2.129,1.731c-0.582,0.719-1.031,1.53-1.347,2.438C340.152,471.935,339.993,472.857,339.993,473.798z"/>
		<path fill="#D8B428" d="M374.792,482.901v-14.95l-6.641,11.565H367.1l-6.643-11.565v14.95h-1.794v-18.207h1.846l7.104,12.464
			l7.155-12.464h1.82v18.207H374.792z"/>
	</g>
	<g>
		<g>
			<path fill="#D8B428" d="M224.405,126.399c0.003-0.12,0.018-0.234,0.019-0.356c-0.015-0.124-0.041-0.254-0.057-0.379
				C224.308,125.419,224.372,126.484,224.405,126.399z"/>
		</g>
		<g>
			<path fill="#D8B428" d="M174.795,118.913c-0.023-0.041-0.049-0.08-0.077-0.118c0,0.035,0.001,0.07,0.001,0.101
				C174.749,118.9,174.767,118.909,174.795,118.913z"/>
		</g>
		<g>
			<path fill="#D8B428" d="M183.597,135.633c3.192,5.237,2.207,2.097,6.232,3.067c-4.094,0.208,7.391,8.24,8.288,2.658
				c7.19-0.431,11.73-5.943,16.742-10.248c0.235-0.419,1.91-6.811,1.751-6.976c-0.075-0.101-0.068-0.099-0.048-0.076
				c-2.101-2.945-0.545-5.7-0.654-8.434c-0.846-10.867-13.21-16.862-22.841-15.967c-8.353,0.775-12.875,6.885-15.125,13.858
				c-3.382,2.914-1.511,9.644-0.39,13.098C178.762,130.349,181.408,132.568,183.597,135.633z M182.188,111.402
				C181.932,111.484,181.9,111.297,182.188,111.402L182.188,111.402z M189.041,118.423c-0.125-0.126,2.919,2.278,3.732,2.495
				c0.074-0.2,0.137-0.285,0.179-0.174c-0.103-0.276-0.24-0.652,0.001,0c0.126,0.342,0.073,0.2,0,0.002
				c0.064,0.175-0.017,0.215-0.181,0.171c-0.385,1.025-1.119,5.393-1.25,5.46c-0.917,5.536-6.605-0.166-7.927-1.671
				C179.145,119.624,184.327,113.538,189.041,118.423z"/>
		</g>
		<g>
			<path fill="#D8B428" d="M216.562,124.059c0.017,0.026,0.029,0.05,0.048,0.076C216.689,124.216,216.593,124.096,216.562,124.059z"
				/>
		</g>
		<g>
			<polygon fill="#D8B428" points="192.954,120.745 192.953,120.744 192.954,120.747 			"/>
		</g>
		<g>
			<path fill="#D8B428" d="M267.241,152.291c4.086,4.25,7.245,8.978,13.097,11.164c0.793,0.295,5.939,2.137,6.461,2.217
				c-0.09-0.111,6.751-1.571,8.989-3.346c2.246-2.247,4.86-4.865,6.826-7.365c2.643-2.987,6.448-11.791,3.789-15.77
				c-4.659-6.835-3.396-14.023-14.467-16.129c-9.494-1.81-22.391,2.977-24.262,13.715c-0.083,0.616-1.484,8.949-1.626,8.714
				c-0.038-0.06-0.007-0.008,0.006,0.012C267.258,147.635,266.507,150.615,267.241,152.291z M290.939,140.853
				C291.242,140.221,291.066,140.59,290.939,140.853c0.053-0.106,0.106-0.017,0.162,0.19c0.828-0.138,4.087-2.242,3.955-2.127
				c5.158-4.412,9.733,2.138,4.816,6.773c-1.455,1.373-7.666,6.505-8.051,0.908c-0.122-0.079-0.436-4.497-0.721-5.554
				C290.934,141.069,290.859,141.023,290.939,140.853c-0.034,0.073-0.062,0.129-0.078,0.162
				C290.875,140.984,290.899,140.934,290.939,140.853z"/>
		</g>
		<g>
			<path fill="#D8B428" d="M286.84,165.68c-0.007,0-0.029-0.006-0.041-0.008C286.803,165.676,286.813,165.68,286.84,165.68z"/>
		</g>
		<g>
			<path fill="#D8B428" d="M139.033,436.617c0,0.104,0,0.317,0.212,0.317c0.105-0.317,0.21-0.529,0.105-0.847
				C139.139,436.194,139.139,436.405,139.033,436.617z"/>
		</g>
		<g>
			<path fill="#D8B428" d="M139.455,430.276c0-0.738-0.105-1.373-0.529-1.902c-0.104-0.526,0.106-1.057-0.21-1.583
				c-0.316-0.212-0.422-0.739-0.422-1.163c-0.106-0.528-0.211-0.95-0.211-1.372c-0.21-0.213-0.317-0.318-0.529-0.53
				c0-0.633-0.316-1.056-0.634-1.479c-0.317-0.316-0.528-0.739-0.741-1.057c-0.421-0.527-0.738-1.162-1.055-1.691
				c-0.317-0.421-0.74-0.845-1.057-1.373c-0.423-0.845-1.056-1.479-1.797-2.112c-0.844-0.635-1.796-1.269-2.642-1.901
				c-0.846-0.742-1.901-1.163-2.746-1.798c-0.107-0.106-0.213-0.106-0.319-0.209c-0.21-0.106-0.42-0.213-0.737-0.32
				c-0.423-0.315-0.952-0.631-1.585-0.738c-0.316-0.105-0.635-0.316-0.951-0.423c-0.211-0.105-0.422-0.211-0.529-0.527
				c0.529-0.529,1.163-0.846,1.691-1.163c0.951-0.529,1.795-1.057,2.324-1.9c0-0.106,0.107-0.106,0.107-0.213
				c0.527-0.527,0.845-1.056,1.057-1.689c0.105-0.106,0.209-0.318,0.315-0.423c0.424-0.95,0.741-1.902,1.375-2.747v-0.106
				c0.316-1.269,0.74-2.43,0.74-3.696c0.105-1.164,0.317-2.221,0.317-3.383c0.106-1.901,0-3.804-0.634-5.706
				c-0.106-0.315-0.316-0.739-0.528-1.163c-0.211-0.737-0.529-1.478-1.057-2.006c-0.318-0.422-0.527-0.74-0.846-1.163
				c-0.738-0.844-1.584-1.583-2.535-2.112c-0.74-0.422-1.479-0.739-2.324-0.846c-0.739-0.104-1.478-0.104-2.325-0.104
				c-0.844-0.106-1.796,0.104-2.748,0.21c-1.585,0.104-3.169,0.317-4.648,0.846c-0.211,0.104-0.421,0.209-0.634,0
				c-0.422-0.635-0.422-1.375-1.056-2.009c-0.211-0.104-0.528-0.209-0.846-0.316c-0.633-0.104-1.268-0.104-1.9-0.104
				c-1.269-0.106-2.432-0.106-3.699,0.212c-0.212,0.104-0.423,0.104-0.528,0.42c0.104,0.213,0.211,0.423,0.211,0.742
				c0,1.16,0,2.429,0,3.591c0.105,0.847,0,1.796,0.105,2.746c0.107,1.375,0.107,2.642,0.107,4.016c0,1.373,0,2.641,0,4.016
				c0.105,1.585,0.105,3.275,0,4.86c0,0.739-0.107,1.479-0.107,2.22c0,1.796,0,3.696-0.211,5.6c-0.104,0.95-0.209,1.9-0.104,2.853
				c0,2.113-0.105,4.226-0.105,6.339c0.105,1.796-0.106,3.698-0.106,5.6c-0.105,1.057-0.105,2.113-0.105,3.064
				c0.105,1.586,0,3.065,0,4.543c-0.106,1.268,0,2.535,0.105,3.804c0.106,2.431,0.211,4.967,0.739,7.396
				c0.211,1.058,0.53,2.114,0.845,3.171c0.106,0.527,0.317,0.951,0.951,1.161c0.423,0,0.846,0.213,1.374,0.106
				c0.423,0.317,0.952,0.422,1.48,0.634c1.161,0.424,2.43,0.635,3.698,0.635c0.845,0,1.795,0,2.748,0.104
				c0.528,0,1.056-0.104,1.585,0c1.584,0.105,3.062-0.104,4.647,0.105c0.212,0,0.318,0,0.529,0c0.74-0.105,1.374-0.105,2.113-0.315
				c0.845-0.318,1.795-0.318,2.746,0c0.74-0.318,1.481-0.423,2.22-0.846c0.951-0.105,0.951-0.105,2.218-0.951
				c0.105-0.212,0.212-0.422,0.318-0.634c0.316-0.212,0.635-0.423,0.95-0.635c0.107,0,0.317,0,0.529,0
				c0.105-0.315,0.105-0.528,0.316-0.845c0.318-0.212,0.529-0.423,0.846-0.634c0.528,0,0.95-0.212,1.161-0.635
				c0.424-0.423,0.741-0.95,1.059-1.373c0-0.634-0.106-1.162-0.318-1.796c1.374-0.74,1.48-2.112,1.584-3.381
				c0.529-0.529,0.846-1.269,0.846-2.008c0-0.316,0-0.634,0.211-0.952c0.213-0.422,0.213-0.845,0.106-1.266
				C139.455,431.333,139.455,430.806,139.455,430.276z M113.147,390.127c0-0.739,0-1.373-0.212-2.114c0-0.106,0-0.315,0-0.421
				c0.105-0.106,0.105-0.106,0.105-0.213c0.951-0.527,1.902-1.161,2.959-1.584c1.056-0.423,2.112-0.423,3.276-0.423
				c0.316,0,0.632,0.106,1.055,0.317c0.529,0.633,0.846,1.479,1.056,2.323c0.424,2.009,0.424,3.909,0.211,5.917
				c-0.211,1.692-0.528,3.172-1.162,4.755c-0.422,1.479-1.267,2.854-2.114,4.121c-0.21,0.424-0.634,0.847-0.949,1.162
				c-0.742,0.424-1.374,1.057-2.007,1.584c-0.424,0.317-0.847,0.529-1.27,0.741c-0.316-0.212-0.316-0.317-0.316-0.528
				c0.105-1.373-0.107-2.748,0-4.121c0.105-0.845,0-1.689-0.107-2.535c-0.211-1.163-0.211-2.325-0.211-3.486
				C113.359,393.72,113.359,391.922,113.147,390.127z M126.354,430.699c-0.106,1.585-0.527,3.171-1.162,4.754
				c-0.106,0.212-0.106,0.425-0.317,0.635c-0.74,0.74-1.48,1.585-2.22,2.324c-0.316,0.317-0.739,0.635-1.161,0.847
				c-0.107,0.104-0.211,0.104-0.317,0.21c-0.846,0.74-2.007,1.057-3.17,1.375c-0.528,0.105-0.951,0.21-1.375,0.527
				c-0.737-0.317-1.478-0.211-2.219-0.211c-0.209,0-0.526,0.104-0.739-0.106c0-0.316,0.317-0.423,0.423-0.633
				c0.422-0.846,0.846-1.691,0.846-2.644c0-0.633,0-1.267,0-1.794c0-1.269-0.211-2.431-0.211-3.594
				c-0.106-1.268-0.212-2.535-0.318-3.698c-0.105-1.9,0-3.697-0.209-5.599c-0.106-2.008-0.212-3.91-0.212-5.918
				c0-1.161-0.105-2.324,0.105-3.485c0.422-0.319,0.741-0.213,1.163-0.107c0.634,0.212,1.162,0.53,1.795,0.741
				c1.267,0.633,2.537,1.268,3.699,2.008c0.844,0.527,1.69,1.162,2.22,2.111c1.267,1.902,2.429,3.909,3.062,6.129
				c0.211,0.846,0.317,1.691,0.424,2.536C126.46,428.374,126.563,429.538,126.354,430.699z"/>
		</g>
		<g>
			<path fill="#D8B428" d="M190.47,415.438c-0.125-1.695-0.057-3.284-0.287-4.883c-0.25-1.105-0.401-2.205-0.552-3.303
				c-0.078-0.501-0.152-1.101-0.33-1.606c-0.267-0.707-0.332-1.505-0.696-2.315c-0.266-0.706-0.53-1.514-0.893-2.323
				c-0.275-0.509-0.351-1.109-0.724-1.623c-0.101-0.003-0.096-0.103-0.096-0.103c-0.177-0.504-0.357-0.911-0.64-1.319
				c-0.182-0.405-0.366-0.712-0.548-1.116c-0.18-0.406-0.361-0.812-0.547-1.117c-0.741-1.226-1.587-2.355-2.533-3.488
				c-0.569-0.622-1.234-1.347-1.898-2.071c-0.768-0.628-1.532-1.356-2.502-1.896c-0.777-0.432-1.455-0.858-2.234-1.19
				c-1.071-0.544-2.253-0.791-3.326-1.235c-0.196-0.109-0.494-0.121-0.786-0.233c-0.684-0.228-1.272-0.454-2.06-0.587
				c-0.399-0.016-0.89-0.137-1.386-0.157c-1.083-0.247-2.083-0.091-3.076-0.134c-0.401,0.082-0.698,0.068-1.1,0.152
				c-0.1-0.005-0.299-0.014-0.396-0.018c-0.703,0.168-1.506,0.331-2.308,0.496c-0.495-0.021-1.095,0.054-1.414,0.537
				c-0.4,0.08-0.69-0.13-1.003,0.254c0,0-0.1-0.003-0.201-0.008c-0.395-0.019-0.805,0.263-1.211,0.443
				c-0.51,0.276-1.112,0.448-1.617,0.626c-0.102,0.094-0.111,0.294-0.209,0.29c-0.204,0.089-0.402,0.082-0.509,0.275
				c-0.114,0.292-0.208,0.189-0.41,0.28c-0.2-0.01-0.293-0.112-0.497-0.021c-0.013,0.298-0.309,0.286-0.413,0.381
				c-0.108,0.193,0.086,0.301-0.017,0.395c-0.402,0.084-0.717,0.467-1.213,0.447c-0.018,0.395-0.228,0.685-0.533,0.871
				c-0.311,0.283-0.523,0.573-0.837,0.956c-0.211,0.29-0.521,0.576-0.54,0.97c-0.02,0.499-0.336,0.883-0.739,1.063
				c-0.117,0.393-0.13,0.689-0.535,0.872c-0.005,0.099-0.007,0.197-0.113,0.293c-0.413,0.377-0.534,0.87-0.65,1.264
				c-0.129,0.69-0.357,1.375-0.681,1.959c-0.216,0.388-0.238,0.882-0.354,1.275c-0.113,0.294-0.323,0.582-0.137,0.888
				c-0.01,0.2-0.213,0.29-0.217,0.388c-0.008,0.2,0.298,0.015,0.29,0.213c-0.009,0.199-0.207,0.189-0.311,0.284
				c-0.111,0.293,0.281,0.409,0.268,0.708c-0.108,0.194-0.113,0.292-0.12,0.491c-0.088,0.159,0.021,0.26-0.044,0.341
				c-0.172-0.377-0.33-0.674-0.125-1.044c-0.391-0.116,0.021-0.496-0.271-0.607c-0.409,0.279-0.237,0.884-0.647,1.164
				c0.082,0.402,0.065,0.799-0.051,1.19c-0.208,0.19-0.41,0.279-0.325,0.583c0.101,0.004,0.109-0.193,0.307-0.186
				c0.186,0.308,0.079,0.501-0.518,0.475c-0.103,0.096-0.212,0.289-0.319,0.483c-0.198-0.009-0.393-0.117-0.591-0.126
				c-0.004,0.1-0.107,0.195-0.112,0.294c0.293,0.11,0.379,0.414,0.677,0.427c-0.31,0.284-0.509,0.277-0.811,0.363
				c-0.106,0.194,0.092,0.203,0.189,0.206c-0.009,0.199-0.107,0.194-0.117,0.393c0.091,0.202,0.281,0.409,0.588,0.223
				c-0.009,0.2-0.014,0.3-0.022,0.497c-0.202,0.092-0.59-0.123-0.702,0.17c0.087,0.302-0.117,0.391-0.224,0.585
				c0.091,0.204,0.202-0.09,0.293,0.113c-0.004,0.098-0.013,0.296-0.016,0.396c-0.105,0.095-0.208,0.189-0.212,0.289
				c-0.004,0.099,0.094,0.104,0.089,0.204c-0.31,0.283-0.127,0.688-0.14,0.988c-0.312,0.282-0.229,0.685-0.043,0.991
				c0.093,0.104,0.206-0.189,0.396,0.016c-0.004,0.1-0.107,0.195-0.116,0.394c-0.1-0.006-0.195-0.107-0.298-0.013
				c-0.016,0.396,0.069,0.697,0.259,0.905c-0.509,0.277-0.716,0.467-0.529,0.773c0.187,0.305-0.131,0.688,0.056,0.996
				c0.101,0.005,0.199,0.007,0.194,0.106c-0.016,0.396-0.039,0.894-0.055,1.291c-0.021,0.495,0.061,0.896-0.258,1.381
				c-0.095-0.104-0.29-0.214-0.384-0.316c-0.091-0.202-0.182-0.404-0.376-0.514c-0.008,0.199,0.081,0.4,0.173,0.604
				c0.094,0.105,0.284,0.311,0.276,0.511c0.194,0.106,0.288,0.211,0.487,0.219c0.094,0.104,0.091,0.203,0.189,0.207
				c-0.108,0.194-0.301,0.088-0.509,0.277c-0.103,0.093-0.013,0.297,0.078,0.5c0.1,0.002,0.207-0.19,0.307-0.187
				c0.089,0.202,0.292,0.112,0.284,0.311c-0.008,0.198-0.107,0.194-0.115,0.392c0.09,0.204,0.184,0.308,0.171,0.604
				c0.397,0.02,0.475,0.518,0.665,0.726c-0.037,0.893,0.022,1.789,0.187,2.594c0.201-0.093,0.303-0.087,0.29,0.209
				c-0.1-0.004-0.198-0.008-0.302,0.087c-0.006,0.1-0.108,0.195-0.015,0.297c0.187,0.307,0.075,0.601,0.062,0.898
				c-0.021,0.494,0.056,0.996,0.135,1.496c0.264,0.805,0.521,1.712,0.482,2.604c0.19,0.207,0.381,0.416,0.467,0.716
				c0.092,0.204,0.185,0.305,0.389,0.217c0.092,0.102-0.109,0.193-0.018,0.396c0.082,0.402,0.063,0.798,0.049,1.194
				c-0.014,0.299,0.172,0.604,0.362,0.812c0.19,0.207,0.379,0.414,0.371,0.611c0.073,0.602,0.565,0.72,0.742,1.226
				c0.091,0.204,0.178,0.505,0.166,0.801c0.49,0.122,1.082,0.247,1.155,0.847c0.292,0.112,0.487,0.221,0.779,0.33
				c0.096,0.105,0.186,0.307,0.182,0.407c-0.102,0.093-0.108,0.194-0.212,0.289c0.091,0.202,0.187,0.305,0.178,0.505
				c0.669,0.624,1.136,1.341,1.915,1.673c0.091,0.202,0.087,0.302,0.181,0.406c0.101,0.002,0.204-0.093,0.299,0.013
				c-0.015,0.297,0.171,0.601,0.366,0.711c0.677,0.427,1.155,0.844,1.734,1.268c0.677,0.427,1.354,0.853,2.037,1.179
				c0.098,0.005,0.198,0.011,0.198,0.011c0.182,0.404,0.482,0.317,0.771,0.529c0.191,0.209,0.484,0.318,0.696,0.03
				c0.274,0.509,2.419,1.495,3.119,1.427c0.682,0.326,1.469,0.459,2.166,0.49c0.296,0.013,0.495,0.022,0.69,0.128
				c0,0,0.099,0.005,0.095,0.104c0.103-0.094,0.012-0.297,0.21-0.29c0.199,0.011-0.008,0.2,0.186,0.306
				c1.976,0.285,3.959,0.373,6.042,0.462c0.017-0.398-0.268-0.708-0.155-1c-0.1-0.005-0.207,0.19-0.302,0.083
				c0.005-0.097,0.008-0.196,0.013-0.297c0.297,0.015,0.499-0.076,0.7-0.067c0.283,0.311-0.208,0.188-0.216,0.389
				c-0.004,0.098,0.193,0.106,0.19,0.205c-0.008,0.198-0.118,0.394-0.026,0.595c0.393,0.118,0.789,0.135,1.191,0.055
				c0.402-0.085,0.896-0.062,1.392-0.042c0.199,0.01,0.394,0.117,0.505-0.176c-0.197-0.01-0.303,0.085-0.396-0.018
				c0.103-0.095,0.206-0.19,0.313-0.384c0.19,0.208,0.298,0.014,0.492,0.121c0.095,0.103,0.091,0.202,0.188,0.205
				c0.101,0.005,0.204-0.09,0.398,0.018c0.098,0.004,0.095,0.104,0.194,0.108c0.201-0.092,0.5-0.078,0.694,0.03
				c0.106-0.193,0.021-0.496,0.221-0.488c0.099,0.006-0.006,0.1,0.189,0.209c0.507-0.278,1.186,0.15,1.604-0.33
				c0.203-0.092,0.388,0.217,0.589,0.126c0.117-0.394,0.33-0.683,0.636-0.868c0.612-0.371,0.931-0.854,1.151-1.343
				c0.435-0.874,0.871-1.749,1.305-2.626c0.112-0.292,0.32-0.483,0.721-0.566c0.198,0.011,0.306-0.185,0.504-0.177
				c0.917-0.557,1.354-1.431,1.984-2.2c0.53-0.771,0.959-1.548,1.49-2.321c0.746-1.159,1.298-2.429,1.756-3.797
				c0.237-0.886,0.473-1.771,0.709-2.655c0.363-1.475,0.724-2.949,0.888-4.434c0.163-1.483,0.025-2.883-0.016-4.273
				C190.483,417.425,190.525,416.434,190.47,415.438z M146.518,404.497c-0.104,0.095-0.09-0.204-0.196-0.106
				c-0.198-0.01-0.111,0.292-0.309,0.283c-0.095-0.104,0.012-0.297-0.083-0.4c0.203-0.092,0.209-0.29,0.315-0.385
				C146.44,403.997,146.629,404.204,146.518,404.497z M147.077,416.844c-0.087-0.3-0.076-0.5-0.167-0.701
				c0.207-0.19,0.297,0.014,0.392,0.115C147.293,416.456,147.384,416.659,147.077,416.844z M147.081,414.461
				c0.113-0.295-0.069-0.7,0.246-1.083C147.495,414.078,147.388,414.274,147.081,414.461z M147.56,405.637
				c-0.008,0.195-0.11,0.292-0.31,0.283c-0.192-0.108-0.189-0.207-0.18-0.405c0.004-0.099,0.202-0.091,0.21-0.288
				c0.003-0.1-0.195-0.107-0.087-0.304c0.108-0.192,0.212-0.289,0.406-0.18C147.483,405.134,147.47,405.433,147.56,405.637z
				 M147.367,403.242c0.007-0.201-0.187-0.309-0.276-0.51c0.094-0.245,0.25-0.351,0.42-0.489c-0.002,0.164,0.029,0.311,0.281,0.321
				C147.681,402.857,147.671,403.055,147.367,403.242z M148.63,401.607c-0.186-0.309,0.127-0.691-0.157-1.002
				c0.108-0.194,0.212-0.289,0.311-0.284c0.091,0.203-0.012,0.297-0.021,0.495C148.849,401.119,148.94,401.32,148.63,401.607z
				 M167.137,442.555c-0.099-0.004-0.19-0.206-0.185-0.305c0.208-0.189,0.401-0.082,0.491,0.122
				C167.341,442.466,167.335,442.564,167.137,442.555z M167.884,441.396c-0.402,0.082-0.704,0.169-1.009,0.355
				c0.007-0.2,0.211-0.29,0.121-0.492c0.198,0.008,0.396,0.015,0.595,0.026c0.099,0.003,0.108-0.195,0.306-0.187
				C167.892,441.197,167.888,441.297,167.884,441.396z M180.367,419.275c-0.118,0.394-0.134,0.788-0.251,1.18
				c-0.003,0.1,0.092,0.203,0.086,0.304c-0.008,0.198-0.208,0.189-0.315,0.384c0.07,0.699-0.262,1.479-0.395,2.27
				c-0.026,0.594-0.244,1.081-0.37,1.672c-0.107,0.194-0.117,0.393-0.119,0.493c0.085,0.302,0.075,0.5-0.032,0.692
				c-0.422,0.578-0.556,1.368-0.784,2.053c-0.117,0.395-0.428,0.68-0.642,1.067c-0.216,0.388-0.526,0.673-0.547,1.17
				c-0.396-0.019-0.609,0.271-0.72,0.565c-0.228,0.684-0.651,1.264-0.978,1.943c-0.217,0.39-0.431,0.777-0.936,0.954
				c-0.003,0.1-0.112,0.293-0.118,0.392c-0.404,0.183-0.404,0.183-0.693-0.03c-0.096-0.103,0.013-0.297-0.182-0.403
				c-0.097-0.104-0.203,0.091-0.304,0.087c0.074,0.598-0.627,0.768-0.648,1.263c-0.312,0.284-0.426,0.677-0.834,0.858
				c-0.201,0.091-0.306,0.187-0.503,0.177c-0.405,0.181-0.712,0.366-1.122,0.646c-0.521,0.574-0.818,0.561-1.293,0.044
				c-0.575-0.521-1.251-0.947-1.821-1.568c-0.768-0.629-1.632-1.362-2.394-2.092c-0.576-0.521-1.144-1.143-1.611-1.856
				c-0.09-0.203-0.28-0.41-0.466-0.716c-0.093-0.104-0.184-0.306-0.275-0.509c-0.182-0.407-0.47-0.617-0.752-1.027
				c-0.098-0.004-0.202,0.092-0.296-0.013c-0.091-0.204-0.078-0.5-0.371-0.611c0.018-0.398-0.271-0.609-0.357-0.91
				c-0.557-0.918-0.812-1.925-1.067-2.929c-0.254-1.006-0.411-2.005-0.769-2.914c-0.359-0.912-0.419-1.809-0.48-2.707
				c-0.035-1.49,0.026-2.881-0.016-4.273c0.019-0.396-0.064-0.798-0.047-1.193c0.026-0.598,0.051-1.19,0.082-1.886
				c0.042-0.991,0.186-1.979,0.332-3.065c0.061-1.39,0.322-2.868,0.486-4.353c0.049-1.19,0.305-2.472,0.653-3.648
				c0.361-1.477,0.729-3.051,1.285-4.418c0.129-0.69,0.352-1.276,0.776-1.854c0.202-0.092,0.215-0.388,0.323-0.582
				c0.533-0.872,1.067-1.743,1.698-2.513c0.736-0.962,1.663-1.717,2.676-2.17c0.509-0.275,0.997-0.056,1.39,0.06
				c0.392,0.117,0.685,0.229,0.969,0.539c0,0,0,0-0.004,0.1c0.78,0.332,1.352,0.954,2.018,1.578
				c0.675,0.524,1.144,1.143,1.714,1.763c0.38,0.414,0.855,0.933,1.13,1.44c0.461,0.815,1.032,1.437,1.393,2.246
				c0.093,0.204,0.186,0.308,0.277,0.51c0.47,0.617,0.639,1.321,1.005,2.031c0.277,0.509,0.45,1.113,0.929,1.53
				c0.165,0.802,0.629,1.517,0.894,2.324c0.173,0.604,0.547,1.117,0.622,1.717c-0.017,0.396,0.168,0.703,0.453,1.013
				c-0.216,0.39,0.069,0.699,0.156,1.002c-0.023,0.494,0.057,0.995,0.236,1.401c0.166,0.802,0.227,1.698,0.292,2.495
				c-0.006,0.101-0.112,0.296-0.015,0.299c0.272,0.607,0.153,1.1,0.125,1.696c-0.02,0.496,0.152,1.099,0.131,1.597
				c0.164,0.8,0.426,1.607,0.294,2.395c-0.013,0.299,0.073,0.603,0.156,1.002C180.503,418.387,180.487,418.782,180.367,419.275z"/>
		</g>
		<g>
			<path fill="#D8B428" d="M231.696,436.617c0,0.104,0,0.317,0.211,0.317c0.106-0.317,0.212-0.529,0.106-0.847
				C231.801,436.194,231.801,436.405,231.696,436.617z"/>
		</g>
		<g>
			<path fill="#D8B428" d="M232.12,430.276c0-0.738-0.106-1.373-0.529-1.902c-0.106-0.526,0.105-1.057-0.211-1.583
				c-0.317-0.212-0.422-0.739-0.422-1.163c-0.106-0.528-0.212-0.95-0.212-1.372c-0.213-0.213-0.318-0.318-0.529-0.53
				c0-0.633-0.316-1.056-0.634-1.479c-0.316-0.316-0.528-0.739-0.739-1.057c-0.424-0.527-0.739-1.162-1.056-1.691
				c-0.318-0.421-0.739-0.845-1.057-1.373c-0.423-0.845-1.056-1.479-1.796-2.112c-0.845-0.635-1.795-1.269-2.643-1.901
				c-0.843-0.742-1.9-1.163-2.747-1.798c-0.105-0.106-0.21-0.106-0.315-0.209c-0.213-0.106-0.423-0.213-0.742-0.32
				c-0.421-0.315-0.95-0.631-1.584-0.738c-0.316-0.105-0.632-0.316-0.951-0.423c-0.211-0.105-0.421-0.211-0.528-0.527
				c0.528-0.529,1.162-0.846,1.691-1.163c0.95-0.529,1.794-1.057,2.323-1.9c0-0.106,0.105-0.106,0.105-0.213
				c0.529-0.527,0.847-1.056,1.057-1.689c0.106-0.106,0.212-0.318,0.318-0.423c0.422-0.95,0.738-1.902,1.372-2.747v-0.106
				c0.317-1.269,0.741-2.43,0.741-3.696c0.106-1.164,0.315-2.221,0.315-3.383c0.106-1.901,0-3.804-0.633-5.706
				c-0.106-0.315-0.317-0.739-0.527-1.163c-0.213-0.737-0.53-1.478-1.058-2.006c-0.316-0.422-0.529-0.74-0.845-1.163
				c-0.74-0.844-1.584-1.583-2.535-2.112c-0.741-0.422-1.479-0.739-2.325-0.846c-0.74-0.104-1.48-0.104-2.325-0.104
				c-0.845-0.106-1.795,0.104-2.747,0.21c-1.585,0.104-3.168,0.317-4.648,0.846c-0.211,0.104-0.422,0.209-0.635,0
				c-0.422-0.635-0.422-1.375-1.057-2.009c-0.209-0.104-0.528-0.209-0.844-0.316c-0.634-0.104-1.269-0.104-1.901-0.104
				c-1.269-0.106-2.431-0.106-3.7,0.212c-0.21,0.104-0.422,0.104-0.528,0.42c0.106,0.213,0.213,0.423,0.213,0.742
				c0,1.16,0,2.429,0,3.591c0.105,0.847,0,1.796,0.105,2.746c0.105,1.375,0.105,2.642,0.105,4.016c0,1.373,0,2.641,0,4.016
				c0.105,1.585,0.105,3.275,0,4.86c0,0.739-0.105,1.479-0.105,2.22c0,1.796,0,3.696-0.212,5.6c-0.106,0.95-0.21,1.9-0.106,2.853
				c0,2.113-0.104,4.226-0.104,6.339c0.104,1.796-0.106,3.698-0.106,5.6c-0.106,1.057-0.106,2.113-0.106,3.064
				c0.106,1.586,0,3.065,0,4.543c-0.106,1.268,0,2.535,0.106,3.804c0.106,2.431,0.21,4.967,0.739,7.396
				c0.213,1.058,0.528,2.114,0.847,3.171c0.105,0.527,0.316,0.951,0.951,1.161c0.422,0,0.845,0.213,1.372,0.106
				c0.424,0.317,0.954,0.422,1.481,0.634c1.161,0.424,2.429,0.635,3.697,0.635c0.844,0,1.797,0,2.747,0.104
				c0.529,0,1.055-0.104,1.585,0c1.584,0.105,3.063-0.104,4.648,0.105c0.21,0,0.317,0,0.528,0c0.74-0.105,1.373-0.105,2.112-0.315
				c0.845-0.318,1.797-0.318,2.748,0c0.74-0.318,1.479-0.423,2.218-0.846c0.952-0.105,0.952-0.105,2.221-0.951
				c0.105-0.212,0.211-0.422,0.316-0.634c0.317-0.212,0.635-0.423,0.951-0.635c0.106,0,0.316,0,0.528,0
				c0.106-0.315,0.106-0.528,0.316-0.845c0.319-0.212,0.529-0.423,0.847-0.634c0.529,0,0.95-0.212,1.161-0.635
				c0.423-0.423,0.739-0.95,1.058-1.373c0-0.634-0.105-1.162-0.318-1.796c1.375-0.74,1.48-2.112,1.585-3.381
				c0.528-0.529,0.846-1.269,0.846-2.008c0-0.316,0-0.634,0.21-0.952c0.212-0.422,0.212-0.845,0.106-1.266
				C232.12,431.333,232.12,430.806,232.12,430.276z M205.81,390.127c0-0.739,0-1.373-0.211-2.114c0-0.106,0-0.315,0-0.421
				c0.105-0.106,0.105-0.106,0.105-0.213c0.951-0.527,1.902-1.161,2.958-1.584c1.055-0.423,2.113-0.423,3.274-0.423
				c0.318,0,0.634,0.106,1.057,0.317c0.53,0.633,0.847,1.479,1.057,2.323c0.423,2.009,0.423,3.909,0.212,5.917
				c-0.212,1.692-0.529,3.172-1.163,4.755c-0.422,1.479-1.267,2.854-2.113,4.121c-0.21,0.424-0.634,0.847-0.951,1.162
				c-0.737,0.424-1.373,1.057-2.007,1.584c-0.422,0.317-0.844,0.529-1.269,0.741c-0.316-0.212-0.316-0.317-0.316-0.528
				c0.104-1.373-0.106-2.748,0-4.121c0.104-0.845,0-1.689-0.106-2.535c-0.211-1.163-0.211-2.325-0.211-3.486
				C206.021,393.72,206.021,391.922,205.81,390.127z M219.017,430.699c-0.107,1.585-0.529,3.171-1.161,4.754
				c-0.105,0.212-0.105,0.425-0.318,0.635c-0.74,0.74-1.478,1.585-2.219,2.324c-0.316,0.317-0.74,0.635-1.162,0.847
				c-0.105,0.104-0.211,0.104-0.316,0.21c-0.847,0.74-2.008,1.057-3.171,1.375c-0.528,0.105-0.952,0.21-1.372,0.527
				c-0.742-0.317-1.48-0.211-2.22-0.211c-0.211,0-0.53,0.104-0.74-0.106c0-0.316,0.317-0.423,0.422-0.633
				c0.425-0.846,0.847-1.691,0.847-2.644c0-0.633,0-1.267,0-1.794c0-1.269-0.212-2.431-0.212-3.594
				c-0.105-1.268-0.209-2.535-0.316-3.698c-0.106-1.9,0-3.697-0.211-5.599c-0.106-2.008-0.211-3.91-0.211-5.918
				c0-1.161-0.107-2.324,0.105-3.485c0.425-0.319,0.741-0.213,1.163-0.107c0.633,0.212,1.162,0.53,1.795,0.741
				c1.269,0.633,2.537,1.268,3.7,2.008c0.845,0.527,1.689,1.162,2.217,2.111c1.269,1.902,2.431,3.909,3.066,6.129
				c0.209,0.846,0.316,1.691,0.422,2.536C219.123,428.374,219.229,429.538,219.017,430.699z"/>
		</g>
		<g>
			<path fill="#D8B428" d="M284.434,412.84c-0.29-1.704-0.377-3.319-0.765-4.916c-0.362-1.094-0.622-2.193-0.885-3.29
				c-0.126-0.501-0.259-1.1-0.488-1.594c-0.341-0.69-0.484-1.489-0.93-2.277c-0.341-0.689-0.687-1.48-1.132-2.267
				c-0.332-0.486-0.465-1.086-0.894-1.568c-0.102,0.005-0.106-0.097-0.106-0.097c-0.229-0.493-0.452-0.886-0.775-1.273
				c-0.224-0.393-0.44-0.685-0.664-1.077c-0.225-0.393-0.446-0.785-0.666-1.077c-0.87-1.168-1.837-2.229-2.904-3.285
				c-0.638-0.571-1.38-1.24-2.124-1.909c-0.838-0.562-1.683-1.226-2.719-1.677c-0.829-0.36-1.558-0.727-2.381-0.984
				c-1.134-0.445-2.355-0.582-3.486-0.928c-0.207-0.091-0.51-0.075-0.818-0.158c-0.716-0.166-1.332-0.335-2.145-0.394
				c-0.402,0.022-0.912-0.052-1.418-0.025c-1.12-0.142-2.117,0.113-3.125,0.168c-0.398,0.122-0.701,0.137-1.101,0.26
				c-0.1,0.006-0.3,0.016-0.403,0.023c-0.694,0.238-1.49,0.483-2.285,0.727c-0.505,0.026-1.105,0.16-1.381,0.682
				c-0.398,0.122-0.71-0.065-0.993,0.355c0,0-0.1,0.006-0.2,0.01c-0.404,0.023-0.792,0.346-1.184,0.569
				c-0.488,0.33-1.083,0.564-1.577,0.792c-0.095,0.106-0.084,0.308-0.187,0.312c-0.194,0.111-0.398,0.122-0.487,0.332
				c-0.084,0.307-0.191,0.211-0.388,0.323c-0.201,0.011-0.308-0.086-0.504,0.027c0.017,0.301-0.286,0.316-0.383,0.424
				c-0.089,0.208,0.117,0.297,0.021,0.402c-0.396,0.122-0.679,0.542-1.184,0.57c0.021,0.403-0.165,0.715-0.455,0.934
				c-0.286,0.317-0.473,0.633-0.755,1.051c-0.185,0.314-0.471,0.632-0.45,1.035c0.026,0.505-0.254,0.924-0.646,1.149
				c-0.079,0.407-0.063,0.711-0.457,0.932c0.005,0.103,0.01,0.205-0.086,0.31c-0.381,0.424-0.454,0.934-0.534,1.344
				c-0.062,0.712-0.227,1.428-0.497,2.048c-0.181,0.414-0.154,0.92-0.234,1.327c-0.084,0.308-0.27,0.623-0.053,0.915
				c0.012,0.2-0.185,0.312-0.18,0.414c0.012,0.201,0.303-0.017,0.315,0.184c0.01,0.201-0.191,0.213-0.289,0.319
				c-0.083,0.309,0.325,0.387,0.341,0.69c-0.09,0.207-0.085,0.309-0.075,0.51c-0.073,0.169,0.047,0.26-0.01,0.348
				c-0.21-0.365-0.4-0.648-0.229-1.042c-0.408-0.08-0.027-0.506-0.334-0.591c-0.388,0.323-0.153,0.92-0.541,1.243
				c0.123,0.398,0.143,0.801,0.065,1.209c-0.191,0.215-0.388,0.325-0.27,0.623c0.099-0.007,0.088-0.209,0.292-0.218
				c0.217,0.291,0.126,0.499-0.478,0.532c-0.096,0.104-0.186,0.312-0.277,0.519c-0.199,0.012-0.408-0.079-0.609-0.068
				c0.005,0.101-0.091,0.207-0.085,0.309c0.307,0.082,0.425,0.382,0.727,0.364c-0.285,0.318-0.488,0.331-0.784,0.447
				c-0.092,0.207,0.11,0.196,0.212,0.19c0.01,0.201-0.091,0.206-0.079,0.41c0.112,0.195,0.324,0.387,0.615,0.168
				c0.011,0.204,0.016,0.304,0.027,0.505c-0.198,0.111-0.612-0.068-0.696,0.239c0.117,0.297-0.079,0.408-0.168,0.615
				c0.11,0.198,0.196-0.109,0.308,0.086c0.004,0.101,0.016,0.302,0.021,0.402c-0.095,0.105-0.192,0.212-0.186,0.313
				c0.005,0.101,0.106,0.096,0.111,0.198c-0.287,0.316-0.063,0.71-0.047,1.012c-0.286,0.319-0.164,0.718,0.053,1.01
				c0.107,0.095,0.192-0.212,0.402-0.022c0.007,0.103-0.087,0.209-0.077,0.409c-0.101,0.006-0.208-0.09-0.304,0.017
				c0.022,0.403,0.14,0.699,0.353,0.891c-0.489,0.33-0.68,0.541-0.463,0.833c0.218,0.294-0.062,0.713,0.155,1.004
				c0.102-0.005,0.203-0.01,0.207,0.091c0.022,0.404,0.048,0.909,0.071,1.312c0.027,0.505,0.148,0.901-0.127,1.423
				c-0.106-0.097-0.312-0.186-0.419-0.283c-0.113-0.194-0.224-0.391-0.43-0.48c0.011,0.2,0.123,0.397,0.233,0.595
				c0.106,0.094,0.319,0.285,0.33,0.487c0.207,0.089,0.314,0.187,0.515,0.174c0.105,0.097,0.111,0.196,0.212,0.191
				c-0.09,0.208-0.298,0.117-0.488,0.33c-0.095,0.106,0.015,0.301,0.129,0.499c0.099-0.006,0.189-0.213,0.29-0.218
				c0.112,0.195,0.308,0.085,0.319,0.285c0.01,0.203-0.092,0.208-0.08,0.409c0.112,0.196,0.219,0.294,0.235,0.595
				c0.403-0.021,0.53,0.479,0.744,0.669c0.047,0.908,0.196,1.809,0.442,2.605c0.195-0.112,0.296-0.116,0.313,0.186
				c-0.102,0.006-0.203,0.01-0.297,0.117c0.004,0.102-0.091,0.208,0.017,0.303c0.217,0.292,0.132,0.6,0.149,0.903
				c0.027,0.502,0.153,1.002,0.281,1.503c0.344,0.789,0.696,1.681,0.744,2.588c0.214,0.192,0.425,0.384,0.543,0.68
				c0.111,0.196,0.216,0.292,0.414,0.181c0.105,0.097-0.091,0.207,0.021,0.404c0.123,0.397,0.144,0.8,0.165,1.202
				c0.018,0.305,0.234,0.597,0.448,0.787c0.21,0.191,0.422,0.382,0.434,0.584c0.135,0.6,0.642,0.673,0.872,1.166
				c0.111,0.198,0.229,0.494,0.245,0.796c0.509,0.074,1.12,0.144,1.253,0.743c0.307,0.084,0.515,0.176,0.822,0.26
				c0.107,0.095,0.219,0.292,0.224,0.394c-0.095,0.105-0.09,0.206-0.187,0.313c0.112,0.197,0.217,0.292,0.229,0.493
				c0.738,0.567,1.279,1.248,2.103,1.506c0.111,0.197,0.116,0.297,0.222,0.393c0.102-0.005,0.199-0.11,0.304-0.016
				c0.015,0.304,0.235,0.595,0.441,0.686c0.726,0.367,1.253,0.742,1.879,1.111c0.727,0.367,1.454,0.733,2.176,0.998
				c0.102-0.006,0.203-0.01,0.203-0.01c0.223,0.391,0.521,0.273,0.834,0.46c0.213,0.192,0.52,0.277,0.706-0.037
				c0.33,0.489,2.596,1.28,3.297,1.138c0.723,0.266,1.533,0.324,2.239,0.286c0.304-0.015,0.506-0.025,0.712,0.065
				c0,0,0.102-0.007,0.106,0.095c0.095-0.106-0.016-0.304,0.186-0.315c0.201-0.01,0.01,0.204,0.217,0.295
				c2.03,0.093,4.047-0.014,6.165-0.127c-0.022-0.403-0.341-0.689-0.256-0.997c-0.102,0.005-0.191,0.212-0.297,0.116
				c-0.006-0.1-0.012-0.2-0.018-0.303c0.304-0.017,0.501-0.127,0.703-0.138c0.318,0.287-0.192,0.213-0.182,0.414
				c0.006,0.1,0.208,0.09,0.212,0.19c0.011,0.2-0.079,0.408,0.033,0.605c0.407,0.078,0.811,0.058,1.209-0.065
				c0.399-0.122,0.903-0.149,1.407-0.175c0.202-0.01,0.408,0.077,0.493-0.229c-0.201,0.011-0.297,0.117-0.402,0.021
				c0.095-0.106,0.19-0.213,0.281-0.42c0.212,0.191,0.302-0.016,0.508,0.075c0.107,0.094,0.113,0.194,0.213,0.188
				c0.104-0.005,0.198-0.11,0.403-0.021c0.101-0.006,0.106,0.097,0.207,0.091c0.197-0.113,0.499-0.128,0.706-0.037
				c0.091-0.208-0.026-0.506,0.175-0.514c0.102-0.007,0.007,0.1,0.214,0.19c0.487-0.33,1.215,0.034,1.591-0.49
				c0.195-0.112,0.415,0.18,0.611,0.068c0.08-0.409,0.265-0.723,0.556-0.941c0.585-0.435,0.858-0.955,1.034-1.471
				c0.356-0.929,0.71-1.857,1.067-2.786c0.084-0.309,0.273-0.521,0.673-0.644c0.201-0.01,0.292-0.217,0.496-0.228
				c0.873-0.653,1.229-1.584,1.79-2.421c0.463-0.835,0.823-1.662,1.284-2.497c0.641-1.247,1.076-2.586,1.405-4.019
				c0.151-0.919,0.307-1.839,0.458-2.757c0.223-1.527,0.446-3.059,0.466-4.575c0.019-1.518-0.257-2.92-0.434-4.326
				C284.645,414.851,284.59,413.841,284.434,412.84z M238.863,406.059c-0.096,0.106-0.111-0.197-0.206-0.089
				c-0.203,0.011-0.087,0.308-0.289,0.317c-0.106-0.095-0.015-0.301-0.122-0.397c0.198-0.112,0.188-0.313,0.281-0.42
				C238.736,405.561,238.95,405.75,238.863,406.059z M239.65,403.68c0.015,0.167,0.059,0.312,0.316,0.3
				c-0.084,0.306-0.074,0.509-0.367,0.726c-0.01-0.201-0.217-0.293-0.327-0.488C239.343,403.958,239.492,403.836,239.65,403.68z
				 M239.745,407.428c-0.205-0.09-0.21-0.19-0.221-0.391c-0.006-0.103,0.193-0.113,0.183-0.314c-0.005-0.1-0.206-0.09-0.118-0.298
				c0.091-0.206,0.188-0.314,0.394-0.223c-0.079,0.407-0.062,0.713,0.049,0.907C240.043,407.312,239.948,407.418,239.745,407.428z
				 M240.551,414.971c0.24,0.695,0.149,0.903-0.143,1.12C240.494,415.783,240.271,415.393,240.551,414.971z M240.638,418.506
				c-0.118-0.297-0.127-0.498-0.239-0.694c0.191-0.214,0.302-0.018,0.409,0.078C240.819,418.094,240.931,418.289,240.638,418.506z
				 M240.72,402.926c-0.219-0.291,0.064-0.709-0.256-0.998c0.09-0.207,0.188-0.313,0.288-0.318c0.11,0.196,0.016,0.303,0.026,0.505
				C240.895,402.411,241.007,402.607,240.72,402.926z M263.463,442.578c-0.102,0.006-0.212-0.191-0.22-0.292
				c0.192-0.211,0.4-0.122,0.512,0.073C263.66,442.467,263.665,442.567,263.463,442.578z M263.117,441.787
				c-0.012-0.202,0.185-0.312,0.075-0.51c0.201-0.011,0.402-0.021,0.604-0.031c0.1-0.007,0.088-0.208,0.293-0.219
				c0.003,0.101,0.009,0.203,0.016,0.303C263.706,441.452,263.409,441.569,263.117,441.787z M274.58,417.713
				c-0.08,0.408-0.057,0.812-0.137,1.22c0.006,0.102,0.111,0.196,0.116,0.298c0.012,0.201-0.19,0.212-0.281,0.419
				c0.138,0.701-0.12,1.522-0.179,2.337c0.032,0.604-0.143,1.12-0.211,1.729c-0.089,0.207-0.081,0.408-0.075,0.512
				c0.117,0.296,0.129,0.498,0.038,0.704c-0.371,0.627-0.428,1.439-0.594,2.156c-0.08,0.408-0.366,0.728-0.545,1.142
				c-0.182,0.414-0.468,0.733-0.441,1.237c-0.402,0.021-0.588,0.335-0.674,0.643c-0.162,0.717-0.534,1.343-0.8,2.065
				c-0.18,0.414-0.36,0.828-0.853,1.057c0.005,0.101-0.085,0.309-0.079,0.408c-0.395,0.224-0.395,0.224-0.706,0.036
				c-0.107-0.092-0.017-0.301-0.225-0.391c-0.107-0.095-0.197,0.11-0.298,0.117c0.134,0.601-0.562,0.839-0.535,1.343
				c-0.287,0.319-0.364,0.727-0.76,0.95c-0.194,0.112-0.291,0.217-0.493,0.229c-0.393,0.223-0.682,0.441-1.071,0.765
				c-0.471,0.633-0.774,0.65-1.304,0.172c-0.632-0.471-1.361-0.838-1.999-1.411c-0.838-0.563-1.783-1.219-2.628-1.883
				c-0.633-0.473-1.269-1.045-1.812-1.725c-0.112-0.195-0.323-0.388-0.542-0.68c-0.105-0.096-0.218-0.292-0.329-0.486
				c-0.223-0.394-0.536-0.579-0.86-0.968c-0.101,0.007-0.195,0.113-0.303,0.017c-0.109-0.195-0.126-0.498-0.437-0.584
				c-0.021-0.402-0.335-0.588-0.45-0.887c-0.653-0.874-1.01-1.866-1.366-2.858s-0.611-1.991-1.063-2.877
				c-0.451-0.887-0.601-1.789-0.749-2.691c-0.183-1.508-0.258-2.921-0.435-4.327c-0.02-0.403-0.144-0.801-0.164-1.204
				c-0.032-0.605-0.064-1.21-0.104-1.916c-0.052-1.01-0.005-2.022,0.037-3.137c-0.076-1.413,0.046-2.938,0.066-4.455
				c-0.063-1.21,0.067-2.531,0.306-3.759c0.222-1.527,0.439-3.159,0.867-4.598c0.063-0.71,0.234-1.325,0.604-1.954
				c0.196-0.11,0.181-0.414,0.27-0.621c0.456-0.933,0.914-1.867,1.475-2.708c0.653-1.046,1.518-1.901,2.5-2.458
				c0.487-0.33,1.003-0.154,1.411-0.076c0.41,0.079,0.718,0.164,1.035,0.452c0,0,0,0,0.007,0.1c0.823,0.259,1.46,0.834,2.198,1.4
				c0.732,0.468,1.269,1.045,1.906,1.618c0.426,0.382,0.955,0.86,1.286,1.348c0.547,0.78,1.183,1.354,1.631,2.139
				c0.11,0.196,0.217,0.29,0.329,0.488c0.537,0.578,0.776,1.273,1.217,1.957c0.33,0.489,0.563,1.085,1.089,1.459
				c0.244,0.797,0.787,1.478,1.131,2.267c0.234,0.596,0.666,1.078,0.799,1.678c0.021,0.403,0.238,0.695,0.557,0.981
				c-0.18,0.414,0.139,0.7,0.255,0.998c0.028,0.505,0.154,1.003,0.378,1.395c0.246,0.797,0.394,1.699,0.54,2.502
				c0.003,0.1-0.088,0.307,0.015,0.3c0.336,0.59,0.262,1.102,0.293,1.704c0.027,0.506,0.263,1.101,0.288,1.605
				c0.242,0.795,0.59,1.585,0.532,2.397c0.016,0.302,0.133,0.602,0.255,0.998C274.633,416.8,274.655,417.202,274.58,417.713z"/>
		</g>
		<g>
			<path fill="#D8B428" d="M317.359,392.462c-0.108,0-0.219-0.216-0.326-0.108c-0.216,0.108,0,0.328-0.216,0.545
				C317.141,392.898,317.251,392.571,317.359,392.462z"/>
		</g>
		<g>
			<path fill="#D8B428" d="M362.827,381.477c-0.545-0.543-1.415-0.761-1.851-1.522c-0.107-0.109-0.107-0.434-0.107-0.762
				c-0.328,0-0.436-0.325-0.762-0.435c-0.109-0.217-0.109-0.435-0.326-0.544c-0.109-0.108-0.219,0.109-0.436,0
				c-0.108-0.218,0-0.544-0.219-0.761c-0.217,0.108-0.435,0.217-0.651,0.108c-0.217-0.219-0.435-0.544-0.652-0.87
				c-0.328,0.217-0.546,0.326-0.653,0.545c-0.763,0.76-1.305,1.631-1.74,2.608c-0.108,0.329-0.218,0.545-0.433,0.871
				c0.106,0.107,0.215,0.325,0.215,0.545c-0.108,0-0.215-0.109-0.325,0c-0.11,0.216-0.22,0.543-0.327,0.869
				c-0.109,0.435-0.109,0.871-0.326,1.306c-0.218,0.219-0.326,0.542-0.326,0.762c-0.108,0.651-0.327,1.413-0.436,2.066
				c-0.108,0.217-0.108,0.435,0,0.652c-0.326,0.326-0.326,0.762-0.326,1.087c-0.109,0.652-0.543,1.09-0.543,1.741
				c0,0.326-0.219,0.653-0.11,0.979c-0.217,0.218-0.217,0.436-0.108,0.762c-0.108,0.109-0.218,0.327-0.218,0.434
				c0,0.436-0.325,0.872-0.325,1.308c-0.108,0.217,0,0.543-0.108,0.76c-0.328,0.545-0.328,1.306-0.544,1.85
				c-0.436,1.415-0.544,2.827-0.763,4.025c-0.544,2.066-0.87,4.024-1.194,6.091c-0.109,0.109-0.22,0.326-0.22,0.654
				c0,0.107,0,0.325-0.108,0.433c-0.108,0.544-0.327,1.198-0.436,1.741c0,0.217,0,0.327,0.108,0.544
				c-0.543,0.327-0.324,0.978-0.543,1.415c0.108,0.107,0.435,0.216,0.326,0.433c-0.107,0-0.218-0.107-0.326,0
				c-0.108,0.11-0.217,0.328-0.217,0.654c0,0.108,0.217,0,0.217,0.108c0,0.109-0.108,0.217-0.217,0.326
				c0-0.109,0.108-0.217-0.109-0.217c-0.326,1.088-0.544,2.176-0.87,3.263c0.108,0.217,0.217,0.217,0.326,0.326
				c0,0.218,0,0.435,0.108,0.653c0,0.108,0,0.217-0.218,0.326c0,0.218,0,0.327,0.109,0.544c0,0.217-0.218,0.326-0.218,0.434
				c0,0.109,0.108,0.219-0.108,0.327c-0.109-0.108-0.219-0.218-0.219-0.435c0.327-0.109,0.219-0.652,0.436-0.87
				c-0.217-0.326,0.109-0.762-0.217-0.979c-0.219,0.762-0.543,1.523-0.436,2.501c-0.216,0.219-0.325,0.438-0.216,0.87
				c-0.109,0.326-0.329,0.545-0.109,0.87c-0.546,0.437-0.327,1.089-0.436,1.523c0.108,0,0.216,0,0.216,0
				c0.22-0.326,0-0.653,0.329-0.979c0.216,0,0.433,0,0.542-0.217c0.109,0.108,0,0.217-0.109,0.326c-0.324,0-0.324,0.216-0.433,0.543
				c0,0.219-0.109,0.438-0.329,0.652c-0.107,0-0.216-0.215-0.216-0.326c-0.326,0.436-0.326,0.979-0.326,1.523
				c0,0.218-0.327,0.436-0.108,0.761c-0.437,0.435,0,1.088-0.219,1.524c0.109,0,0.109,0.218,0.327,0.218
				c-0.218-0.546,0.108-1.088,0.108-1.633c0.218,0,0.434,0,0.653,0.108c0,0.217-0.22,0.108-0.22,0.217c0,0.109-0.107,0.22,0,0.436
				c0,0.109,0.22,0.218,0.22,0.326c-0.22,0.111-0.436,0.217-0.436,0.437c0,0.109,0,0.109,0.108,0.217c-0.108,0-0.219,0-0.219,0
				c-0.216,0.436-0.107,0.762,0.219,1.195c-0.219,0-0.326,0-0.435,0c-0.218-0.325,0-0.65-0.218-0.979c-0.218,0-0.327,0.108-0.436,0
				c-0.436-0.108-0.436-0.653-0.87-0.759c0-0.111-0.108-0.22,0-0.328c0-0.217,0.219-0.217,0.219-0.436
				c-0.11-0.109,0-0.435-0.327-0.544c0-0.107,0.108-0.325,0-0.436c-0.218-0.325-0.326-0.651-0.326-0.978
				c0-0.218-0.11-0.436-0.11-0.653c-0.107-0.325-0.325-0.652-0.435-0.979c-0.108-0.326-0.108-0.653-0.325-0.979
				c-0.327-0.544-0.435-1.086-0.545-1.631c-0.107-0.327-0.107-0.653-0.217-0.87c-0.217-0.326-0.437-0.544-0.653-0.87
				c-0.108-0.109,0.108-0.219,0-0.327c-0.326-0.543-0.326-1.196-0.761-1.631c-0.108,0-0.108-0.108-0.108-0.219
				c-0.11-0.434-0.436-0.76-0.327-1.304c0,0-0.108-0.11-0.219-0.22c-0.543-0.979-0.979-2.066-1.195-3.153
				c-0.107-0.436-0.107-0.979-0.327-1.306c-0.108-0.325-0.108-0.65-0.108-0.869c0-0.651-0.325-1.196-0.435-1.741
				c-0.107-0.217-0.107-0.543-0.327-0.76c-0.217-0.328-0.324-0.762-0.217-1.198c-0.218-0.217-0.326-0.434-0.218-0.761
				c0-0.109-0.108-0.217-0.108-0.327c-0.108-0.651-0.545-1.196-0.651-1.847c0-0.22,0-0.437-0.11-0.653
				c-0.217-0.327-0.108-0.87-0.543-1.308c0,0,0-0.108,0-0.217c0-0.217-0.108-0.326-0.108-0.543
				c-0.327-0.762-0.654-1.523-0.763-2.284c-0.108-0.436-0.325-0.87-0.543-1.416c-0.109-0.323-0.326-0.76-0.326-1.195
				c-0.109-0.217-0.109-0.545-0.326-0.653c-0.218-0.325-0.328-0.542-0.218-0.869c-0.327-0.217-0.219-0.544-0.327-0.762
				c-0.108-0.543-0.435-0.979-0.542-1.522c-0.111-0.436-0.547-0.762-0.653-1.197c-0.11-0.325-0.327-0.651-0.436-0.978
				c-0.109-0.327-0.218-0.652-0.436-0.87c-0.218-0.219-0.326-0.435-0.437-0.653c0-0.216-0.107-0.327-0.218-0.436
				c-0.433-0.435-0.977-0.869-1.303-1.306c-0.327-0.106-0.544,0-0.764-0.106c-0.324-0.111-0.542,0-0.759-0.219
				c-0.653,0.107-1.198-0.108-1.634-0.762c-0.108-0.109,0-0.326,0-0.544c-0.108-0.217-0.217-0.437-0.108-0.653
				c-0.435-0.106-0.76-0.543-1.196-0.653c-1.195,0.438-3.699,2.395-3.808,3.154c-0.435,0-1.631,1.959-1.848,2.938
				c0.108,0.109,0.326,0.217,0.436,0.217c0.217,0.327,0,0.545,0.217,0.87c0.107-0.325,0.107-0.651,0.544-0.543
				c0.109,0.435,0.109,0.87,0.326,1.195c0.217-0.217,0.434-0.325,0.762-0.436c-0.217,0.219-0.217,0.545-0.437,0.545
				c0,0.219,0.108,0.328,0,0.436c-0.325,0-0.217-0.327-0.325-0.436c-0.217,0-0.326-0.218-0.436-0.326
				c-0.108,0.326-0.327,0.326-0.545,0.435c-0.106-0.108-0.216-0.108-0.325-0.218c0-0.217,0.219-0.325,0.219-0.436
				c0-0.107-0.109-0.217-0.327-0.107c0,0.107-0.108,0.218-0.217,0.326c0,0.326,0.108,0.545,0.325,0.762
				c-0.435,0-0.435-0.653-0.869-0.653c0,0.218-0.108,0.437-0.219,0.653c0.435,0,0.435,0.326,0.653,0.544
				c-0.653-0.11-0.763-0.11-0.871,0.108c0.108,0.11,0.218,0.11,0.218,0.327c-0.109,0.107-0.109,0.324,0,0.651
				c-0.218,0-0.326-0.327-0.435-0.108c0.108,0.108,0.325,0.218,0.217,0.545c-0.108,0-0.217,0-0.436,0
				c0.219,0.217,0,0.434,0.11,0.544c0,0.106,0.108,0.217,0.217,0.217c0.108-0.11,0-0.327,0.108-0.435
				c0.108,0.324,0.437,0,0.544,0.324c0.217,0.22,0.437,0.328,0.437,0.653c-0.109,0.219-0.22,0.327-0.544,0.327
				c0-0.217,0-0.327,0-0.437c0-0.108,0.216-0.324,0.107-0.544c-0.216,0.22-0.652,0.22-0.652,0.544c0,0.22-0.217,0.437-0.217,0.653
				c0,0.11,0.217,0.11,0.108,0.327c-0.219-0.109-0.219,0.218-0.436,0.218c-0.106,0-0.217,0-0.435,0
				c-0.108,0.219-0.108,0.436-0.108,0.761c0.326-0.219,0.326,0,0.326,0.217c-0.109,0.11-0.326,0-0.326,0.218
				c0.108,0.11,0.326,0,0.326,0.11c0,0.217,0,0.434,0,0.652c0.11,0,0.217-0.108,0.434,0c0.11,0.217,0.327,0.326,0.219,0.651
				c-0.108-0.217-0.326-0.325-0.542-0.543c-0.11-0.108-0.22,0.108-0.328,0.108c0,0,0-0.217-0.108-0.108
				c-0.219,0.218,0,0.326,0,0.437c0,0.106-0.108,0.216-0.219,0.325c-0.218,0.108-0.108-0.219-0.325-0.219
				c0,0.219,0,0.437-0.109,0.762c0.217-0.108,0.217-0.325,0.435-0.217c0,0.108,0,0.217,0,0.326c-0.108,0.109-0.325,0-0.325,0.109
				c-0.109,0.107-0.109,0.216-0.109,0.324c0.326,0.111,0.435,0.22,0.545,0.545c-0.219,0-0.219-0.217-0.436-0.217
				c-0.109,0-0.109,0.107-0.217,0.326c0.324,0,0.107,0.217,0.217,0.434c0,0.11,0.217,0,0.217,0.219
				c-0.109,0.108-0.326,0.219-0.326,0.544c-0.327-0.219-0.107-0.544-0.219-0.871c-0.217,0.108-0.217,0.219-0.217,0.436
				c0,0.327,0.328,0.544,0.436,0.761c-0.107,0.437-0.544,0.22-0.653,0.653c0,0.108,0.218,0.108,0.109,0.22l-0.109,0.106
				c-0.107,0-0.216-0.106-0.216,0c0,0.109-0.108,0.219,0,0.219c0.108,0.108,0.216-0.109,0.325,0c0,0.216-0.217,0.325-0.217,0.434
				c-0.108,0.111,0,0.219,0,0.328c-0.108,0-0.217,0-0.217,0.217c0,0.109,0.217,0.109,0.217,0.216c0,0.11-0.108,0.11-0.217,0.218
				c0,0.109,0.217,0.109,0.108,0.22c0,0.217-0.218,0.217-0.327,0.434c-0.109,0.218,0.327,0.327,0,0.544
				c-0.109-0.108-0.109-0.326-0.326-0.434c0.107,0.325,0,0.544,0.107,0.652c0.109,0.108,0.219-0.108,0.438,0.108
				c0.108,0.217-0.328,0-0.328,0.109c0,0.217,0.109,0.434,0,0.544c-0.109,0.107-0.217,0.107-0.325,0.218
				c0.108,0.217,0.108,0.433,0.108,0.651c-0.218,0.219-0.545,0.325-0.436,0.653c-0.109,0.217-0.327,0.217-0.327,0.327
				c0,0.106,0,0.218,0,0.433c0.11,0.11,0.218,0.11,0.327,0.327c0,0.109-0.217,0.218-0.217,0.435c0,0.11,0.107,0.219,0.107,0.437
				c-0.218,0-0.107-0.218-0.218-0.218c-0.217,0.108-0.325,0.108-0.542,0.218c0.325,0.544,0.325,1.194,0.217,1.632
				c0,0.217-0.217,0.217-0.325,0.434c0,0.11,0.108,0.11,0.108,0.11c-0.108,0.217-0.325,0.106-0.437,0
				c-0.108,0.324-0.218,0.544-0.218,0.869c0.218,0.218,0.329,0.436,0.218,0.762c-0.108-0.219-0.108-0.436-0.325-0.436
				c0,0.436,0.217,0.761,0.325,1.089c-0.218,0.435-0.325,0.759-0.325,1.196c-0.437,0.216-0.217,0.544-0.327,0.87
				c-0.109,0-0.218,0-0.326,0c0-0.109,0.217-0.218,0-0.326c-0.218,0.326-0.218,0.761-0.435,1.196
				c0.217,0.107,0.217-0.109,0.325-0.109c0.109,0.217,0.218,0.109,0.436,0.217c-0.109,0.109-0.109,0.327-0.218,0.327
				c-0.108,0.108-0.108-0.108-0.218-0.108c-0.108,0.217-0.325,0.217-0.434,0.435c-0.11,0.218,0.217,0.218,0.108,0.436
				c0,0.108-0.108-0.109-0.219,0.108c0.219,0.109,0.544,0.219,0.544,0.652c-0.325,0.109-0.108,0.436-0.325,0.653
				c-0.219,0.107-0.326-0.109-0.543-0.218c-0.111,0.763-0.218,1.415,0.435,1.957c-0.435-0.217-0.762-0.108-0.87,0.327
				c0.108,0,0.218-0.219,0.324-0.109c0.219,0.219,0.328,0.653,0.328,0.979c-0.217,0.217-0.217,0.652-0.652,0.652
				c-0.109,0.326-0.327,0.544-0.545,0.653c-0.108,0.326,0.218,0.326,0.218,0.542c-0.436,0.219-0.762,0-1.088,0
				c0-0.216,0-0.434-0.108-0.651c0,0-0.108,0-0.217-0.108c0.108-0.218,0.108-0.542,0-0.653c-0.108-0.218-0.219,0-0.327-0.107
				c0-0.11,0-0.219,0-0.327c0-0.435,0-0.979-0.108-1.414c-0.327-0.653-0.545-1.306-0.652-1.959c0-0.107,0-0.107-0.109-0.107
				c-0.108,0-0.219,0.217-0.327,0.107c0-0.107,0.108-0.217,0.219-0.434c0-0.653-0.327-1.089-0.545-1.633
				c-0.108-0.107-0.108,0.109-0.217,0.109c0.217-0.543,0.108-0.979-0.218-1.413c-0.218-0.219-0.327-0.437-0.327-0.87
				c-0.107-1.089-0.326-2.285-0.76-3.374c-0.218-0.324-0.437-0.762-0.437-1.195c-0.108-0.653-0.435-1.304-0.543-1.959
				c0-0.326,0-0.651-0.327-0.869c0.219-0.436,0.109-0.763-0.109-1.088c-0.216-0.107-0.216,0.109-0.323,0.109
				c0.107-0.217,0.107-0.327,0.216-0.545c-0.327-0.434,0.107-1.087-0.437-1.304c0.109-0.437-0.107-1.306-0.324-1.523
				c-0.11,0-0.11,0.109-0.219,0.109c0-0.109-0.107-0.109-0.107-0.217c0.107-0.22,0.216-0.329,0.216-0.545
				c-0.216-0.325-0.434-0.655-0.434-1.088c0.107-0.327,0-0.544-0.109-0.871c-0.108-0.108-0.108-0.436-0.327-0.544
				c0-0.108,0.11-0.108,0.219-0.217c0-0.326-0.108-0.543-0.219-0.763c-0.106-0.108-0.326-0.108-0.326-0.216
				c0-0.109,0.22-0.109,0.22-0.219c-0.11-0.979-0.437-1.74-0.765-2.61c0.11-0.108,0-0.325-0.106-0.436
				c-0.11-0.435-0.326-0.87-0.326-1.414c0-0.218,0-0.543-0.22-0.543c-0.217-1.088-0.217-2.065-0.651-3.045
				c0-0.11-0.107-0.11-0.217-0.219c0-0.652-0.11-1.305-0.327-1.849c-0.108-0.436-0.326-0.761-0.436-1.088
				c-0.109-0.762-0.543-1.306-1.196-1.957c0-0.217-0.107-0.328-0.326-0.436c-0.108-0.108-0.219-0.218-0.325-0.325
				c-0.219-0.546-0.763-0.653-1.306-0.653c-0.327-0.109-0.654-0.109-0.98-0.219c-1.739,0.109-3.371,0.543-5.002,1.197
				c-0.109,0.325-0.327,0.325-0.653,0.542c0,0.328,0.326,0.437,0.436,0.545c0.543,1.633,0.436,3.372,1.088,5.004
				c-0.11,0.326,0.108,0.437,0.325,0.653c-0.107,0.324-0.107,0.761,0.109,1.088c0.652-0.327,0.652-0.217,0.762,0.217
				c-0.217,0-0.327,0.109-0.544-0.109c0,0.109-0.109,0.219-0.109,0.219c0.326,1.957,0.979,3.697,1.414,5.547
				c0.218-0.109,0-0.326,0.218-0.435c0,0.108,0,0.217,0,0.325c-0.108,0.326-0.108,0.763,0,1.088
				c0.436,1.197,0.652,2.284,0.979,3.481c0.326,1.413,0.544,2.938,0.87,4.351c0.218,0.869,0.434,1.741,0.652,2.611
				c0.217,0.761,0.436,1.521,0.544,2.283c0.324,1.197,0.652,2.392,0.871,3.699c0,0.107,0,0.324,0.107,0.435
				c0.219,0,0.219-0.11,0.325-0.11c-0.106-0.107-0.216-0.107-0.216-0.324c0.216,0,0.435-0.109,0.761-0.109
				c0-0.108-0.107-0.217-0.107-0.327c0.217,0,0.325,0.11,0.325,0.219c0,0.218-0.108,0.435-0.108,0.652
				c-0.217,0-0.327-0.544-0.654-0.11c0,0.11,0.11,0.11,0.11,0.22c-0.11,0.109-0.217,0.109-0.217,0.217
				c0.106,0.436,0,0.979,0.325,1.306c0.108,1.087,0.436,1.959,0.544,2.937c0.218,0,0.436-0.108,0.544-0.108
				c0,0.108,0,0.217-0.108,0.325c0,0-0.218-0.217-0.327,0c0.217,0.979,0.544,2.067,0.979,3.155c0,0.108-0.109,0.218,0,0.325
				c0.218,0.653,0.218,1.415,0.435,1.96c0.108,0.87,0.328,1.63,0.544,2.283c0.218,0.653,0.326,1.414,0.543,2.064
				c0.22,1.309,0.546,2.721,0.873,4.028c0.324,0.976,0.544,1.957,0.761,2.935c0,0.327,0,0.653,0.326,0.979
				c-0.109,0.327,0,0.653,0.218,0.869c0.107-0.108-0.11-0.324,0.216-0.324c0,0.324-0.216,0.76,0,1.087
				c0.11,0,0.11-0.218,0.327-0.107c-0.109,0.216-0.217,0.324-0.109,0.433c0.438,1.089,0.87,2.176,1.415,3.373
				c0.109,0.435-0.109,1.087-0.326,1.521c0.108,0.219,0.217,0.219,0.326,0.329c0.544,0.217,1.195,0.542,1.631,1.087
				c0.109,0.217,0.436,0.217,0.652,0.217c0.326-0.217,0.763-0.108,1.088,0c0.108,0,0.219,0.109,0.327,0.109
				c0.761,0,1.413,0.106,2.176,0.106c0.324-0.216,0.76-0.324,1.087-0.324c0.871-1.413,1.85-2.72,2.283-4.025
				c0.545-0.762,1.089-1.087,1.198-1.85c0.109-0.106,0.218-0.217,0.434-0.324c0-0.108,0-0.22,0.109-0.328
				c0.437-0.652,0.544-1.411,0.761-2.175c0.328-0.761,0.545-1.631,0.763-2.393c0.11-0.22,0.326-0.437,0.217-0.652
				c0-0.437,0.109-0.763,0.327-1.089c0.108-0.435,0.217-0.762,0.325-1.087c0.218-0.544,0.437-1.087,0.544-1.631
				c0.108-0.545,0.327-0.979,0.545-1.523c-0.108-0.327,0.108-0.652,0.217-1.088c0.109-0.326,0.219-0.652,0.436-0.98
				c0.107-0.325,0.326-0.65,0.326-0.979c0-0.108,0.108-0.217,0.108-0.324c0.219-0.329,0.436-0.654,0.436-0.979
				c0.108-0.545,0.325-0.98,0.545-1.415c0.108-0.219-0.111-0.435,0.108-0.761c0.434-0.327,0.761-0.979,0.979-1.524
				c0.216-0.87,0.435-1.631,0.761-2.392c0.109-0.219,0.109-0.436,0.109-0.763c0-0.107,0-0.217,0.109-0.326
				c0.326-0.324,0.326-0.651,0.326-1.087c0-0.109,0-0.218,0.107-0.326c0.108-0.327,0.219-0.651,0.219-0.98
				c0.107,0,0.216,0,0.324-0.217c0-0.325,0.219-0.544,0.219-0.87c0.108-0.324,0.326-0.434,0.326-0.651
				c0-0.652,0.219-1.306,0.437-1.96c0.107-0.652,0.216-1.304,0.325-1.958c0.108-0.106,0.218-0.106,0.326-0.217
				c-0.108-0.217-0.218-0.434-0.218-0.652c0.109-0.107,0.326,0,0.435-0.218c0-0.217,0-0.544-0.108-0.761
				c0.544-0.652,0.544-1.305,0.544-2.066c0-0.11,0.109,0,0.109-0.11c-0.109-0.543,0.325-0.978,0.325-1.521
				c0.436,0.217,0.436,0.652,0.655,0.87c-0.22,0.218,0,0.325,0.108,0.435c0,0.326,0.217,0.543,0.324,0.87
				c-0.107,0.326,0.654,2.827,0.98,3.153c0.107,0.217-0.219,0.217-0.109,0.327c0.327,1.848,0.653,3.808,1.197,5.656
				c0.108,0,0.108-0.218,0.217-0.218c0.107,0.218-0.108,0.327-0.217,0.544c0.433,0.436,0.108,1.196,0.761,1.414
				c-0.11,0.219-0.11,0.326-0.11,0.543c0.327,0.763,0.654,1.523,0.872,2.285c0,0.217,0.108,0.435,0.325,0.544
				c-0.108,0-0.108,0.109-0.108,0.109c0.435,2.175,1.306,4.242,1.959,6.309c0,0.216,0.109,0.435,0.217,0.652
				c0,0.109-0.107,0.326,0,0.435c0.326,0.653,0.326,1.306,0.544,1.956c0.326,0.765,0.435,1.634,0.761,2.396
				c0.219,0.978,0.437,2.066,0.762,3.046c0.218,0,0.437-0.326,0.762-0.109c-0.219,0.109-0.544,0.109-0.652,0.327
				c-0.109,0.543,0.108,0.977,0.327,1.521c0.217,0.437,0.217,0.872,0.325,1.308c0.108,0.435,0.218,0.979,0.326,1.412
				c0.108,0.654,0.436,1.198,0.436,1.851c0.107,0.869,0.435,1.74,0.65,2.609c0.11,0.327,0,0.764,0.438,0.98
				c-0.11,0.434,0,0.87,0.326,1.087c0.324,0.435,0.762,0.87,1.196,1.196c0.218,0.109,0.325,0.218,0.653,0.218
				c0.107,0,0.107-0.108,0.218-0.108c0.325,0.217,0.542,0,0.761,0c0.436-0.219,0.436-0.652,0.761-0.871
				c0.22-0.107,0.22,0.11,0.327,0.11c0.108-0.11,0.108-0.218,0.217-0.218c0.108,0.107,0.218,0.218,0.326,0.326
				c0.217,0,0.217-0.219,0.436-0.108c0.435,0.325,0.979,0.217,1.632,0.217c0.218,0.108,0.218,0.325,0.544,0.325
				c0.326-0.108,0.653-0.217,1.087-0.108c0.109,0,0.218,0,0.326,0c0.653-0.108,1.088-0.434,1.522-0.979
				c0.219-0.217,0.436-0.545,0.762-0.545c0.326-0.217,0.653-0.433,0.979-0.651c0.328-0.107,0.437-0.437,0.545-0.761
				c0-0.327,0.107-0.652,0.327-0.871c0.107-0.436,0.434-0.87,0.325-1.306c0.219-0.325,0.327-0.651,0.219-0.979
				c0-0.108,0-0.217,0-0.326c0.326-0.762,0.651-1.414,0.87-2.177c0.217-0.542,0.651-1.087,0.761-1.739c0-0.217,0-0.437,0-0.761
				c0.326-0.545,0.544-1.196,0.652-1.85c0.218-1.089,0.544-2.177,0.981-3.264c0-0.109,0-0.218,0-0.325
				c0.106-0.873,0.106-1.851,0.542-2.613c0-0.106,0-0.324,0-0.433c0.107-0.545,0.217-1.197,0.326-1.85
				c0.326-0.653,0.542-1.306,0.435-1.957c-0.108-0.328,0.107-0.764,0.218-1.088c0.11-0.327,0.325-0.653,0.325-0.978
				c0.11-0.654,0.327-1.307,0.544-1.852c0-0.108,0-0.217,0-0.327c0.108-0.326,0.108-0.759,0.437-1.087
				c0.108-0.109,0.108-0.326,0.108-0.435c-0.108-0.109-0.108-0.219,0-0.326c0.219-0.543,0.327-1.088,0.327-1.74
				c0.108-0.436,0.108-0.872,0.325-1.196c0.218-0.437,0.437-0.87,0.543-1.196c-0.217-0.218-0.217-0.436-0.106-0.654
				c-0.219-0.109-0.328,0-0.437-0.216c-0.108-0.545,0.108-1.197,0.108-1.74c-0.108-0.108-0.217-0.108-0.217-0.327
				c0.108-0.11,0.217-0.327,0.217-0.437c0.109-0.762,0.218-1.521,0.435-2.282c0-0.217,0.11-0.545,0.11-0.872
				c-0.11-0.433,0.108-0.869,0.108-1.305c0.109-0.543,0.326-1.088,0.326-1.631c-0.109-0.108,0-0.217,0.109-0.436
				c0.109-0.436,0.326-0.869,0.326-1.307c0.434-1.85,0.326-3.806,1.086-5.437c0.11-0.979,0.328-1.74,0.545-2.285
				c0.219-1.088,0.326-1.85,0.544-2.609c-0.108-0.327-0.108-0.544,0.108-0.871c0-0.109-0.108-0.326-0.108-0.543
				c0.545-0.545,0.328-1.524,0.87-2.178c-0.109-0.435,0-0.76,0-1.194c0.108-0.545,0.325-1.197,0-1.739
				c-0.109-0.22-0.109-0.438-0.109-0.545c0.218-0.544,0.109-1.087,0.328-1.523C363.152,382.564,362.827,382.021,362.827,381.477z
				 M293.974,401.818c-0.436-0.108-0.218-0.437-0.218-0.654c0.218,0,0.325,0.109,0.325,0.218
				C294.19,401.493,294.081,401.71,293.974,401.818z M300.172,422.594c-0.107,0.109-0.217,0-0.435,0
				c0.109-0.218,0.109-0.326,0.327-0.436C300.281,422.376,300.281,422.376,300.172,422.594z M301.589,403.885
				c-0.22,0-0.22-0.217-0.327-0.217c-0.109-0.219,0-0.437,0.217-0.544C301.806,403.341,301.806,403.449,301.589,403.885z
				 M302.783,428.467c0.109,0.219,0,0.327,0,0.436c-0.218,0.109-0.326,0.326-0.544,0.436
				C302.239,429.012,302.239,428.902,302.783,428.467z M302.239,436.625c-0.107,0.218,0.218,0.326,0,0.544
				c-0.107-0.218-0.217-0.326-0.325-0.544c0.218-0.217,0.436-0.217,0.651-0.326C302.565,436.625,302.35,436.625,302.239,436.625z
				 M302.893,436.188c-0.217,0-0.327-0.106-0.436-0.106c-0.107,0-0.107,0.217-0.218,0.217c-0.217-0.217-0.217-0.327-0.107-0.544
				c0.218,0,0.218,0.217,0.325,0.217c0.108,0.11,0.219-0.107,0.436,0C302.893,435.972,302.893,436.082,302.893,436.188z
				 M304.308,422.485c0-0.327-0.327-0.653-0.327-1.089C304.308,421.723,304.415,422.158,304.308,422.485z M303.221,438.256
				c-0.111-0.216,0-0.543,0-0.761c0.107-0.11,0.107,0,0.216,0.109C303.221,437.713,303.763,438.148,303.221,438.256z
				 M303.437,433.798c0.217,0,0.326,0,0.436,0c0.108,0.217-0.109,0.326-0.109,0.542
				C303.437,434.232,303.437,434.015,303.437,433.798z M303.653,440.867c0.109-0.217,0.219-0.435,0.109-0.653
				c0.436-0.107,0.218,0.219,0.436,0.437C304.089,440.759,303.98,440.977,303.653,440.867z M304.308,442.281
				c-0.327-0.436-0.327-0.543,0-0.761C304.308,441.738,304.415,442.063,304.308,442.281z M306.157,429.772
				c-0.11,0.108-0.219,0.108-0.328,0.217c0-0.217-0.109-0.326-0.109-0.437c-0.107-0.541-0.435-0.867-0.435-1.303
				c0-0.218-0.109-0.438,0.108-0.653c0.109-0.217,0.219-0.435,0-0.762c0.109-0.216,0.219-0.435,0.326-0.652
				c0-0.327,0-0.544,0.219-0.652c0,0.325,0.219,0.762,0.326,1.089c0.108,0.435,0.326,0.761,0.435,1.193
				C306.591,428.467,306.265,429.12,306.157,429.772z M316.054,400.293c0,0,0,0,0-0.106c0-0.217,0-0.544,0.108-0.98
				c0.11,0,0.219-0.106,0.436-0.106C316.381,399.425,316.162,399.86,316.054,400.293z M316.707,397.25
				c-0.109,0.107-0.218,0.216-0.545,0.107c0.327-0.217-0.108-0.869,0.545-0.979c0,0.109,0,0.109-0.218,0.544
				C316.489,397.141,316.707,397.031,316.707,397.25z M325.3,383.543c-0.436-0.107-0.761,0.328-1.197,0.218
				c-0.108-0.434-0.108-0.543,0.437-0.65v-0.109c0,0,0,0-0.109,0c-0.218-0.11,0-0.22-0.109-0.327c-0.108,0-0.108,0-0.218,0.217
				c0-0.434-0.108-0.87-0.108-1.197c0.108-0.217,0.218-0.323,0.436-0.323c0.109,0,0.109,0.106,0.218,0.106
				c0,0.11-0.218,0.11-0.218,0.217c0.109,0.22,0.327,0.11,0.543,0.22c-0.108,0.217-0.325,0.217-0.434,0.325
				c0,0.219,0.108,0.326,0.218,0.436c-0.109,0.107-0.109,0.217-0.218,0.327c0.218-0.11,0.325-0.11,0.434-0.11
				c0.109,0.11,0.218,0.327,0.436,0.327C325.3,383.327,325.3,383.436,325.3,383.543z M331.935,419.112
				c0-0.218,0.108-0.326,0.217-0.542c0,0.324,0.219,0.433,0.219,0.652C332.151,419.329,332.043,419.329,331.935,419.112z
				 M339.549,441.084c0.107-0.217,0-0.325,0.107-0.543c0.219,0.218,0.328,0.543,0.328,0.869c-0.218,0-0.218-0.216-0.436-0.107
				c-0.108,0.107-0.217,0.218-0.436,0.325c-0.219-0.107-0.108-0.218-0.219-0.434C339.113,440.977,339.44,441.194,339.549,441.084z
				 M338.354,437.822c0.107-0.109,0-0.438,0.324-0.438c0.109,0.22,0,0.328-0.107,0.438c0.324,0.11,0.217,0.326,0.324,0.542
				c-0.107,0.11-0.107,0.218-0.217,0.436c-0.107-0.108,0-0.218-0.107-0.325c-0.109-0.11-0.109,0.325-0.326,0.107
				c0-0.218,0.217-0.326,0.326-0.434C338.57,438.04,338.354,438.04,338.354,437.822z M338.244,439.779
				c0.109,0,0.326-0.107,0.543-0.216c-0.109,0.543-0.653,0.65-0.653,1.195c0,0.218,0.22,0.436-0.108,0.544
				C337.807,440.759,337.917,440.322,338.244,439.779z M337.7,436.299c0.106,0,0.217,0.109,0.434,0.109c0,0.107,0,0.217-0.108,0.324
				c-0.108,0-0.325-0.107-0.435-0.107C337.483,436.408,337.591,436.408,337.7,436.299z M336.939,432.273
				c0.217-0.325,0.217-0.653,0.544-0.653C337.7,431.948,337.591,432.057,336.939,432.273z M337.591,439.127
				c0.216,0,0.326,0.217,0.435,0.437c-0.219,0-0.325,0.216-0.542,0C337.483,439.452,337.591,439.235,337.591,439.127z
				 M337.591,442.063c0.216-0.218,0.435,0.108,0.543-0.325c0.22,0.434,0.11,0.543-0.327,0.759
				C337.807,442.281,337.807,442.063,337.591,442.063z M338.134,442.935c-0.108,0-0.108,0.217-0.327,0.108
				c0-0.218,0.11-0.327,0.219-0.436c0.219-0.11,0.328,0,0.436,0.218c0.217,0.326,0.434,0.762,0.217,1.306
				c-0.217,0-0.324,0-0.434-0.219c0.109,0,0.434,0,0.326-0.217c-0.109-0.108-0.217,0-0.326,0
				C338.025,443.477,338.461,443.151,338.134,442.935z M338.895,444.893c-0.217-0.109-0.324-0.327-0.65-0.435
				c0.543-0.111,0.543-0.111,0.869,0.107C339.113,444.676,339.113,444.783,338.895,444.893z M339.113,443.695
				c-0.108-0.219-0.219-0.436-0.219-0.652c0.329,0,0.219,0.327,0.329,0.544c0.108-0.217,0-0.327,0.108-0.436
				c0.108,0,0.217-0.108,0.324-0.108C339.549,443.37,339.549,443.695,339.113,443.695z M339.767,443.043
				c0-0.108,0.108-0.218,0.218-0.218c0.107,0,0.218,0.218,0.218,0.435C339.875,443.37,339.875,443.151,339.767,443.043z
				 M339.984,442.063c-0.109,0.108,0.107,0.218-0.109,0.434c-0.219-0.107-0.219-0.325-0.326-0.434c0-0.107,0.107-0.107,0.107-0.107
				c0.11-0.11,0-0.218,0.11-0.328c0.108,0,0.325-0.107,0.436-0.218c0.108,0.11,0.108,0.218,0.218,0.328
				C340.202,441.738,340.092,441.956,339.984,442.063z M342.595,434.451c-0.216-0.219-0.216-0.437-0.216-0.546
				c0.216-0.107,0.324-0.218,0.433-0.107C342.812,434.015,342.812,434.232,342.595,434.451z M346.401,420.201
				c-0.107-0.328,0-0.653-0.216-0.979c0.324,0.106,0.433,0.325,0.651,0.325C346.618,419.765,346.51,420.092,346.401,420.201z
				 M347.381,418.895c-0.327-0.108-0.436-0.543-0.763-0.543c-0.108-0.109,0-0.109,0-0.219c0.219-0.107,0.327-0.107,0.436,0.219
				c0.218-0.109,0.327-0.219,0.437-0.109C347.707,418.461,347.707,418.678,347.381,418.895z M348.033,414.979
				c-0.217-0.327-0.436-0.544-0.87-0.544c-0.109-0.436,0.327-0.217,0.327-0.327c0.217,0,0.107-0.218,0.217-0.434
				c0.109,0.325,0.218,0.544,0,0.761c0.218,0.109,0.218,0.109,0.326,0.217c0.108,0,0.108-0.107,0.108-0.107
				C348.252,414.762,348.359,414.979,348.033,414.979z M348.142,413.565c-0.435,0-0.217-0.328-0.325-0.545
				c0.217,0,0.325,0,0.436,0.11C348.142,413.237,348.033,413.349,348.142,413.565z M348.903,411.825c-0.108-0.108,0-0.219,0-0.326
				c-0.108-0.218-0.327-0.328-0.327-0.545c0.219,0,0.219,0.217,0.327,0.217s0-0.217,0.219-0.217
				C349.122,411.281,349.012,411.499,348.903,411.825z M348.903,410.194c-0.219-0.11-0.327,0-0.436,0
				c-0.108-0.11-0.108-0.11-0.108-0.327c0.217-0.108,0.436-0.217,0.652-0.217c0.11,0.108,0.11,0.217,0.11,0.434
				c0.325-0.217,0-0.544,0.216-0.761c0.218,0.327,0.218,0.544,0,1.088c0.218,0,0.436,0,0.544,0.219
				C349.556,410.846,349.231,410.63,348.903,410.194z M349.664,408.019c-0.108,0.218-0.108,0.435-0.108,0.651
				c-0.108,0.109-0.108-0.107-0.218-0.107c-0.106,0-0.106,0.217-0.216,0.217c-0.219-0.326,0.109-0.326,0.216-0.436
				c0-0.218-0.216-0.325-0.106-0.543C349.338,407.801,349.447,408.019,349.664,408.019c-0.108-0.109-0.108-0.218-0.108-0.326
				c0-0.217,0.108-0.545,0.218-0.872c0.218,0.11,0.108,0.327,0.108,0.437c0,0.108,0.109,0.219,0.109,0.325
				C349.882,407.692,349.773,407.909,349.664,408.019z M350.426,404.973c-0.109-0.109-0.216-0.217-0.435-0.109
				c0-0.218,0.108-0.218,0.108-0.325c0.11-0.11,0.11,0.107,0.217,0.107c0.109-0.218-0.106-0.435,0.218-0.651
				c0.219,0.217-0.324,0.544,0.219,0.651C350.645,404.756,350.534,404.863,350.426,404.973z M352.275,393.66
				c0.108,0,0.108,0.108,0.217,0.219c0.11-0.11-0.108-0.437,0.11-0.437c0.107,0.218,0.107,0.437,0.326,0.653
				c-0.326,0.106-0.545-0.11-0.653,0.106C351.949,393.985,352.275,393.769,352.275,393.66z M352.492,394.421
				c0.218,0,0.218,0.217,0.327,0.327c-0.217,0.218-0.327-0.11-0.436,0c-0.218,0.107-0.108,0.327-0.325,0.327
				c0,0.216,0.325,0.107,0.217,0.435c-0.109,0.108-0.217-0.11-0.435-0.11C351.841,394.855,352.059,394.53,352.492,394.421z
				 M351.079,400.293c0.109-0.323,0.217-0.543,0.325-0.868C351.622,399.86,351.622,399.97,351.079,400.293z M351.841,397.686
				c-0.108,0-0.219,0.108-0.108,0.434c-0.544-0.109-0.544-0.434-0.219-1.088c0-0.108-0.109-0.217-0.109-0.325
				c0.109-0.109,0.109,0.108,0.328,0c-0.11-0.327,0.217-0.653,0.217-1.088c0.217,0.108,0.326,0,0.543,0
				c-0.108,0.435-0.326,0.651-0.434,0.979C351.841,396.923,351.841,397.25,351.841,397.686z M352.819,399.425
				c-0.109-0.108-0.327-0.108-0.436,0c0.108-0.219,0.436-0.219,0.436-0.544C353.146,399.1,352.929,399.316,352.819,399.425z
				 M352.929,390.504c0.325-0.106,0.325-0.324,0.651-0.217c0,0.11,0,0.217,0.109,0.436
				C353.363,390.723,353.254,390.614,352.929,390.504z M353.472,389.963c0-0.437,0-0.763,0.218-1.09
				C353.799,389.418,353.799,389.418,353.472,389.963z M354.343,388.22c-0.109,0.11-0.219,0-0.327,0
				c-0.108,0.11,0,0.327-0.326,0.436c0.109-0.325,0-0.761,0.326-0.978C354.124,387.785,354.45,387.895,354.343,388.22z
				 M354.45,387.025c-0.107,0.107-0.217,0-0.326-0.109c0-0.218,0-0.436,0.109-0.543C354.233,386.698,354.56,386.808,354.45,387.025z
				 M354.887,383.218c-0.22-0.327,0.217-0.544,0.217-0.761c0.218,0,0.108,0.324,0.436,0.324
				C355.212,382.891,355.104,383.11,354.887,383.218z M355.646,382.781c0-0.543,0-0.543-0.107-0.761
				c0-0.217,0.107-0.327,0.326-0.217C355.975,382.13,355.865,382.348,355.646,382.781z M355.646,381.587
				c-0.325-0.326-0.325-0.764,0-1.197c0,0.434,0.328,0.544,0.438,0.871C355.975,381.477,355.756,381.477,355.646,381.587z
				 M359.021,379.954c0-0.327,0.217-0.762,0.106-1.087c0.11,0,0.219,0.108,0.436,0.217c0,0.108,0,0.219,0,0.326
				c0,0.11-0.107,0.217-0.217,0.217C359.237,379.736,359.346,379.954,359.021,379.954z M359.998,380.823
				c-0.217-0.107-0.326-0.216-0.543-0.325c0.217-0.108,0.436-0.324,0.652-0.436C360.215,380.39,359.998,380.498,359.998,380.823z"/>
		</g>
		<g>
			<path fill="#D8B428" d="M394.179,447.947c0.499-0.201,1.1-0.201,1.601-0.302c0.802-0.2,1.604-0.2,2.304-0.401
				c0.7-0.198,1.403-0.3,2.104-0.5c0.699-0.2,1.4-0.3,2.003-0.7c0.299-0.101,0.699-0.201,1-0.399c0.102-0.201-0.1-0.303,0-0.502
				c0.201-0.102,0.3-0.102,0.401,0.1c0,0.1-0.2,0.1-0.2,0.301c0.501,0.102,0.9-0.4,1.301-0.301c0.201-0.201,0.302-0.298,0.201-0.5
				c-0.301-0.102-0.502-0.303-0.701-0.502c0-0.099-0.101-0.2-0.101-0.299c-0.1-0.202-0.3-0.1-0.3-0.202
				c-0.102-0.2-0.2-0.399-0.4-0.499c-0.502,0.2-1.103,0.2-1.702,0.2c0-0.101-0.102-0.2-0.2-0.2c-0.202,0-0.401,0.1-0.603,0.1
				c-0.699-0.1-1.4,0.101-2.104,0.101c-1,0.099-1.902,0.199-2.803,0.299c-0.601,0.103-1.201,0.202-1.802,0.202
				c-0.303,0-0.702-0.1-1.003,0c-0.4,0.099-0.899,0-1.301,0c-0.803,0-1.703,0.099-2.605,0c-0.8,0-1.701,0.2-2.604-0.1
				c-0.1,0-0.2,0.1-0.3,0.1c-0.101-0.202-0.301-0.202-0.499-0.202c-0.502,0-1.003,0-1.405-0.299c-0.3-0.101-0.499-0.401-0.7-0.503
				c-0.5-0.098-0.801-0.4-1.201-0.7c-0.2,0-0.401,0.101-0.601-0.199c0-0.1,0.099-0.301-0.201-0.4c0,0.1-0.099,0.199-0.2,0.301
				c-0.099,0,0-0.201-0.099-0.301c-0.202,0.199-0.301-0.102-0.402-0.102c-0.099,0-0.2,0.201-0.3,0.402
				c-0.2-0.402,0.1-0.602,0.3-0.902c0.2,0,0.102,0.199,0.2,0.301c0.101-0.102,0.202,0,0.301-0.102c-0.2-0.199-0.399-0.4-0.501-0.699
				c0-0.2-0.2-0.5-0.4-0.603c-0.4-0.399-0.7-0.8-0.8-1.401c-0.201,0-0.201,0.201-0.302,0.201c-0.1-0.201-0.3,0-0.501,0
				c-0.1-0.201-0.2-0.301-0.3-0.502c0.3,0,0.401,0.301,0.701,0.101c-0.101-0.199-0.3-0.101-0.3-0.301
				c0.199-0.099,0.399,0.102,0.5-0.099c0-0.2,0-0.401,0.1-0.601c-0.2-0.101-0.2-0.402-0.4-0.501c0.2-0.402,0-0.702-0.1-1.103
				c-0.201,0-0.401-0.2-0.702,0c0.101-0.301-0.099-0.501-0.099-0.702c-0.101,0-0.201,0-0.302-0.099
				c-0.399-0.302-0.301-0.701-0.101-1.101c0.201,0.299,0.101,0.599,0.302,0.799c0.101,0.2,0.3,0,0.4,0c0.1,0.2-0.101,0.302,0,0.502
				c0,0.1,0,0.2,0.1,0.3c0.101,0,0.2,0.101,0.302,0.101c-0.201-1.001,0.3-2.003-0.102-2.904c0.301-0.602,0-1.003-0.1-1.502
				c0.201-0.2,0.301-0.502,0.201-0.702c-0.201-0.302-0.102-0.599-0.102-1.001c0.102-0.5-0.1-1.102,0-1.702c0-0.301-0.2-0.7,0-1.003
				c0-0.199-0.1-0.3-0.2-0.499c0.2-0.299,0.101-0.603,0.2-0.802c0-0.602-0.1-1.2-0.1-1.702c-0.101-0.201-0.101-0.3,0-0.501
				c0.201-0.3,0.1-0.701,0.201-1.003c0-0.498-0.201-1.101-0.102-1.601c0-0.2,0.201-0.401,0.102-0.501c0-0.7,0.3-1.303,0.3-2.004
				c-0.2-0.899-0.2-2.002,0-3.104c0-0.202-0.101-0.5-0.101-0.802c0.2-0.802,0-1.602,0.2-2.304c0.101-0.601,0-1.1-0.1-1.703
				c0.3-0.199,0.2-0.498,0.1-0.699c0.101-0.101,0.2-0.2,0.302-0.301c-0.102-0.2-0.302-0.301-0.201-0.501c0.1-0.401,0-0.802,0-1.2
				c0-0.4,0.201-0.803,0.1-1.202c0-0.501,0-0.903,0-1.405c0-0.298,0-0.498-0.1-0.799c0-0.101,0-0.301,0.1-0.402
				c0.102-0.199,0.102-0.398,0.102-0.499c-0.102-1.102-0.102-2.104-0.102-3.104c0-0.201-0.2-0.401-0.1-0.603
				c0.201-0.3,0.1-0.6,0-0.8c0.301-0.803,0.1-1.503,0-2.204c0-0.201,0.1-0.4,0.1-0.501c0-0.6,0.102-1.202,0.102-1.803
				c-0.102-0.601,0-1.201-0.302-1.802c0.2-0.302,0.2-0.602,0.101-0.902c-0.2-0.4-0.2-0.701-0.2-1.102
				c0-0.502-0.101-1.102-0.101-1.602c0-0.902-0.1-1.703-0.199-2.504c0-0.201,0-0.301-0.102-0.501c-0.2-0.401-0.6-0.602-0.801-0.902
				c-0.101-0.1-0.201-0.199-0.3-0.3c-0.102,0-0.2,0-0.299,0c-0.103-0.202-0.304-0.4-0.402-0.5c-0.4,0-0.701-0.301-1.102-0.402
				c-0.302-0.099-0.602-0.198-0.902-0.099c-0.2,0-0.5,0-0.601-0.2c-0.4-0.101-0.7,0-1.001,0c-0.602,0.101-1.203,0-1.701,0.2
				c-0.402,0.099-0.803,0.099-1.104,0.099c-0.8,0-1.501,0.102-2.104,0.502c-0.1,0.101-0.198,0.3-0.299,0.4
				c0.199,0.601,0.101,1.301,0.101,1.803c-0.101,0.801-0.201,1.602-0.201,2.404c0.101,1.1,0,2.303,0.101,3.405
				c0,1.102-0.101,2.202-0.201,3.305c-0.101,0.601,0,1.301,0,1.901c-0.101,0.602,0,1.304,0,2.003c-0.101,1.102,0,2.205,0,3.405
				c0,0.302-0.101,0.701,0.101,1.102c0,0.101,0,0.101,0,0.201c0,0.1-0.201,0.201-0.201,0.301c0.101,0.601-0.1,1.201,0.201,1.703
				c-0.301,1.101-0.101,2.102,0.101,3.104c0,0.2-0.101,0.2-0.201,0.399c0,0.201,0,0.301,0.201,0.502
				c-0.302,0.099-0.302,0.3-0.101,0.501c-0.301,0.602,0.3,1.001,0.201,1.603c0,0-0.201-0.102-0.201,0.101
				c0.201,0.2,0.201,0.2,0.101,0.498c-0.101,0-0.101-0.198-0.201-0.099c0,0.201,0.201,0.201,0.302,0.301
				c-0.101,0.102-0.101,0.2-0.101,0.399c-0.101-0.099-0.101-0.199-0.302-0.199c0.302,0.501,0.302,0.9,0.302,1.402
				c0,0.1-0.101,0.1-0.101,0.198c0,0.202,0.101,0.303,0.201,0.502c-0.101,0.101-0.201,0.201-0.302,0.3
				c0.201,0.304,0.101,0.703,0.101,1.103c0,0.502,0.101,1.002,0.101,1.503c0,0.5,0,1.102,0.299,1.502c-0.1,0.1-0.1,0.1-0.198,0.2
				c0,0.2,0.099,0.399,0.299,0.501c-0.299,0.299-0.101,0.7-0.2,0.9c0,0.201,0.2,0.301,0.2,0.501c-0.101,0-0.101,0.2-0.2,0.301
				c0.2,0.501-0.3,1.102,0.2,1.503c0,0.1-0.101,0.2-0.101,0.4c0.202,0.401-0.399,1,0.101,1.502c0.102,0.099-0.101,0.2-0.2,0.301
				c0.1,0.3,0.2,0.499,0.1,0.802c0,0.098,0,0.199,0.101,0.299c0.102,0.199,0.302,0.402,0.4,0.701c-0.2,0-0.2,0-0.299-0.101
				c-0.102-0.1-0.202-0.1-0.302-0.1c0,0.301,0.302,0.2,0.502,0.4c-0.2,0.099-0.302-0.1-0.402,0.099c0,0.104-0.1,0.202-0.1,0.402
				c0.302,0.3-0.099,0.803,0.2,1.102c0,0.201-0.2,0.301,0,0.499c0,0.103,0.102,0,0.2,0c-0.099,0.103-0.2,0.103-0.2,0.2
				c0.102,0.302-0.101,0.502,0,0.704c0.2,0.3,0,0.398-0.101,0.5c0.202,1.001,0,2.001,0,3.004c0,0.3,0.301,0.4,0.402,0.602
				c0.099-0.102,0.298,0,0.399,0.099c0.101,0.302,0.301,0.603,0,1.003c-0.199,0-0.301,0-0.399-0.101c-0.102-0.2,0.2-0.2,0.298-0.3
				c-0.199-0.201-0.098-0.501-0.298-0.701c-0.2,0-0.402-0.102-0.502,0.2c0,0.1,0.1,0.7,0.1,0.901c0,0.5-0.198,1.002-0.1,1.502
				c0,0.3,0.1,0.5,0,0.801c0,0.101,0.1,0.301,0.2,0.401c-0.299,0.4-0.2,0.599,0.2,0.801c0,0.199-0.099,0.199-0.099,0.399
				c0.2,0.501,0.6,0.901,0.9,1.403c0.501,0.9,1.001,1.903,1.603,2.703c0.1,0.102,0.2,0.301,0.301,0.301
				c0.4,0.3,0.801,0.604,1.102,0.901c0.299,0.301,0.601,0.5,1,0.5c2.003,1.304,4.206,1.805,6.511,2.205
				c1.103,0.201,2.203,0.301,3.305,0.301c0.1,0,0.1-0.301,0.301-0.202c0.101,0.103-0.201,0.202-0.102,0.202
				c0.102,0.099,0.202,0.099,0.202,0.099c1.302,0.1,2.603,0,3.904-0.099c1.503,0,3.005-0.1,4.506-0.202
				C393.077,447.947,393.578,448.046,394.179,447.947z M378.955,434.326c-0.101,0-0.301,0-0.401-0.1
				c-0.099-0.101,0.101-0.199,0.101-0.302c0.101-0.098-0.101-0.098,0-0.199C378.854,433.827,378.854,434.126,378.955,434.326z
				 M378.955,397.771c0,0.501-0.401,0.501-0.401,0.803c-0.199-0.302,0.101-0.4,0.101-0.501c-0.101-0.201-0.199-0.302-0.199-0.501
				C378.554,397.674,378.755,397.771,378.955,397.771z M369.842,428.317c-0.2,0-0.301,0.1-0.5,0.201c-0.102-0.201,0-0.401,0.199-0.5
				c-0.102-0.202-0.301-0.302-0.102-0.503c0.202-0.1,0.202,0.301,0.402,0.301C369.741,427.915,369.842,428.117,369.842,428.317z
				 M374.749,438.332c-0.401,0-0.401-0.301-0.501-0.6c0.202,0,0.301,0,0.501-0.102c0.102,0.102,0.201,0.102,0.3,0.2
				C375.049,438.031,374.851,438.133,374.749,438.332z M376.552,435.328c-0.101-0.101,0.1-0.101,0.1-0.302
				c-0.4,0.201-0.4-0.4-0.802-0.3c0-0.199,0.101-0.199,0.201-0.301c0.2,0.102,0.301,0.2,0.4,0.2c0.101-0.099,0.101-0.3,0.2-0.5
				c0.301,0.2,0.602,0.101,0.901,0.101c-0.201,0.399-0.5,0.5-0.7,0.8c0,0.201,0,0.401,0.1,0.702
				C376.651,435.629,376.853,435.228,376.552,435.328z M377.453,438.332c0,0,0,0.101,0,0.2c0,0-0.102,0-0.102,0.101
				c-0.199,0-0.299,0.101-0.499,0.3c-0.201-0.1-0.201-0.1-0.201-0.3c0.201-0.101,0.401-0.101,0.501-0.2c0-0.101-0.1,0-0.2-0.101
				c0.101-0.399,0.399-0.301,0.703-0.399c0.197,0,0.099-0.2,0.197-0.302c0,0.302,0.2,0.4,0.2,0.601
				C377.853,438.433,377.754,438.532,377.453,438.332z M378.455,436.529c0.399-0.101,0.399,0.2,0.701,0.302c0,0.2,0,0.299,0,0.501
				C378.755,437.231,378.755,436.729,378.455,436.529z M378.755,441.638c0-0.201,0-0.301,0-0.501c0.1-0.101,0.2-0.101,0.2-0.302
				C379.256,441.036,379.156,441.337,378.755,441.638z"/>
		</g>
		<g>
			<path fill="#D8B428" d="M416.469,350.295l-97.932-0.306c-2.438-8.681-7.897-13.818-8.128-13.962c-0.05-0.033,0.05-0.184,0-0.22
				l-0.058-0.143l-0.181-0.166c-0.73-0.672-1.739-0.942-2.491-1.292c-0.253-0.117-0.502-0.231-0.751-0.357
				c-0.139-0.072-0.283-0.134-0.427-0.201c-0.062-0.028-0.138-0.058-0.216-0.096c0.203-0.162,0.459-0.739,0.7-0.879
				c21.859-12.861,30.775-36.341,30.881-36.663c0.317,0.109,7.549,1.981,7.885,1.981l0.167-0.003l0.064-0.007
				c0.146-0.019,0.286-0.042,0.414-0.076c0.067,0.044,0.139,0.088,0.212,0.135c0.749,0.388,1.352-0.129,2.106,0.056
				c0.293,0.065,0.604,0.114,0.948,0.143l0.104,0.007l0.096-0.012c0.078,0,0.224,0.043,0.363,0.079
				c0.198,0.057,0.395,0.105,0.595,0.133l0.129,0.013c0.165,0.005,0.336,0.019,0.501,0.029c0.251,0.021,0.502,0.038,0.752,0.038
				h0.13c0,0,0.204-0.049,0.24-0.056c0.388,0.235,0.961,0.526,1.659,0.571c0.146,0.012,0.289,0.017,0.433,0.017
				c0.185,0,0.369-0.01,0.569-0.021l0.135-0.009c0.12-0.008,0.25-0.021,0.379-0.033c-1.41,1.79-2.541,3.271-3.104,4.173
				c-2.042,3.258-5.485,9.926,1.323,13.44l0.775,0.398l0.318,0.164l0.771,0.406c6.814,3.517,10.259-3.153,11.734-6.703
				c0.46-1.106,1.105-3.216,1.854-5.8c1.156,0.459,2.651,0.891,4.632,1.254c1.865,0.338,3.394-0.117,3.916-0.299
				c2.026-0.705,6.419-7.692,7.019-8.688c1.282-2.136,2.629-10.199,0.704-14.708c-1.733-4.058,0.183-0.531-5.037-9.957
				c2.157-4.954,4.285-10.556,8.807-10.866c5.217-0.354,13.18-2.896,17.117-14.35c4.334-12.609,0.575-19.186-4.336-21.722
				c-5.021-2.581-12.728-0.885-19.948,9.183c-7.06,9.836-4.523,17.794-1.796,22.259c1.812,2.962,0.279,6.572-1.79,10.178
				c-0.852-1.956-6.965-15.748-17.328-32.934c0.238-0.481,2.143-0.651,1.928-1.31c0,0-0.782-0.907-1.012-1.234
				c-15.895-22.663-27.889-33.967-33.172-39.11c0.639-0.89,1.182-1.673,1.208-1.764l0.052,0.258l0.411-0.572
				c3.806-6.053,6.046-18.023,6.125-18.272l1.37,0.945c0,0,0.153-0.542,0.22-0.714c0.645-1.634,1.74-14.95,1.706-15.457l0.032-1.034
				c0,0,0.037-0.229,0.04-0.299c0.595-0.719,1.772,0.205,1.836-0.472c0,0,0.126-3.715,0.156-4.567
				c0.036-0.925-0.522-7.389-1.42-11.707c-0.028-0.139-0.096-0.268-0.151-0.399c-0.055-0.133-0.138-0.335-0.139-0.408
				c0,0,2.156-0.572,2.136-0.854c-0.541-8.103-3.34-22.041-3.461-22.363c-0.244-0.894,0.957-0.032,0.957-0.032l0.123-0.208
				l0.025-0.235c0.273-2.44-3.667-16.352-6.64-20.116c0.077-0.208,0.118-0.434,0.118-0.668l0.02-0.086l0.704-1.02l0.01-0.101
				l1.14-2.297l0.05-0.027c0.761-0.407,1.221-1.085,1.329-1.965l0.022-0.182c0,0-0.048-0.228-0.052-0.251l0.15-0.01l0.385-0.689
				c0.159-0.269,0.389-0.651,0.434-1.165l0.15-0.447c0.409-0.565,0.537-1.185,0.638-1.69c0.098-0.464,0.167-0.758,0.338-0.916
				l0.46-0.418l-0.114-0.617c-0.047-0.25,0.078-0.475,0.398-0.968c0.228-0.356,0.508-0.784,0.658-1.312l0.062-0.098
				c0.367-0.407,1.045-1.223,0.961-2.382c0.485-0.771,0.375-1.611,0.304-2.157c-0.02-0.164-0.043-0.326-0.043-0.485l0.655-0.987
				l-0.271-0.572c0.003,0.008,0.006,0.013,0.009,0.014c0.025,0.01,0.047-0.097,0.062-0.173c0.047-0.234,0.116-0.583,0.068-0.972
				l0.563-0.601l-0.282-0.614c0.017-0.026,0.041-0.06,0.074-0.104l0.367-0.469l-0.096-0.298c0.222-0.488,0.243-1.024,0.052-1.541
				l-0.211-0.517c-0.036-0.184,0.003-0.454,0.045-0.737c0.043-0.306,0.097-0.672,0.076-1.07l0.165-0.082l0.129-1.111
				c0.422-0.602,0.69-1.502,0.123-2.73l-0.048-0.105l-0.039-0.052c0.283-0.582,0.404-1.425-0.241-2.479l-0.064-0.102l-0.086-0.09
				c-0.071-0.074-0.141-0.139-0.216-0.203c0.642-2.65-0.812-5.789-3.531-7.479c-0.555-0.342-1.167-0.665-1.985-1.047
				c-0.39-0.165-0.749-0.246-1.088-0.253c-0.278-0.313-0.611-0.56-1-0.737c-0.379-0.173-0.779-0.261-1.143-0.305
				c-0.179-0.273-0.466-0.535-0.912-0.733c-0.122-0.057-0.256-0.105-0.387-0.156c-0.087-0.029-0.169-0.061-0.25-0.097l-0.082-0.047
				l-0.136-0.05c-1.991-0.661-3.034,0.679-3.651,1.477c-0.113,0.146-0.225,0.292-0.342,0.425l-0.157,0.179l-0.014,0.041
				c-0.035,0.011-0.066,0.021-0.102,0.031c-0.2,0.062-0.491,0.154-0.772,0.338c-0.9-0.077-1.657,0.301-2.185,0.627
				c-1.799,1.067-3.562,2.16-5.105,3.693l-0.081,0.083l-0.062,0.094c-0.238,0.364-0.611,0.658-1.047,0.998
				c-0.449,0.352-0.952,0.749-1.369,1.289c-1.038,0.922-1.775,1.942-2.255,3.123l-0.039,0.091c0,0-0.032,0.16-0.038,0.189
				c-0.062,0.06-0.13,0.121-0.189,0.188h-0.003c-0.542,0.041-1.012,0.236-1.403,0.578l-0.067,0.056l-0.056,0.069
				c-0.376,0.452-0.52,0.885-0.543,1.263c-0.008,0.008-0.19,0.294-0.19,0.294l-0.003,0.191c-0.004,0.003-0.126,0.051-0.126,0.051
				c-0.432,0.101-0.897,0.225-1.289,0.589c-0.202,0.16-0.387,0.355-0.551,0.574c-0.206,0.31-0.343,0.614-0.423,0.923
				c-0.152,0.112-0.31,0.245-0.458,0.41c-0.102,0.046-0.187,0.105-0.259,0.165c-0.046,0-0.236,0.028-0.236,0.028l-0.104,0.034
				c-0.994,0.339-1.656,1-1.901,1.895c-0.313,0.042-0.628,0.148-0.939,0.314c-0.676,0.404-1.081,0.907-1.479,1.431
				c-0.028,0.027-0.192,0.044-0.625,0.055c-0.315,0.007-0.691,0.016-1.085,0.122c-10.109-6.336-20.084-11.461-30.144-15.229v-0.012
				c-0.053-0.015-0.096-0.028-0.148-0.043c-13.517-5.041-27.191-7.612-41.589-7.264l-0.01,0.041
				c-6.011,0.029-12.197,0.552-19.049,1.537c-0.312-0.256-0.653-0.419-0.937-0.558c-0.391-0.187-0.534-0.271-0.547-0.308
				c-0.145-0.642-0.307-1.269-0.755-1.914c-0.218-0.28-0.46-0.505-0.726-0.672c0.142-0.915-0.186-1.791-0.953-2.511l-0.079-0.074
				c0,0-0.165-0.104-0.205-0.125c-0.041-0.084-0.095-0.171-0.166-0.256c-0.069-0.209-0.157-0.397-0.251-0.562
				c0.055-0.315,0.055-0.648-0.005-1.015c-0.057-0.267-0.144-0.52-0.265-0.751c-0.204-0.494-0.579-0.797-0.929-1.069
				c0,0-0.093-0.092-0.096-0.096l0.08-0.178c0,0-0.052-0.336-0.053-0.345c0.134-0.355,0.181-0.809,0.027-1.377l-0.026-0.082
				l-0.038-0.081c-0.21-0.475-0.562-0.846-1.041-1.106h-0.001c-0.03-0.086-0.06-0.17-0.097-0.249
				c0.009-0.031,0.044-0.188,0.044-0.188l0.003-0.1c0.051-1.272-0.201-2.509-0.767-3.774c-0.153-0.665-0.45-1.233-0.711-1.739
				c-0.258-0.488-0.477-0.912-0.546-1.341l-0.017-0.115l-0.041-0.107c-0.772-2.034-1.927-3.757-3.125-5.471
				c-0.347-0.514-0.877-1.168-1.734-1.473c-0.178-0.281-0.407-0.485-0.563-0.625c-0.024-0.023-0.051-0.044-0.08-0.068l0.006-0.042
				l-0.067-0.229c-0.053-0.169-0.094-0.35-0.138-0.526c-0.233-0.983-0.63-2.635-2.718-2.855l-0.143-0.007l-0.097,0.007
				c-0.086,0-0.176-0.007-0.265-0.014c-0.141-0.01-0.284-0.021-0.42-0.021c-0.486,0-0.855,0.118-1.13,0.292
				c-0.352-0.109-0.75-0.19-1.166-0.19c-0.429,0-0.834,0.086-1.215,0.259c-0.316-0.135-0.673-0.208-1.097-0.218
				c-0.903,0.007-1.594,0.049-2.241,0.134c-3.175,0.417-5.792,2.676-6.304,5.355c-0.093,0.027-0.188,0.058-0.28,0.097l-0.114,0.045
				l-0.101,0.069c-1.023,0.693-1.261,1.511-1.242,2.159l-0.062,0.032l-0.082,0.072c-1.021,0.888-1.151,1.817-1.015,2.541
				l-0.342,1.068l0.12,0.141c-0.183,0.355-0.288,0.707-0.374,1.006c-0.081,0.276-0.155,0.537-0.263,0.688l-0.404,0.386
				c-0.387,0.392-0.592,0.887-0.589,1.424l-0.21,0.231l0.138,0.58c0.014,0.055,0.021,0.097,0.027,0.124l-0.51,0.444l0.264,0.779
				c-0.204,0.336-0.283,0.679-0.337,0.916c-0.017,0.072-0.042,0.181-0.015,0.181c0.002,0,0.008,0,0.015-0.008l-0.484,0.41
				l0.19,1.171c-0.066,0.145-0.155,0.28-0.243,0.422c-0.288,0.466-0.734,1.189-0.61,2.089c-0.555,1.022-0.278,2.045-0.108,2.568
				l0.015,0.114c-0.08,0.541-0.003,1.047,0.061,1.466c0.088,0.579,0.109,0.835-0.037,1.047l-0.36,0.513l0.248,0.575
				c0.091,0.211,0.03,0.505-0.073,0.97c-0.114,0.503-0.254,1.12-0.118,1.802l-0.043,0.471c-0.171,0.485-0.124,0.933-0.088,1.238
				l0.067,0.789l0.133,0.07c-0.014,0.021-0.151,0.208-0.151,0.208l-0.054,0.177c-0.263,0.844-0.123,1.652,0.399,2.336l0.034,0.043
				l0.091,2.565l-0.034,0.096l0.226,1.22l-0.021,0.087c-0.099,0.214-0.153,0.436-0.166,0.658
				c-4.263,2.2-14.958,13.462-15.712,15.798l-0.072,0.225l0.023,0.239c0,0,2.818-0.503,2.225,0.209
				c-0.246,0.243-9.053,11.98-12.883,19.135c-0.136,0.251,2.122,1.035,2.122,1.035c-0.439,0.958-6.75,11.128-7.873,15.829
				c-0.158,0.667,0.697-0.315,0.944,0.582c-0.023,0.069-0.083,0.292-0.083,0.292l-0.401,0.956c-0.24,0.448-4.697,13.116-4.78,14.868
				c-0.012,0.187-0.096,0.74-0.096,0.74l1.52-0.255c-0.032,0.261-2.851,14.116-1.583,25.502l0.215,1.034l1.573-0.987
				c0.335,1.003,0.528,1.914,0.851,2.812c0.607,1.683,1.232,3.419,2.132,5.057l0.855,2.016l0.36,0.602
				c0.559,0.915,7.019,11.587,14.35,18.497c0.163,0.269,2.061,1.667,2.076,3.123c-0.05,0.322-0.061,0.663-0.031,1.033l-0.029-0.007
				c-0.123-0.016-0.24-0.021-0.356-0.021c-0.443,0-0.839,0.112-1.174,0.332c-2.002,0.371-11.514,10.814-11.514,10.814
				c-0.229,0.338-0.861,1.326-0.971,1.675l1.74-0.359c-0.281,0.395-0.576,0.635-0.748,0.803c-0.833,0.803-7.445,9.746-8.383,11.368
				c-1.404,2.427-1.396,2.093-0.316,2.371c0.098,0.023,0.609,0.168,0.64,0.168c0.002,0-7.415,21.587-7.543,22.18
				c-1.806,8.395-0.023,3.268,0.079,3.225c0.029-0.012,0.037,0.082,0.055,0.11c0.007,0.007,0.023,0.022,0.03,0.032
				c0.033,0.084-4.438,7.507-2.562,26.985c0.137,1.431,0.448,3.234,0.448,3.234l2.581-1.728c0.033,0.036,0.067,0.068,0.103,0.099
				c0.014,0.475,3.944,16.182,9.121,25.137c1.982,3.431,9.828,12.565,9.828,12.565s1.527-1.999,1.558-1.976
				c4.62,3.733,14.941,6.302,15.154,6.395c6.692,12.495,22.926,21.935,23.115,22.483c0,0,0.499,0.716,0.702,0.88
				c-0.077,0.037-0.154,0.07-0.217,0.096c-0.142,0.068-0.286,0.128-0.427,0.201c-0.246,0.125-0.496,0.24-0.75,0.356
				c-0.751,0.351-1.76,0.621-2.492,1.293l-0.179,0.165l-0.059,0.144c-0.05,0.034,0.05,0.187,0,0.219
				c-0.225,0.141-5.409,5.018-7.931,13.291l-95.014-0.297c-5.708,0-11.417,5.71-11.417,11.418v103.729
				c0,5.709,5.709,11.418,11.417,11.418l14.257-1.037c5.709,0,10.381-0.7,10.381-1.556c0-0.856-4.671-1.557-10.381-1.557H87.293
				c-5.709,0-11.417-4.672-11.417-10.38l1.037-97.506c0-5.709,4.671-10.38,10.38-10.38l91.048-0.291
				c-0.374,2.731,0.634,4.827,2.675,6.957c0.855,0.898,3.819,2.971,3.809,3.09l-0.016,0.158l0.028,0.157
				c0.558,3.015,5.272,5.27,9.364,5.207c6.525-0.102,9.828-3.48,10.16-4.533c0.322-0.08,0.61-0.222,0.856-0.337
				c0.1-0.055,0.237-0.118,0.335-0.158c0.02,0.028,0.041,0.066,0.069,0.116l0.096,0.187c0,0,1.086,3.88,5.84,3.6
				c6.05-0.358,7.208-7.008,7.208-7.008c0.423-2.333-0.017-4.476-0.189-4.964c0.47-0.66,0.587-1.466,0.707-2.343
				c0.012-0.087,0.027-0.172,0.041-0.259l58.894-0.188c0.011,0.07,0.022,0.141,0.033,0.211c0.118,0.88,0.237,1.68,0.707,2.344
				c-0.172,0.487-0.612,2.629-0.188,4.965c0,0,1.157,6.646,7.207,7.006c4.754,0.28,5.841-3.601,5.841-3.601l0.096-0.188
				c0.026-0.046,0.048-0.088,0.068-0.113c0.097,0.037,0.236,0.104,0.337,0.153c0.246,0.121,0.533,0.259,0.855,0.341
				c0.334,1.051,3.636,4.435,10.158,4.534c4.094,0.061,8.807-2.193,9.365-5.211l0.028-0.154l-0.015-0.158
				c-0.011-0.118,2.951-2.192,3.807-3.088c2.095-2.187,3.099-4.337,2.641-7.171l94.198-0.3c5.708,0,11.418,5.709,11.418,11.418
				l-1.038,97.506c0,5.708-4.672,10.38-10.38,10.38H399.04c-5.71,0-10.382,0.7-10.382,1.557c0,0.855,4.672,1.556,10.382,1.556
				l17.429-1.038c5.71,0,10.381-3.634,10.381-9.343l1.038-103.729C427.888,354.967,422.179,350.295,416.469,350.295z
				 M267.713,125.344c2.066-2.133,2.533-4.401,5.614-4.892c-1.164-4.474,7.349-4.476,8.373-7.055
				c3.584-8.858,19.12-1.221,24.524,0.014c0.135,2.666,12.974,10.933,14.425,14.671c6.996,17.359,1.735,38.181-17.298,44.153
				c-8.762,2.751-37.057,0.854-40.934-9.979c-0.955-4.14-5.343-7.442-4.584-12.037c-0.035,0.205-0.214-1.29,0,0
				C256.691,143.295,263.073,130.138,267.713,125.344z M226.515,151.978c0.438-0.22,0.874-0.455,1.356-0.574
				c0.566-0.124,1.094-0.397,1.644-0.558c0.807-0.24,1.601-0.292,2.104,0.446c0.004-0.006,0.003-0.012,0.008-0.023
				c0.489-0.624,1.147-0.667,1.858-0.541c0.191,0.066,0.383,0.135,0.571,0.208c0.206-0.1,0.416-0.199,0.621-0.296
				c0.402,0.079,0.807,0.159,1.212,0.239c0.98,0.048,1.749,0.569,2.515,1.111c0.812,0.37,1.464,0.888,1.659,1.821
				c0.993,0.868,1.881,1.82,2.526,2.967c0.125,0.116,0.253,0.223,0.377,0.338c0.318,0.243,0.59,0.52,0.65,0.938
				c-0.011,0.054-0.031,0.091-0.043,0.14c0.459,0.245,0.763,0.59,0.809,1.125c0.038,0.004,0.075,0.016,0.116,0.019
				c0.449,0.25,0.723,0.598,0.668,1.136c0.332,1.244,0.667,2.481,1,3.72c-0.002,0.002,0,0.005,0,0.005
				c0.1,0.077,0.198,0.151,0.294,0.233c-0.042,0.101-0.079,0.201-0.117,0.304c0.088,0.611,0.81,1.426-0.504,1.601l-0.022-0.056
				c-0.499,1.018-1.132,1.921-1.978,2.669c0.008,0.049,0.022,0.089,0.027,0.145c-0.05,0.194-0.172,0.31-0.37,0.35
				c-0.735,0.234-0.717,1.144-1.34,1.48c-0.51,0.606-1.022,1.214-1.531,1.818c-0.332,0.527-0.822,0.845-1.418,1.001
				c0.018,0.607-0.537,0.871-0.79,1.321c-2.38,2.469-4.132,5.416-6.19,8.131c-0.132,0.229-0.263,0.455-0.398,0.686
				c-0.135,0.217-0.271,0.437-0.405,0.647c0.041,0.186,0.086,0.369,0.125,0.553c-0.049,0.114-0.087,0.231-0.12,0.353l-0.087-0.038
				c-0.173,0.411-0.419,0.751-0.897,0.857c-0.104,0.835-0.889,1.25-1.206,1.953c-0.105-0.049-0.205-0.1-0.304-0.161
				c-0.698-1.939-0.847-1.368-1.819-4.672c-2.983-10.226-6.195-18.404-4.325-25.715c0.456-1.788,1.358-3.341,2.597-4.714
				C225.676,152.52,226.047,152.194,226.515,151.978z M163.121,103.604c7.292-13.816,26.524-21.764,39.562-14.53
				c12.3,6.823,19.993,23.828,21.684,36.591c0.013,0.055,0.031,0.167,0.057,0.379c-0.002,0.232-0.009,0.334-0.019,0.356
				c-0.534,21.399-29.369,28.732-47.396,21.117c-4.888-2.065-17.929-12.195-16.601-18.745
				C157.494,125.601,159.064,103.604,163.121,103.604z M187.92,246.265c-4.03-0.801-7.369-2.777-9.736-4.588
				c-8.924-11.165-12.929-21.278-12.768-23.855c0.202-3.069,38.153-3.09,84.766-0.044c44.951,2.931,81.531,7.648,83.905,10.74
				l0.154,0.007c-0.003,0.07-0.029,0.173-0.042,0.252c0.003,0.025,0.024,0.051,0.022,0.074c-0.002,0.047-0.041,0.086-0.059,0.129
				c-1.33,6.525-23.182,39.817-65.254,46.863l-0.163,2.539l-21.803-1.38c-0.563-12.933-24.873-22.109-24.873-22.109
				C213.094,252.442,196.52,247.969,187.92,246.265z M220.246,349.683c0.347-0.916,0.673-1.615,0.782-1.927
				c0.146-0.42,0.3-0.849,0.408-1.309c0.393-0.554,0.423-1.164,0.439-1.557c0.006-0.089,0.01-0.175,0.019-0.264l0.007-0.122
				c0.005-0.363,0.012-1.372-0.777-2.088c0.228-0.229,0.419-0.485,0.572-0.759c0.018,0.006,0.034,0.009,0.048,0.017
				c0.104,0.042,0.204,0.096,0.314,0.116c6.928,1.162,19.658,1.363,31.341,0.876c8.684,0.079,16.966-0.255,22.079-1.111
				c0.111-0.019,0.212-0.075,0.314-0.117c0.015-0.007,0.033-0.009,0.049-0.018c0.155,0.274,0.344,0.531,0.572,0.76
				c-0.79,0.718-0.781,1.725-0.778,2.091l0.009,0.119c0.008,0.087,0.011,0.173,0.016,0.264c0.019,0.392,0.047,1.001,0.441,1.557
				c0.109,0.46,0.261,0.89,0.407,1.31c0.125,0.356,0.535,1.223,0.936,2.34L220.246,349.683z"/>
		</g>
	</g>
</g>
</svg>
