<?xml version="1.0" encoding="utf-8"?>
<!-- Generator: Adobe Illustrator 16.0.0, SVG Export Plug-In . SVG Version: 6.00 Build 0)  -->
<!DOCTYPE svg PUBLIC "-//W3C//DTD SVG 1.1//EN" "http://www.w3.org/Graphics/SVG/1.1/DTD/svg11.dtd">
<svg version="1.1" id="Layer_1" xmlns="http://www.w3.org/2000/svg" xmlns:xlink="http://www.w3.org/1999/xlink" x="0px" y="0px"
	 width="500px" height="500px" viewBox="0 0 500 500" enable-background="new 0 0 500 500" xml:space="preserve">
<g>
	<g>
		<path fill="#D8B428" d="M386.432,239.525c-4.445-2.286-11.27-0.783-17.663,8.132c-6.254,8.71-4.006,15.758-1.591,19.712
			c1.604,2.622,0.246,5.819-1.586,9.012c-0.754-1.731-6.168-13.945-15.346-29.165c0.212-0.425,1.898-0.575,1.707-1.158
			c0,0-0.691-0.805-0.895-1.094c-14.075-20.069-24.696-30.08-29.376-34.635c0.566-0.787,1.048-1.482,1.071-1.562l0.045,0.229
			l0.364-0.505c3.369-5.361,5.353-15.961,5.425-16.182l1.213,0.837c0,0,0.136-0.479,0.194-0.632
			c0.57-1.446,1.542-13.239,1.511-13.687l0.029-0.916c0,0,0.031-0.203,0.035-0.265c0.526-0.636,1.57,0.182,1.625-0.417
			c0,0,0.112-3.29,0.139-4.044c0.031-0.82-0.462-6.543-1.258-10.367c-0.025-0.123-0.084-0.237-0.134-0.354
			c-0.047-0.118-0.121-0.296-0.123-0.361c0,0,1.909-0.506,1.892-0.756c-0.479-7.175-2.957-19.518-3.065-19.804
			c-0.217-0.791,0.848-0.027,0.848-0.027l0.108-0.184l0.023-0.208c0.242-2.161-3.247-14.48-5.879-17.813
			c0.069-0.185,0.104-0.385,0.104-0.592l0.018-0.077l0.623-0.902l0.01-0.089l1.01-2.035l0.043-0.023
			c0.674-0.361,1.081-0.961,1.176-1.74l0.021-0.161c0,0-0.042-0.202-0.046-0.222l0.134-0.009l0.342-0.611
			c0.14-0.237,0.343-0.576,0.383-1.031l0.134-0.396c0.361-0.5,0.476-1.05,0.564-1.497c0.086-0.412,0.147-0.671,0.298-0.811
			l0.409-0.37l-0.103-0.547c-0.04-0.221,0.07-0.421,0.354-0.858c0.202-0.314,0.45-0.694,0.583-1.161l0.054-0.087
			c0.326-0.361,0.927-1.083,0.851-2.108c0.431-0.684,0.333-1.428,0.27-1.911c-0.017-0.145-0.039-0.288-0.039-0.43l0.581-0.874
			l-0.24-0.506c0.005,0.007,0.006,0.012,0.009,0.013c0.022,0.009,0.041-0.087,0.053-0.153c0.043-0.208,0.105-0.516,0.062-0.861
			l0.499-0.532l-0.249-0.543c0.013-0.023,0.036-0.053,0.064-0.092l0.326-0.416l-0.085-0.264c0.195-0.433,0.216-0.906,0.045-1.364
			l-0.187-0.458c-0.031-0.163,0.003-0.402,0.04-0.653c0.039-0.271,0.086-0.595,0.068-0.947l0.145-0.073l0.114-0.983
			c0.375-0.533,0.612-1.331,0.11-2.418l-0.043-0.093l-0.034-0.046c0.25-0.515,0.356-1.262-0.215-2.195l-0.058-0.091l-0.074-0.08
			c-0.062-0.065-0.124-0.123-0.19-0.18c0.567-2.347-0.72-5.126-3.128-6.624c-0.492-0.303-1.035-0.589-1.759-0.927
			c-0.346-0.146-0.663-0.218-0.965-0.225c-0.245-0.277-0.539-0.496-0.884-0.653c-0.336-0.153-0.69-0.23-1.011-0.27
			c-0.159-0.242-0.413-0.473-0.809-0.648c-0.108-0.051-0.227-0.094-0.342-0.139c-0.077-0.026-0.15-0.054-0.223-0.085l-0.072-0.041
			l-0.12-0.044c-1.764-0.586-2.687,0.601-3.234,1.308c-0.1,0.129-0.198,0.258-0.304,0.375l-0.139,0.159l-0.012,0.036
			c-0.03,0.009-0.06,0.019-0.089,0.027c-0.176,0.056-0.435,0.136-0.684,0.3c-0.798-0.068-1.468,0.266-1.935,0.555
			c-1.595,0.945-3.153,1.913-4.521,3.271l-0.072,0.073l-0.056,0.084c-0.21,0.322-0.542,0.583-0.927,0.883
			c-0.397,0.312-0.843,0.664-1.211,1.142c-0.921,0.816-1.574,1.719-1.999,2.765l-0.034,0.081c0,0-0.028,0.142-0.033,0.167
			c-0.057,0.053-0.115,0.107-0.167,0.167h-0.004c-0.479,0.036-0.896,0.208-1.241,0.511l-0.061,0.05l-0.048,0.061
			c-0.334,0.399-0.461,0.783-0.483,1.118c-0.006,0.008-0.167,0.261-0.167,0.261l-0.004,0.17c-0.004,0.002-0.11,0.045-0.11,0.045
			c-0.384,0.089-0.795,0.199-1.142,0.522c-0.18,0.142-0.343,0.314-0.487,0.509c-0.183,0.274-0.304,0.543-0.375,0.817
			c-0.137,0.099-0.275,0.216-0.407,0.363c-0.088,0.041-0.163,0.093-0.228,0.146c-0.04,0-0.21,0.024-0.21,0.024l-0.09,0.03
			c-0.881,0.301-1.469,0.887-1.686,1.678c-0.276,0.037-0.556,0.131-0.831,0.278c-0.599,0.357-0.958,0.803-1.31,1.267
			c-0.024,0.024-0.172,0.04-0.555,0.05c-0.279,0.006-0.611,0.013-0.96,0.108c-8.953-5.611-17.785-10.149-26.693-13.486v-0.011
			c-0.046-0.013-0.084-0.025-0.132-0.038c-11.969-4.464-24.079-6.741-36.828-6.432l-0.01,0.036
			c-5.322,0.026-10.801,0.488-16.868,1.361c-0.276-0.227-0.578-0.371-0.829-0.494c-0.346-0.166-0.473-0.24-0.484-0.272
			c-0.128-0.568-0.272-1.123-0.669-1.695c-0.194-0.248-0.407-0.447-0.643-0.595c0.125-0.811-0.165-1.586-0.844-2.224l-0.07-0.065
			c0,0-0.146-0.092-0.181-0.111c-0.036-0.074-0.084-0.151-0.146-0.226c-0.061-0.185-0.139-0.352-0.222-0.498
			c0.049-0.279,0.049-0.574-0.004-0.899c-0.051-0.237-0.128-0.46-0.234-0.666c-0.181-0.437-0.513-0.706-0.823-0.947
			c0,0-0.083-0.082-0.084-0.084l0.07-0.157c0,0-0.046-0.297-0.047-0.306c0.119-0.314,0.16-0.716,0.024-1.219l-0.023-0.073
			l-0.033-0.072c-0.187-0.42-0.498-0.749-0.921-0.979h-0.002c-0.026-0.077-0.052-0.151-0.085-0.221
			c0.008-0.028,0.039-0.166,0.039-0.166l0.002-0.089c0.046-1.125-0.177-2.221-0.679-3.341c-0.135-0.589-0.399-1.093-0.63-1.541
			c-0.229-0.432-0.422-0.807-0.484-1.187l-0.015-0.102l-0.036-0.095c-0.685-1.801-1.707-3.327-2.769-4.845
			c-0.307-0.455-0.776-1.034-1.536-1.304c-0.157-0.25-0.36-0.43-0.499-0.553c-0.022-0.021-0.046-0.039-0.07-0.061l0.004-0.037
			l-0.06-0.203c-0.046-0.149-0.082-0.31-0.122-0.466c-0.207-0.871-0.558-2.333-2.407-2.528l-0.126-0.006l-0.086,0.006
			c-0.076,0-0.156-0.006-0.234-0.012c-0.125-0.009-0.252-0.019-0.372-0.019c-0.43,0-0.758,0.104-1.001,0.258
			c-0.312-0.096-0.664-0.168-1.032-0.168c-0.379,0-0.739,0.076-1.076,0.229c-0.28-0.12-0.596-0.184-0.971-0.194
			c-0.8,0.006-1.412,0.044-1.985,0.12c-2.812,0.369-5.128,2.369-5.582,4.741c-0.083,0.024-0.167,0.052-0.248,0.086l-0.101,0.04
			l-0.089,0.061c-0.906,0.614-1.117,1.338-1.1,1.912l-0.055,0.027l-0.072,0.064c-0.904,0.786-1.02,1.609-0.899,2.25l-0.303,0.945
			l0.106,0.125c-0.162,0.314-0.255,0.626-0.331,0.891c-0.071,0.245-0.137,0.475-0.233,0.61l-0.358,0.342
			c-0.343,0.346-0.523,0.785-0.521,1.26l-0.187,0.206l0.122,0.512c0.012,0.049,0.019,0.085,0.024,0.111l-0.452,0.393l0.233,0.69
			c-0.181,0.298-0.251,0.602-0.298,0.81c-0.014,0.064-0.037,0.16-0.014,0.16c0.002,0,0.007,0,0.014-0.007l-0.429,0.363l0.168,1.038
			c-0.059,0.128-0.138,0.248-0.215,0.374c-0.255,0.414-0.65,1.053-0.54,1.85c-0.492,0.905-0.246,1.811-0.096,2.274l0.013,0.101
			c-0.071,0.478-0.003,0.927,0.054,1.298c0.078,0.513,0.097,0.74-0.032,0.927l-0.319,0.455l0.22,0.509
			c0.081,0.188,0.027,0.448-0.063,0.859c-0.102,0.445-0.226,0.992-0.105,1.595l-0.038,0.417c-0.151,0.43-0.109,0.826-0.077,1.096
			l0.059,0.699l0.118,0.062c-0.012,0.019-0.134,0.185-0.134,0.185l-0.047,0.156c-0.233,0.748-0.109,1.464,0.354,2.069l0.03,0.038
			l0.081,2.272l-0.03,0.085l0.2,1.08l-0.019,0.077c-0.087,0.19-0.136,0.387-0.147,0.583c-3.774,1.949-13.246,11.921-13.913,13.99
			l-0.064,0.199l0.021,0.212c0,0,2.495-0.446,1.97,0.185c-0.218,0.215-8.017,10.609-11.409,16.945
			c-0.12,0.222,1.879,0.917,1.879,0.917c-0.389,0.849-5.978,9.855-6.972,14.017c-0.14,0.59,0.617-0.279,0.835,0.516
			c-0.02,0.061-0.073,0.258-0.073,0.258l-0.355,0.846c-0.213,0.396-4.16,11.614-4.234,13.166c-0.01,0.166-0.084,0.656-0.084,0.656
			l1.345-0.226c-0.028,0.23-2.524,12.5-1.402,22.583l0.19,0.915l1.393-0.874c0.297,0.889,0.468,1.695,0.753,2.49
			c0.538,1.491,1.091,3.028,1.888,4.479l0.757,1.786l0.319,0.533c0.495,0.81,6.216,10.261,12.708,16.38
			c0.145,0.237,1.825,1.476,1.838,2.765c-0.044,0.285-0.054,0.587-0.028,0.915l-0.026-0.006c-0.108-0.014-0.212-0.019-0.315-0.019
			c-0.393,0-0.743,0.099-1.039,0.293c-1.774,0.329-10.197,9.577-10.197,9.577c-0.202,0.299-0.762,1.174-0.859,1.483l1.541-0.318
			c-0.249,0.349-0.511,0.562-0.662,0.71c-0.738,0.711-6.593,8.631-7.424,10.067c-1.243,2.149-1.235,1.853-0.279,2.1
			c0.086,0.02,0.539,0.148,0.565,0.148c0.002,0-6.565,19.117-6.679,19.64c-1.6,7.435-0.021,2.894,0.069,2.857
			c0.026-0.011,0.033,0.072,0.049,0.098c0.006,0.006,0.021,0.02,0.026,0.028c0.029,0.074-3.929,6.648-2.269,23.896
			c0.121,1.268,0.396,2.865,0.396,2.865l2.286-1.53c0.029,0.03,0.06,0.061,0.091,0.087c0.012,0.421,3.492,14.33,8.077,22.26
			c1.756,3.038,8.703,11.128,8.703,11.128s1.353-1.77,1.379-1.75c4.091,3.307,13.23,5.58,13.42,5.662
			c5.925,11.065,20.302,19.425,20.469,19.911c0,0,0.441,0.635,0.621,0.779c-0.068,0.033-0.137,0.062-0.192,0.084
			c-0.125,0.061-0.253,0.113-0.378,0.178c-0.218,0.112-0.439,0.212-0.665,0.316c-0.666,0.311-1.558,0.55-2.206,1.145l-0.16,0.146
			l-0.051,0.127c-0.045,0.03,0.044,0.166,0,0.194c-0.223,0.138-5.917,5.499-7.697,14.438c-0.528,2.659,0.359,4.637,2.287,6.647
			c0.757,0.797,3.381,2.631,3.372,2.737l-0.013,0.14l0.024,0.138c0.494,2.671,4.668,4.667,8.292,4.611
			c5.778-0.089,8.703-3.081,8.997-4.013c0.285-0.073,0.54-0.197,0.758-0.3c0.088-0.048,0.21-0.104,0.296-0.14
			c0.018,0.025,0.037,0.059,0.061,0.103l0.085,0.164c0,0,0.962,3.438,5.172,3.189c5.357-0.317,6.382-6.206,6.382-6.206
			c0.375-2.067-0.015-3.964-0.167-4.396c0.417-0.584,0.521-1.297,0.626-2.073c0.299-2.207,1.343-4.285,1.544-4.861
			c0.13-0.371,0.266-0.753,0.361-1.159c0.348-0.489,0.375-1.031,0.389-1.379c0.005-0.078,0.008-0.155,0.017-0.233l0.006-0.107
			c0.006-0.322,0.012-1.215-0.688-1.85c0.201-0.203,0.371-0.43,0.506-0.671c0.016,0.004,0.03,0.007,0.042,0.013
			c0.092,0.038,0.181,0.086,0.278,0.104c6.134,1.029,17.408,1.207,27.753,0.774c7.689,0.07,15.024-0.225,19.552-0.983
			c0.099-0.017,0.188-0.065,0.279-0.104c0.014-0.006,0.028-0.008,0.043-0.016c0.137,0.244,0.305,0.471,0.508,0.673
			c-0.701,0.635-0.693,1.527-0.69,1.852l0.007,0.105c0.008,0.076,0.011,0.154,0.016,0.234c0.015,0.347,0.04,0.886,0.39,1.378
			c0.097,0.406,0.231,0.788,0.36,1.159c0.203,0.576,1.246,2.654,1.544,4.86c0.105,0.779,0.211,1.489,0.628,2.075
			c-0.153,0.433-0.544,2.329-0.167,4.397c0,0,1.023,5.886,6.382,6.204c4.21,0.248,5.172-3.188,5.172-3.188l0.085-0.165
			c0.022-0.041,0.042-0.079,0.06-0.102c0.088,0.033,0.211,0.093,0.299,0.137c0.218,0.107,0.473,0.229,0.758,0.302
			c0.296,0.93,3.219,3.927,8.996,4.016c3.624,0.053,7.799-1.943,8.293-4.615l0.025-0.137l-0.015-0.141
			c-0.009-0.105,2.614-1.94,3.372-2.733c1.928-2.014,2.817-3.99,2.287-6.65c-1.779-8.938-7.475-14.299-7.696-14.438
			c-0.045-0.029,0.043-0.163,0-0.194l-0.052-0.126l-0.16-0.146c-0.647-0.596-1.541-0.836-2.207-1.146
			c-0.224-0.103-0.443-0.204-0.663-0.316c-0.124-0.064-0.251-0.117-0.379-0.178c-0.055-0.024-0.121-0.052-0.19-0.084
			c0.179-0.145,0.406-0.655,0.621-0.778c19.355-11.39,27.252-32.182,27.344-32.468c0.282,0.097,6.686,1.754,6.983,1.754l0.148-0.002
			l0.055-0.006c0.132-0.017,0.256-0.037,0.368-0.067c0.06,0.038,0.122,0.078,0.188,0.119c0.662,0.343,1.195-0.114,1.864,0.05
			c0.26,0.059,0.534,0.102,0.84,0.126l0.092,0.007l0.085-0.011c0.068,0,0.198,0.037,0.322,0.07c0.175,0.049,0.35,0.093,0.526,0.118
			l0.114,0.009c0.146,0.005,0.297,0.018,0.443,0.028c0.223,0.019,0.444,0.032,0.665,0.032h0.115c0,0,0.181-0.043,0.213-0.049
			c0.345,0.208,0.852,0.467,1.471,0.506c0.127,0.01,0.255,0.015,0.382,0.015c0.164,0,0.327-0.009,0.503-0.019l0.121-0.008
			c0.106-0.007,0.221-0.02,0.334-0.029c-1.247,1.585-2.249,2.897-2.747,3.695c-1.808,2.885-4.857,8.788,1.172,11.901l0.688,0.354
			l0.279,0.145l0.684,0.359c6.035,3.114,9.084-2.792,10.393-5.936c0.405-0.979,0.976-2.848,1.64-5.136
			c1.024,0.406,2.349,0.788,4.101,1.11c1.652,0.299,3.007-0.103,3.468-0.264c1.796-0.625,5.686-6.812,6.216-7.695
			c1.136-1.891,2.328-9.031,0.623-13.024c-1.535-3.593,0.162-0.471-4.459-8.817c1.911-4.387,3.794-9.348,7.799-9.622
			c4.619-0.313,11.671-2.565,15.157-12.708C394.11,247.595,390.781,241.772,386.432,239.525z M267.303,150.623
			c1.83-1.891,2.241-3.898,4.97-4.333c-1.03-3.962,6.509-3.963,7.415-6.247c3.174-7.844,16.933-1.081,21.719,0.012
			c0.119,2.361,11.488,9.681,12.773,12.991c6.194,15.373,1.537,33.811-15.317,39.099c-7.761,2.437-32.815,0.756-36.25-8.836
			c-0.846-3.666-4.73-6.59-4.059-10.66c-0.032,0.182-0.188-1.142,0,0C257.542,166.519,263.193,154.867,267.303,150.623z
			 M230.819,174.208c0.389-0.195,0.774-0.403,1.201-0.508c0.502-0.11,0.969-0.352,1.456-0.494c0.714-0.213,1.418-0.258,1.863,0.395
			c0.003-0.005,0.002-0.011,0.007-0.021c0.433-0.553,1.016-0.591,1.645-0.479c0.169,0.059,0.34,0.12,0.506,0.184
			c0.182-0.089,0.368-0.176,0.55-0.262c0.356,0.07,0.715,0.141,1.074,0.212c0.868,0.042,1.548,0.503,2.227,0.983
			c0.719,0.328,1.296,0.787,1.469,1.613c0.879,0.769,1.665,1.612,2.237,2.627c0.11,0.103,0.224,0.198,0.333,0.299
			c0.282,0.215,0.522,0.46,0.575,0.831c-0.009,0.048-0.027,0.081-0.039,0.124c0.407,0.217,0.676,0.523,0.716,0.996
			c0.034,0.004,0.067,0.015,0.103,0.017c0.398,0.221,0.641,0.529,0.592,1.006c0.293,1.102,0.59,2.197,0.886,3.294
			c-0.002,0.002,0,0.004,0,0.004c0.088,0.068,0.175,0.134,0.26,0.207c-0.037,0.088-0.07,0.177-0.103,0.268
			c0.078,0.542,0.717,1.263-0.446,1.417l-0.021-0.049c-0.442,0.901-1.002,1.7-1.751,2.364c0.007,0.043,0.019,0.078,0.023,0.128
			c-0.044,0.171-0.153,0.275-0.327,0.31c-0.651,0.207-0.635,1.012-1.187,1.31c-0.452,0.538-0.905,1.075-1.356,1.61
			c-0.293,0.467-0.727,0.749-1.255,0.887c0.016,0.538-0.476,0.771-0.7,1.17c-2.108,2.186-3.659,4.796-5.482,7.2
			c-0.117,0.203-0.233,0.403-0.353,0.607c-0.12,0.192-0.24,0.387-0.358,0.572c0.037,0.166,0.077,0.327,0.111,0.49
			c-0.044,0.101-0.077,0.205-0.106,0.312l-0.078-0.033c-0.153,0.363-0.371,0.666-0.795,0.758c-0.093,0.74-0.787,1.108-1.068,1.73
			c-0.093-0.044-0.181-0.089-0.269-0.143c-0.618-1.717-0.75-1.211-1.611-4.137c-2.641-9.056-5.486-16.298-3.83-22.772
			c0.403-1.583,1.203-2.959,2.3-4.174C230.076,174.687,230.405,174.399,230.819,174.208z M174.681,131.37
			c6.457-12.235,23.488-19.272,35.034-12.867c10.893,6.042,17.705,21.101,19.202,32.403c0.011,0.048,0.028,0.147,0.051,0.336
			c-0.002,0.206-0.008,0.295-0.017,0.315c-0.473,18.95-26.007,25.443-41.971,18.7c-4.328-1.83-15.876-10.799-14.7-16.599
			C169.698,150.85,171.089,131.37,174.681,131.37z M326.199,242.282c-0.003,0.042-0.038,0.077-0.051,0.115
			c-1.18,5.777-20.529,35.26-57.787,41.499l-0.144,2.249l-19.308-1.222c-0.499-11.454-22.026-19.579-22.026-19.579
			c-7.95-2.171-22.626-6.133-30.242-7.642c-3.569-0.707-6.525-2.459-8.622-4.062c-7.903-9.886-11.449-18.842-11.307-21.124
			c0.179-2.718,33.787-2.736,75.064-0.04c39.806,2.596,72.199,6.773,74.302,9.51l0.136,0.007c-0.002,0.062-0.026,0.152-0.036,0.223
			C326.182,242.239,326.199,242.261,326.199,242.282z"/>
		<path fill="#D8B428" d="M228.951,151.557c0.003-0.107,0.016-0.208,0.017-0.315c-0.014-0.11-0.036-0.226-0.051-0.336
			C228.865,150.688,228.921,151.632,228.951,151.557z"/>
		<path fill="#D8B428" d="M185.02,144.927c-0.021-0.036-0.043-0.07-0.069-0.104c0,0.031,0.001,0.062,0.001,0.089
			C184.978,144.916,184.995,144.924,185.02,144.927z"/>
	</g>
	<g>
		<path fill="#D8B428" d="M222.005,149.484c-1.86-2.608-0.483-5.048-0.579-7.469c-0.75-9.623-11.698-14.932-20.227-14.14
			c-7.396,0.687-11.401,6.097-13.394,12.272c-2.996,2.58-1.338,8.54-0.345,11.599c1.071,3.309,3.414,5.274,5.352,7.988
			c2.828,4.637,1.955,1.856,5.519,2.716c-3.625,0.184,6.545,7.296,7.34,2.354c6.367-0.381,10.388-5.264,14.826-9.075
			c0.209-0.372,1.691-6.031,1.551-6.178C221.982,149.462,221.988,149.464,222.005,149.484z M191.566,138.275
			C191.339,138.348,191.311,138.183,191.566,138.275L191.566,138.275z M201.1,146.552c0.057,0.154-0.014,0.189-0.16,0.151
			c-0.341,0.908-0.99,4.775-1.107,4.835c-0.812,4.902-5.849-0.147-7.02-1.479c-3.942-4.502,0.647-9.892,4.822-5.565
			c-0.111-0.112,2.584,2.017,3.305,2.209c0.066-0.177,0.122-0.252,0.159-0.154c-0.091-0.244-0.213-0.578,0.001,0.001
			C201.211,146.852,201.165,146.726,201.1,146.552z"/>
		<path fill="#D8B428" d="M222.005,149.484c0.015,0.022,0.026,0.044,0.043,0.067C222.118,149.624,222.033,149.517,222.005,149.484z"
			/>
		<polygon fill="#D8B428" points="201.099,146.548 201.1,146.552 201.1,146.549 		"/>
	</g>
	<path fill="#D8B428" d="M301.564,162.884c-4.127-6.053-3.009-12.418-12.812-14.283c-8.407-1.603-19.828,2.636-21.484,12.145
		c-0.075,0.546-1.314,7.924-1.441,7.717c-0.032-0.054-0.005-0.007,0.007,0.011c1.065,1.888,0.4,4.528,1.049,6.011
		c3.62,3.764,6.417,7.95,11.599,9.887c0.719,0.267,5.476,1.97,5.758,1.97c-0.607-0.003,5.863-1.336,7.925-2.97
		c1.989-1.99,4.304-4.309,6.045-6.522C300.549,174.204,303.919,166.408,301.564,162.884z M295.781,168.638
		c-1.289,1.216-6.788,5.761-7.129,0.804c-0.108-0.07-0.387-3.982-0.639-4.918c-0.149,0.024-0.214-0.017-0.144-0.167
		c-0.031,0.064-0.054,0.114-0.069,0.143c-0.019,0.041-0.015,0.031,0,0c0.012-0.027,0.034-0.071,0.069-0.144
		c0.268-0.559,0.113-0.232,0,0c0.048-0.094,0.095-0.014,0.144,0.168c0.734-0.122,3.619-1.985,3.504-1.883
		C296.084,158.733,300.136,164.533,295.781,168.638z"/>
</g>
<rect x="2" y="352.169" fill="none" stroke="#D8B428" stroke-width="3" stroke-miterlimit="10" width="496" height="92.065"/>
<g>
	<path fill="#D8B428" d="M35.218,378.277h3.381l5.122,12.907l5.173-12.907h3.431l-6.351,15.52l6.966,16.441l13.163-32.217h3.893
		l-15.417,36.365h-3.176l-7.631-17.979l-7.683,17.979h-3.125l-15.366-36.365h3.842l13.214,32.217l6.915-16.441L35.218,378.277z"/>
	<path fill="#D8B428" d="M104.67,411.21v3.177H80.239v-36.365h23.97v3.176H83.824v13.111h17.773v3.022H83.824v13.879H104.67z"/>
	<path fill="#D8B428" d="M144.415,378.021h3.022l15.109,36.365h-3.791l-4.712-11.371h-16.338l-4.661,11.371h-3.842L144.415,378.021z
		 M153.225,400.198l-7.324-17.978l-7.426,17.978H153.225z"/>
	<path fill="#D8B428" d="M172.892,414.387v-36.365h15.365c1.57,0,3.013,0.333,4.328,0.999c1.314,0.666,2.45,1.536,3.406,2.612
		c0.956,1.075,1.698,2.297,2.228,3.662c0.529,1.365,0.793,2.749,0.793,4.148c0,1.332-0.197,2.604-0.589,3.814
		c-0.393,1.213-0.939,2.306-1.639,3.278c-0.7,0.974-1.545,1.793-2.536,2.459s-2.1,1.119-3.329,1.357l8.912,14.034h-4.046
		l-8.553-13.42h-10.756v13.42H172.892z M176.477,397.792h11.883c1.058,0,2.023-0.231,2.894-0.691
		c0.871-0.461,1.613-1.084,2.228-1.87c0.614-0.785,1.092-1.672,1.434-2.663c0.341-0.99,0.512-2.031,0.512-3.124
		s-0.197-2.143-0.589-3.149c-0.393-1.008-0.922-1.887-1.587-2.639c-0.666-0.751-1.452-1.349-2.356-1.793
		c-0.905-0.442-1.853-0.665-2.843-0.665h-11.576V397.792z"/>
	<path fill="#D8B428" d="M235.891,411.21v3.177h-24.431v-36.365h23.97v3.176h-20.385v13.111h17.773v3.022h-17.773v13.879H235.891z"
		/>
	<path fill="#D8B428" d="M294.638,378.021v36.365h-3.534v-17.005h-21.562v17.005h-3.586v-36.365h3.586v16.185h21.562v-16.185
		H294.638z"/>
	<path fill="#D8B428" d="M308.875,414.387v-36.365h3.586v36.365H308.875z"/>
	<path fill="#D8B428" d="M326.698,414.387v-36.365h15.366c1.57,0,3.013,0.333,4.328,0.999c1.314,0.666,2.449,1.536,3.405,2.612
		c0.956,1.075,1.698,2.297,2.229,3.662c0.529,1.365,0.795,2.749,0.795,4.148c0,1.332-0.198,2.604-0.59,3.814
		c-0.393,1.213-0.939,2.306-1.64,3.278c-0.7,0.974-1.545,1.793-2.534,2.459c-0.991,0.666-2.101,1.119-3.33,1.357l8.913,14.034
		h-4.047l-8.554-13.42h-10.756v13.42H326.698z M330.284,397.792h11.884c1.058,0,2.022-0.231,2.893-0.691
		c0.871-0.461,1.614-1.084,2.228-1.87c0.615-0.785,1.093-1.672,1.435-2.663c0.342-0.99,0.513-2.031,0.513-3.124
		s-0.196-2.143-0.589-3.149c-0.394-1.008-0.922-1.887-1.588-2.639c-0.666-0.751-1.452-1.349-2.356-1.793
		c-0.904-0.442-1.853-0.665-2.842-0.665h-11.576V397.792z"/>
	<path fill="#D8B428" d="M365.266,414.387v-36.365h3.586v36.365H365.266z"/>
	<path fill="#D8B428" d="M386.674,384.68v29.707h-3.585v-36.365h2.766l24.072,30.27v-30.219h3.586v36.314h-3.124L386.674,384.68z"/>
	<path fill="#D8B428" d="M454.026,409.061c-3.381,3.722-7.273,5.582-11.679,5.582c-2.458,0-4.721-0.528-6.786-1.588
		c-2.066-1.059-3.858-2.458-5.378-4.2c-1.52-1.741-2.706-3.713-3.56-5.915c-0.854-2.203-1.28-4.465-1.28-6.787
		c0-2.424,0.417-4.745,1.255-6.966c0.836-2.219,2.005-4.174,3.509-5.864c1.502-1.689,3.277-3.039,5.326-4.047
		c2.049-1.006,4.284-1.511,6.71-1.511c1.774,0,3.397,0.197,4.865,0.59s2.774,0.939,3.918,1.639c1.144,0.7,2.134,1.537,2.972,2.51
		c0.836,0.974,1.544,2.04,2.125,3.201l-2.766,1.844c-1.196-2.253-2.749-3.909-4.661-4.969c-1.913-1.058-4.08-1.587-6.505-1.587
		c-2.016,0-3.834,0.428-5.454,1.28c-1.622,0.854-3.006,1.99-4.149,3.406c-1.144,1.417-2.022,3.039-2.638,4.865
		c-0.615,1.827-0.921,3.713-0.921,5.66c0,2.048,0.349,3.994,1.049,5.838s1.665,3.458,2.894,4.841
		c1.23,1.383,2.672,2.483,4.328,3.304c1.656,0.819,3.458,1.229,5.404,1.229c2.082,0,4.071-0.486,5.967-1.46
		c1.895-0.974,3.713-2.518,5.455-4.636v-6.043h-8.093v-2.767h11.114v17.876h-3.021V409.061z"/>
	<path fill="#D8B428" d="M469.698,402.708v-25.045h3.482v25.045H469.698z M469.698,414.387v-5.737h3.482v5.737H469.698z"/>
</g>
<g>
	<g>
		<polygon fill="#D3D3D3" points="48.291,394.296 49.988,398.303 56.2,383.121 52.769,383.121 		"/>
		<polygon fill="#D3D3D3" points="44.036,401.989 38.53,415.082 38.221,414.328 37.368,416.324 35.612,416.324 36.84,419.23 
			39.964,419.23 45.679,405.858 		"/>
		<polygon fill="#D3D3D3" points="70.047,382.865 68.151,387.337 56.815,415.082 56.602,414.578 55.862,416.324 54.045,416.324 
			55.278,419.23 58.454,419.23 73.871,382.865 		"/>
	</g>
	<g>
		<polygon fill="#D3D3D3" points="105.472,402.175 105.472,399.152 103.534,399.152 103.534,399.269 85.761,399.269 85.761,409.272 
			87.699,409.272 87.699,402.175 		"/>
		<polygon fill="#D3D3D3" points="108.084,382.865 106.146,382.865 106.146,383.135 85.761,383.135 85.761,392.371 87.699,392.371 
			87.699,386.041 108.084,386.041 		"/>
		<polygon fill="#D3D3D3" points="106.607,416.054 106.607,416.324 84.114,416.324 84.114,419.23 108.545,419.23 108.545,416.054 		
			"/>
	</g>
	<g>
		<path fill="#D3D3D3" d="M200.951,389.443c0,1.527-0.229,3.012-0.683,4.412c-0.322,0.993-0.744,1.924-1.25,2.787
			c-0.065,0.259-0.14,0.517-0.227,0.769c-0.342,0.991-0.82,1.878-1.434,2.663c-0.615,0.786-1.357,1.409-2.228,1.87
			c-0.228,0.121-0.463,0.223-0.704,0.312l1.645,2.591c0.732-0.252,1.421-0.581,2.056-1.008c0.99-0.666,1.835-1.485,2.536-2.459
			c0.699-0.973,1.246-2.065,1.639-3.278c0.392-1.211,0.589-2.482,0.589-3.814c0-1.399-0.265-2.783-0.793-4.148
			c-0.335-0.865-0.767-1.665-1.272-2.414C200.898,388.296,200.951,388.869,200.951,389.443z"/>
		<path fill="#D3D3D3" d="M180.352,386.041h11.576c0.222,0,0.44,0.015,0.658,0.037c-0.231-0.413-0.486-0.801-0.785-1.14
			c-0.5-0.563-1.077-1.002-1.76-1.338c-0.64-0.312-1.292-0.466-1.988-0.466h-9.638v12.72h1.938V386.041z"/>
		<polygon fill="#D3D3D3" points="186.17,402.904 178.415,402.904 178.415,416.324 176.767,416.324 176.767,419.23 180.352,419.23 
			180.352,405.811 188.022,405.811 		"/>
		<polygon fill="#D3D3D3" points="201.862,416.324 197.809,416.324 199.662,419.23 203.708,419.23 		"/>
	</g>
	<g>
		<polygon fill="#D3D3D3" points="236.692,402.175 236.692,399.152 234.755,399.152 234.755,399.269 216.982,399.269 
			216.982,409.272 218.919,409.272 218.919,402.175 		"/>
		<polygon fill="#D3D3D3" points="239.305,382.865 237.367,382.865 237.367,383.135 216.982,383.135 216.982,392.371 
			218.919,392.371 218.919,386.041 239.305,386.041 		"/>
		<polygon fill="#D3D3D3" points="237.828,416.054 237.828,416.324 215.334,416.324 215.334,419.23 239.766,419.23 239.766,416.054 
					"/>
	</g>
	<g>
		<rect x="271.479" y="382.865" fill="#D3D3D3" width="1.938" height="9.403"/>
		<polygon fill="#D3D3D3" points="296.575,382.865 296.575,416.324 294.979,416.324 294.979,419.23 298.513,419.23 298.513,382.865 
					"/>
		<polygon fill="#D3D3D3" points="289.166,399.319 271.479,399.319 271.479,416.324 269.83,416.324 269.83,419.23 273.416,419.23 
			273.416,402.226 289.166,402.226 		"/>
	</g>
	<polygon fill="#D3D3D3" points="314.398,382.865 314.398,416.324 312.75,416.324 312.75,419.23 316.336,419.23 316.336,382.865 	
		"/>
	<g>
		<path fill="#D3D3D3" d="M334.159,386.041h11.576c0.221,0,0.44,0.015,0.658,0.037c-0.23-0.413-0.486-0.801-0.785-1.139
			c-0.501-0.563-1.078-1.003-1.762-1.339c-0.64-0.312-1.29-0.466-1.986-0.466h-9.639v12.72h1.938V386.041z"/>
		<path fill="#D3D3D3" d="M354.759,389.443c0,1.524-0.23,3.009-0.684,4.411c-0.321,0.992-0.743,1.924-1.25,2.788
			c-0.064,0.259-0.141,0.517-0.228,0.769c-0.342,0.991-0.819,1.878-1.435,2.663c-0.613,0.786-1.356,1.409-2.228,1.87
			c-0.229,0.121-0.463,0.223-0.704,0.312l1.646,2.591c0.732-0.252,1.421-0.581,2.056-1.008c0.989-0.666,1.834-1.485,2.534-2.459
			c0.7-0.973,1.247-2.065,1.64-3.278c0.392-1.211,0.59-2.482,0.59-3.814c0-1.399-0.266-2.783-0.795-4.148
			c-0.335-0.864-0.766-1.664-1.271-2.412C354.706,388.297,354.759,388.869,354.759,389.443z"/>
		<polygon fill="#D3D3D3" points="339.978,402.904 332.222,402.904 332.222,416.324 330.573,416.324 330.573,419.23 334.159,419.23 
			334.159,405.811 341.83,405.811 		"/>
		<polygon fill="#D3D3D3" points="355.67,416.324 351.616,416.324 353.469,419.23 357.516,419.23 		"/>
	</g>
	<polygon fill="#D3D3D3" points="370.789,382.865 370.789,416.324 369.141,416.324 369.141,419.23 372.727,419.23 372.727,382.865 	
		"/>
	<g>
		<polygon fill="#D3D3D3" points="415.45,382.916 415.45,416.324 411.944,416.324 414.264,419.23 417.388,419.23 417.388,382.916 		
			"/>
		<polygon fill="#D3D3D3" points="388.611,390.212 388.611,416.324 386.964,416.324 386.964,419.23 390.549,419.23 390.549,392.64 
					"/>
	</g>
	<g>
		<rect x="449.809" y="401.354" fill="#D3D3D3" width="2.28" height="2.767"/>
		<path fill="#D3D3D3" d="M433.982,388.166c-0.968,1.088-1.781,2.298-2.473,3.604c-0.418,1.432-0.643,2.919-0.643,4.434
			c0,1.805,0.31,3.537,0.923,5.15c0.342,0.901,0.767,1.737,1.254,2.516c-0.155-0.919-0.239-1.858-0.239-2.822
			c0-1.947,0.306-3.833,0.921-5.66c0.615-1.826,1.494-3.448,2.638-4.865c1.144-1.416,2.527-2.553,4.149-3.406
			c1.62-0.853,3.438-1.28,5.454-1.28c1.526,0,2.94,0.234,4.265,0.654c-0.753-0.925-1.597-1.675-2.574-2.217
			c-1.479-0.818-3.122-1.236-4.981-1.312c-1.173,0.251-2.297,0.633-3.367,1.158C437.26,385.127,435.484,386.477,433.982,388.166z"/>
		<path fill="#D3D3D3" d="M457.773,387.347c-0.088-0.103-0.185-0.197-0.276-0.296l-2.904,1.937c0.975,0.921,1.823,2.053,2.54,3.404
			l2.766-1.844C459.317,389.387,458.609,388.32,457.773,387.347z"/>
		<path fill="#D3D3D3" d="M452.089,416.324v-1.365c-1.788,0.855-3.657,1.301-5.609,1.301c-0.245,0-0.481-0.025-0.723-0.039
			c-1.106,0.231-2.241,0.359-3.409,0.359c-2.427,0-4.714-0.47-6.816-1.396c1.173,1.066,2.468,1.979,3.905,2.715
			c2.065,1.06,4.328,1.588,6.786,1.588c3.315,0,6.339-1.056,9.074-3.162H452.089z"/>
		<polygon fill="#D3D3D3" points="458.985,401.354 458.985,416.324 457.901,416.324 457.901,419.23 460.923,419.23 460.923,401.354 
					"/>
	</g>
	<g>
		<polygon fill="#D3D3D3" points="475.118,416.324 473.573,416.324 473.573,419.23 477.056,419.23 477.056,413.493 475.118,413.493 
					"/>
		<polygon fill="#D3D3D3" points="475.118,382.507 475.118,404.646 473.573,404.646 473.573,406.712 475.118,406.712 
			475.118,407.552 477.056,407.552 477.056,382.507 		"/>
	</g>
	<g>
		<polygon fill="#D3D3D3" points="152.787,405.042 142.349,405.042 142.386,404.953 139.051,404.953 136.818,410.289 
			134.345,416.324 134.294,416.324 133.078,419.23 136.92,419.23 141.581,407.859 153.955,407.859 		"/>
		<polygon fill="#D3D3D3" points="147.765,391.932 146.153,387.975 141.85,398.261 145.15,398.261 		"/>
		<polygon fill="#D3D3D3" points="165.214,416.324 161.427,416.324 162.631,419.23 166.422,419.23 		"/>
	</g>
</g>
</svg>
